<svg width="64" height="64" viewBox="0 0 64 64" fill="none" xmlns="http://www.w3.org/2000/svg">
<rect width="64" height="64" rx="32" fill="#EFF1F0"/>
<path d="M17.4551 34.9093C17.4551 29.4239 17.4551 26.6812 19.1592 24.9771C20.8633 23.2729 23.606 23.2729 29.0914 23.2729H34.9096C40.395 23.2729 43.1378 23.2729 44.8418 24.9771C46.546 26.6812 46.546 29.4239 46.546 34.9093C46.546 40.3947 46.546 43.1375 44.8418 44.8415C43.1378 46.5457 40.395 46.5457 34.9096 46.5457H29.0914C23.606 46.5457 20.8633 46.5457 19.1592 44.8415C17.4551 43.1375 17.4551 40.3947 17.4551 34.9093Z" stroke="#B1B9B7" stroke-width="2.18182"/>
<path d="M37.818 23.2728C37.818 20.5301 37.818 19.1587 36.9659 18.3066C36.1139 17.4546 34.7425 17.4546 31.9998 17.4546C29.2571 17.4546 27.8857 17.4546 27.0337 18.3066C26.1816 19.1587 26.1816 20.5301 26.1816 23.2728" stroke="#B1B9B7" stroke-width="2.18182"/>
<path d="M29.0911 36.3638H23.2729C22.5872 36.3638 22.2444 36.3638 22.0314 36.5767C21.8184 36.7898 21.8184 37.1326 21.8184 37.8183V39.2729C21.8184 39.9585 21.8184 40.3014 22.0314 40.5145C22.2444 40.7274 22.5872 40.7274 23.2729 40.7274H29.0911C29.7768 40.7274 30.1196 40.7274 30.3327 40.5145C30.5456 40.3014 30.5456 39.9585 30.5456 39.2729V37.8183C30.5456 37.1326 30.5456 36.7898 30.3327 36.5767C30.1196 36.3638 29.7768 36.3638 29.0911 36.3638Z" stroke="#B1B9B7" stroke-width="2.18182" stroke-linejoin="round"/>
<path d="M23.2734 24V36.3636M23.2734 45.8182V41.4545" stroke="#B1B9B7" stroke-width="2.18182" stroke-linecap="round"/>
<path d="M40.7266 24V45.8182" stroke="#B1B9B7" stroke-width="2.18182" stroke-linecap="round"/>
</svg>
