<svg width="208" height="91" viewBox="0 0 208 91" fill="none" xmlns="http://www.w3.org/2000/svg">
<g opacity="0.1">
<path d="M41.1795 10.9617H10.2271L4 -12.2119L10.2271 -31.4637M41.1795 10.9617L67.37 -10.4293M41.1795 10.9617H73.2308L77.2601 -2.58594L67.37 -10.4293M67.37 -10.4293L39.5311 -31.4637H10.2271M67.37 -10.4293L77.2601 -18.9857L73.2308 -31.4637H10.2271" stroke="#FBFEFD" stroke-opacity="0.5" stroke-width="7.32601"/>
<path d="M166.821 -31.4614L197.773 -31.4614L204 -8.28788L197.773 10.964M166.821 -31.4614L140.63 -10.0705M166.821 -31.4614H134.769L130.74 -17.9138L140.63 -10.0705M140.63 -10.0705L168.469 10.964L197.773 10.964M140.63 -10.0705L130.74 -1.51408L134.769 10.964L197.773 10.964" stroke="#FBFEFD" stroke-opacity="0.5" stroke-width="7.32601"/>
<path d="M168.38 9.70917L193.421 27.4166L184.464 49.7268L167.8 61.7394M168.38 9.70917L134.274 12.0316M168.38 9.70917L142.45 -8.62688L131.009 0.0282597L134.274 12.0316M134.274 12.0316L144.093 44.9751L167.8 61.7394M134.274 12.0316L121.105 13.2959L116.829 25.696L167.8 61.7394" stroke="#FBFEFD" stroke-opacity="0.5" stroke-width="7.32601"/>
<path d="M144.705 42.9366L154.269 71.5877L133.549 84.5129L112.813 84.6979M144.705 42.9366L115.709 25.3034M144.705 42.9366L134.8 13.2682L120.317 13.7249L115.709 25.3034M115.709 25.3034L103.758 57.5725L112.813 84.6979M115.709 25.3034L104.292 18.7927L93.3438 26.3784L112.813 84.6979" stroke="#FBFEFD" stroke-opacity="0.5" stroke-width="7.32601"/>
<path d="M105.484 55.6901L95.9197 84.3413L71.3512 82.9444L54.4633 71.2311M105.484 55.6901L92.6754 24.8366M105.484 55.6901L115.389 26.0218L103.396 18.1056L92.6754 24.8366M92.6754 24.8366L63.5188 44.1057L54.4633 71.2311M92.6754 24.8366L87.3707 13.0378L73.9325 12.9116L54.4633 71.2311" stroke="#FBFEFD" stroke-opacity="0.5" stroke-width="7.32601"/>
<path d="M65.6065 44.0307L40.5655 61.7381L21.5328 46.5528L14.9441 27.4152M65.6065 44.0307L73.8767 11.7419M65.6065 44.0307L91.5365 25.6947L86.6147 12.4293L73.8767 11.7419M73.8767 11.7419L38.6515 10.6508L14.9441 27.4152M73.8767 11.7419L76.7106 -0.838358L65.9151 -8.62822L14.9441 27.4152" stroke="#FBFEFD" stroke-opacity="0.5" stroke-width="7.32601"/>
</g>
</svg>
