<svg width="184" height="131" viewBox="0 0 184 131" fill="none" xmlns="http://www.w3.org/2000/svg">
<g opacity="0.1">
<path d="M17.1795 120.962H-13.7729L-20 97.7881L-13.7729 78.5363M17.1795 120.962L43.37 99.5707M17.1795 120.962H49.2308L53.2601 107.414L43.37 99.5707M43.37 99.5707L15.5311 78.5363H-13.7729M43.37 99.5707L53.2601 91.0143L49.2308 78.5363H-13.7729" stroke="#FBFEFD" stroke-opacity="0.5" stroke-width="7.32601"/>
<path d="M14.5199 80.8614L-10.5211 63.154L-1.56402 40.8438L15.1003 28.8311M14.5199 80.8614L48.6268 78.5389M14.5199 80.8614L40.45 99.1974L51.8914 90.5423L48.6268 78.5389M48.6268 78.5389L38.8078 45.5955L15.1003 28.8311M48.6268 78.5389L61.7954 77.2746L66.0714 64.8746L15.1003 28.8311" stroke="#FBFEFD" stroke-opacity="0.5" stroke-width="7.32601"/>
<path d="M38.1959 48.7004L28.6311 20.0492L49.351 7.12408L70.0874 6.93907M38.1959 48.7004L67.1915 66.3335M38.1959 48.7004L48.1003 78.3688L62.5835 77.9121L67.1915 66.3335M67.1915 66.3335L79.1428 34.0644L70.0874 6.93907M67.1915 66.3335L78.6087 72.8443L89.5566 65.2586L70.0874 6.93907" stroke="#FBFEFD" stroke-opacity="0.5" stroke-width="7.32601"/>
<path d="M77.0507 34.8785L86.6155 6.22733L111.184 7.62421L128.072 19.3375M77.0507 34.8785L89.8597 65.732M77.0507 34.8785L67.1463 64.5469L79.1393 72.463L89.8597 65.732M89.8597 65.732L119.016 46.4629L128.072 19.3375M89.8597 65.732L95.1645 77.5308L108.603 77.657L128.072 19.3375" stroke="#FBFEFD" stroke-opacity="0.5" stroke-width="7.32601"/>
<path d="M117.294 46.1824L142.335 28.475L161.368 43.6604L167.956 62.7979M117.294 46.1824L109.024 78.4712M117.294 46.1824L91.3639 64.5185L96.2857 77.7838L109.024 78.4712M109.024 78.4712L144.249 79.5623L167.956 62.7979M109.024 78.4712L106.19 91.0515L116.985 98.8414L167.956 62.7979" stroke="#FBFEFD" stroke-opacity="0.5" stroke-width="7.32601"/>
<path d="M142.821 78.5386H173.773L180 101.712L173.773 120.964M142.821 78.5386L116.63 99.9295M142.821 78.5386H110.769L106.74 92.0862L116.63 99.9295M116.63 99.9295L144.469 120.964H173.773M116.63 99.9295L106.74 108.486L110.769 120.964L173.773 120.964" stroke="#FBFEFD" stroke-opacity="0.5" stroke-width="7.32601"/>
<path d="M144.38 119.709L169.421 137.417L160.464 159.727L143.8 171.739M144.38 119.709L110.274 122.032M144.38 119.709L118.45 101.373L107.009 110.028L110.274 122.032M110.274 122.032L120.093 154.975L143.8 171.739M110.274 122.032L97.105 123.296L92.829 135.696L143.8 171.739" stroke="#FBFEFD" stroke-opacity="0.5" stroke-width="7.32601"/>
<path d="M120.705 152.937L130.269 181.588L109.549 194.513L88.813 194.698M120.705 152.937L91.7089 135.303M120.705 152.937L110.8 123.268L96.3169 123.725L91.7089 135.303M91.7089 135.303L79.7576 167.573L88.813 194.698M91.7089 135.303L80.2917 128.793L69.3438 136.378L88.813 194.698" stroke="#FBFEFD" stroke-opacity="0.5" stroke-width="7.32601"/>
<path d="M81.4845 165.69L71.9197 194.341L47.3512 192.944L30.4633 181.231M81.4845 165.69L68.6754 134.837M81.4845 165.69L91.3889 136.022L79.3958 128.106L68.6754 134.837M68.6754 134.837L39.5188 154.106L30.4633 181.231M68.6754 134.837L63.3707 123.038L49.9325 122.912L30.4633 181.231" stroke="#FBFEFD" stroke-opacity="0.5" stroke-width="7.32601"/>
<path d="M41.6065 154.031L16.5655 171.738L-2.46723 156.553L-9.05592 137.415M41.6065 154.031L49.8767 121.742M41.6065 154.031L67.5365 135.695L62.6147 122.429L49.8767 121.742M49.8767 121.742L14.6515 120.651L-9.05592 137.415M49.8767 121.742L52.7106 109.162L41.9151 101.372L-9.05592 137.415" stroke="#FBFEFD" stroke-opacity="0.5" stroke-width="7.32601"/>
</g>
</svg>
