<svg width="200" height="201" viewBox="0 0 200 201" fill="none" xmlns="http://www.w3.org/2000/svg">
<path d="M33.4421 131.886L47.5211 89.6482C53.9046 70.4978 57.0964 60.9226 64.6485 59.1398C72.2007 57.357 79.3376 64.4939 93.6115 78.7677L121.77 106.926C136.043 121.2 143.181 128.337 141.397 135.889C139.615 143.441 130.04 146.632 110.889 153.017L68.6518 167.096C45.6067 174.777 34.0842 178.618 28.0018 172.536C21.9195 166.453 25.7603 154.931 33.4421 131.886Z" stroke="#FBFEFD" stroke-width="5" stroke-linecap="round"/>
<path d="M101.961 153.421C101.961 153.421 95.6434 134.411 95.6434 121.83C95.6434 109.248 101.961 90.2393 101.961 90.2393M67.2115 162.898C67.2115 162.898 61.8754 139.965 60.8934 124.989C59.2709 100.245 67.2115 61.808 67.2115 61.808" stroke="#FBFEFD" stroke-width="5" stroke-linecap="round"/>
<path d="M120.917 83.921L122.117 77.9213C123.328 71.8638 127.693 66.9199 133.553 64.9664C139.414 63.013 143.778 58.0691 144.989 52.0116L146.189 46.0121" stroke="#FBFEFD" stroke-width="5" stroke-linecap="round"/>
<path d="M146.405 102.648L148.179 103.672C153.655 106.834 160.54 106.136 165.271 101.941C169.555 98.1422 175.656 97.1789 180.903 99.473L183.332 100.535" stroke="#FBFEFD" stroke-width="5" stroke-linecap="round"/>
<path d="M87.7977 25.5371C84.9852 30.1376 85.6902 36.0658 89.5035 39.8785L90.3185 40.6942C93.5952 43.9705 94.8035 48.7837 93.4627 53.2189" stroke="#FBFEFD" stroke-width="5" stroke-linecap="round"/>
<path d="M113.006 37.1741C114.682 35.4986 115.52 34.6609 116.488 34.3538C117.308 34.0941 118.187 34.0941 119.006 34.3538C119.975 34.6609 120.813 35.4986 122.489 37.1741C124.164 38.8496 125.001 39.6873 125.309 40.656C125.569 41.4753 125.569 42.3549 125.309 43.1741C125.001 44.1428 124.164 44.9806 122.489 46.6561C120.813 48.3315 119.975 49.1692 119.006 49.4763C118.187 49.7361 117.308 49.7361 116.488 49.4763C115.52 49.1692 114.682 48.3315 113.006 46.6561C111.331 44.9806 110.493 44.1428 110.186 43.1741C109.926 42.3549 109.926 41.4753 110.186 40.656C110.493 39.6873 111.331 38.8496 113.006 37.1741Z" fill="#FBFEFD"/>
<path d="M162.233 62.7725C164.278 60.7276 165.3 59.7052 166.454 59.2608C167.804 58.7407 169.299 58.7407 170.649 59.2608C171.802 59.7052 172.824 60.7276 174.869 62.7725C176.914 64.8175 177.937 65.84 178.381 66.9934C178.901 68.3432 178.901 69.8381 178.381 71.188C177.937 72.3415 176.914 73.3639 174.869 75.4088C172.824 77.4537 171.802 78.4762 170.649 78.9206C169.299 79.4407 167.804 79.4407 166.454 78.9206C165.3 78.4762 164.278 77.4537 162.233 75.4088C160.188 73.3639 159.165 72.3415 158.721 71.188C158.201 69.8381 158.201 68.3432 158.721 66.9934C159.165 65.84 160.188 64.8175 162.233 62.7725Z" fill="#FBFEFD"/>
<path d="M57.7242 33.3771C59.4698 31.6315 62.3 31.6315 64.0455 33.3771C65.7911 35.1226 65.7911 37.9528 64.0455 39.6984C62.3 41.444 59.4698 41.444 57.7242 39.6984C55.9786 37.9528 55.9786 35.1226 57.7242 33.3771Z" fill="#FBFEFD"/>
<path d="M158.81 128.149C160.555 126.403 163.386 126.403 165.131 128.149C166.877 129.894 166.877 132.724 165.131 134.47C163.386 136.216 160.555 136.216 158.81 134.47C157.065 132.724 157.065 129.894 158.81 128.149Z" fill="#FBFEFD"/>
<path d="M145.841 81.7169C147.586 79.9713 150.416 79.9713 152.162 81.7169C153.907 83.4625 153.907 86.2923 152.162 88.0381C150.416 89.784 147.586 89.784 145.841 88.0381C144.095 86.2923 144.095 83.4625 145.841 81.7169Z" fill="#FBFEFD"/>
</svg>
