<svg width="200" height="201" viewBox="0 0 200 201" fill="none" xmlns="http://www.w3.org/2000/svg">
<path d="M141.667 83.4076H158.334C175 83.4076 183.334 75.0743 183.334 58.4076V41.741C183.334 25.0743 175 16.741 158.334 16.741H141.667C125 16.741 116.667 25.0743 116.667 41.741V58.4076C116.667 75.0743 125 83.4076 141.667 83.4076Z" stroke="#FBFEFD" stroke-width="5" stroke-miterlimit="10" stroke-linecap="round" stroke-linejoin="round"/>
<path d="M41.667 183.408H58.3337C75.0003 183.408 83.3336 175.074 83.3336 158.408V141.741C83.3336 125.074 75.0003 116.741 58.3337 116.741H41.667C25.0003 116.741 16.667 125.074 16.667 141.741V158.408C16.667 175.074 25.0003 183.408 41.667 183.408Z" stroke="#FBFEFD" stroke-width="5" stroke-miterlimit="10" stroke-linecap="round" stroke-linejoin="round"/>
<path d="M50.0003 83.4076C68.4098 83.4076 83.3336 68.4838 83.3336 50.0743C83.3336 31.6648 68.4098 16.741 50.0003 16.741C31.5908 16.741 16.667 31.6648 16.667 50.0743C16.667 68.4838 31.5908 83.4076 50.0003 83.4076Z" stroke="#FBFEFD" stroke-width="5" stroke-miterlimit="10" stroke-linecap="round" stroke-linejoin="round"/>
<path d="M150 183.408C168.409 183.408 183.334 168.483 183.334 150.074C183.334 131.665 168.409 116.741 150 116.741C131.591 116.741 116.667 131.665 116.667 150.074C116.667 168.483 131.591 183.408 150 183.408Z" stroke="#FBFEFD" stroke-width="5" stroke-miterlimit="10" stroke-linecap="round" stroke-linejoin="round"/>
</svg>
