<svg width="12" height="13" viewBox="0 0 12 13" fill="none" xmlns="http://www.w3.org/2000/svg">
<path d="M6.00067 1.91205C5.51142 1.91205 5.09422 2.22456 4.93961 2.66201C4.87059 2.85728 4.65634 2.95963 4.46107 2.89061C4.2658 2.82159 4.16346 2.60735 4.23248 2.41208C4.48969 1.68434 5.18372 1.16205 6.00067 1.16205C6.81767 1.16205 7.51167 1.68434 7.76892 2.41208C7.83792 2.60735 7.73557 2.82159 7.54032 2.89061C7.34502 2.95963 7.13077 2.85728 7.06177 2.66201C6.90717 2.22456 6.48992 1.91205 6.00067 1.91205Z" fill="#FBFEFD"/>
<path d="M1.375 3.53711C1.375 3.33 1.54289 3.16211 1.75 3.16211H10.25C10.4571 3.16211 10.625 3.33 10.625 3.53711C10.625 3.74421 10.4571 3.91211 10.25 3.91211H1.75C1.54289 3.91211 1.375 3.74421 1.375 3.53711Z" fill="#FBFEFD"/>
<path d="M2.95816 4.76193C2.94439 4.55536 2.7657 4.39906 2.55905 4.41283C2.3524 4.4266 2.19605 4.60523 2.20983 4.8118L2.44155 8.28641C2.4843 8.92758 2.51883 9.44544 2.59981 9.85185C2.68401 10.2743 2.82722 10.6273 3.12302 10.9039C3.41882 11.1805 3.78059 11.2999 4.20792 11.3558C4.61894 11.4095 5.13817 11.4095 5.78097 11.4095H6.22037C6.86317 11.4095 7.38237 11.4095 7.79342 11.3558C8.22072 11.2999 8.58252 11.1805 8.87832 10.9039C9.17412 10.6273 9.31732 10.2743 9.40152 9.85185C9.48247 9.44544 9.51702 8.92758 9.55977 8.28641L9.79152 4.8118C9.80527 4.60523 9.64892 4.4266 9.44227 4.41283C9.23562 4.39906 9.05692 4.55536 9.04317 4.76193L8.81317 8.21024C8.76827 8.88395 8.73622 9.35268 8.66597 9.70535C8.59777 10.0475 8.50262 10.2286 8.36592 10.3564C8.22922 10.4842 8.04212 10.5671 7.69612 10.6124C7.33942 10.659 6.86942 10.6598 6.19402 10.6598H5.80732C5.13192 10.6598 4.6619 10.659 4.3052 10.6124C3.9592 10.5671 3.77212 10.4842 3.63541 10.3564C3.4987 10.2286 3.40354 10.0475 3.33536 9.70535C3.26508 9.35268 3.23306 8.88395 3.18814 8.21024L2.95816 4.76193Z" fill="#FBFEFD"/>
<path d="M4.71271 5.66394C4.91879 5.64334 5.10253 5.79369 5.12318 5.99979L5.37318 8.49979C5.39378 8.70584 5.24343 8.88964 5.03733 8.91024C4.83126 8.93084 4.64749 8.78049 4.62689 8.57439L4.37689 6.07439C4.35628 5.86834 4.50663 5.68454 4.71271 5.66394Z" fill="#FBFEFD"/>
<path d="M7.62319 6.07439C7.64379 5.86834 7.49344 5.68454 7.28734 5.66394C7.08129 5.64334 6.89749 5.79369 6.87689 5.99979L6.62689 8.49979C6.60629 8.70584 6.75664 8.88964 6.96274 8.91024C7.16879 8.93084 7.35254 8.78049 7.37319 8.57439L7.62319 6.07439Z" fill="#FBFEFD"/>
</svg>
