<svg width="12" height="13" viewBox="0 0 12 13" fill="none" xmlns="http://www.w3.org/2000/svg">
<g clip-path="url(#clip0_1729_4781)">
<path d="M7.18005 2.57656L7.64345 2.11312C8.4113 1.34527 9.65625 1.34527 10.4241 2.11312C11.192 2.88097 11.192 4.12591 10.4241 4.89376L9.96065 5.3572M7.18005 2.57656C7.18005 2.57656 7.23795 3.56137 8.1069 4.43032C8.97585 5.29927 9.96065 5.3572 9.96065 5.3572M7.18005 2.57656L2.91941 6.83718C2.63083 7.12578 2.48654 7.27003 2.36245 7.42913C2.21606 7.61683 2.09057 7.81988 1.98817 8.03473C1.90136 8.21688 1.83684 8.41048 1.70778 8.79763L1.1609 10.4383M9.96065 5.3572L5.70005 9.61783C5.41145 9.90638 5.2672 10.0507 5.1081 10.1748C4.92041 10.3212 4.71735 10.4467 4.50249 10.5491C4.32035 10.6359 4.12676 10.7004 3.73959 10.8294L2.09896 11.3763M1.1609 10.4383L1.02722 10.8393C0.963715 11.0298 1.0133 11.2399 1.15531 11.3819C1.29733 11.5239 1.50739 11.5735 1.69792 11.51L2.09896 11.3763M1.1609 10.4383L2.09896 11.3763" stroke="#1CA686" stroke-width="1.5"/>
</g>
<defs>
<clipPath id="clip0_1729_4781">
<rect width="12" height="12" fill="white" transform="translate(0 0.537109)"/>
</clipPath>
</defs>
</svg>
