<svg width="14" height="22" viewBox="0 0 14 22" fill="none" xmlns="http://www.w3.org/2000/svg">
<path d="M7 20.999C10.0376 20.999 12.5 18.5366 12.5 15.499C12.5 13.7626 11.6954 12.2142 10.4386 11.2062C10.1749 10.9947 10 10.6847 10 10.3467V3.99902C10 2.34217 8.6569 0.999023 7 0.999023C5.3431 0.999023 4 2.34217 4 3.99902V10.3467C4 10.6847 3.82505 10.9947 3.56141 11.2062C2.30465 12.2142 1.5 13.7626 1.5 15.499C1.5 18.5366 3.96243 20.999 7 20.999Z" stroke="#1CA686" stroke-width="1.5"/>
<path d="M9.5 15.5C9.5 16.8807 8.3807 18 7 18C5.6193 18 4.5 16.8807 4.5 15.5C4.5 14.1193 5.6193 13 7 13C8.3807 13 9.5 14.1193 9.5 15.5Z" stroke="#1CA686" stroke-width="1.5"/>
<path d="M7 13V4" stroke="#1CA686" stroke-width="1.5" stroke-linecap="round"/>
</svg>
