<svg width="24" height="24" viewBox="0 0 24 24" fill="none" xmlns="http://www.w3.org/2000/svg">
<path d="M14 11C14 10.4477 14.4477 10 15 10C15.5523 10 16 10.4477 16 11V13C16 13.5523 15.5523 14 15 14C14.4477 14 14 13.5523 14 13V11Z" stroke="#1CA686" stroke-width="1.5"/>
<path d="M14.0136 17L14.7636 17.0022V17H14.0136ZM14.0136 7H14.7636V6.99782L14.0136 7ZM14.7578 19.0051L14.7636 17.0022L13.2636 16.9978L13.2578 19.0007L14.7578 19.0051ZM15.0161 16.75C15.1573 16.75 15.2686 16.8637 15.2686 17H16.7686C16.7686 16.0317 15.9822 15.25 15.0161 15.25V16.75ZM15.0161 15.25C14.05 15.25 13.2636 16.0317 13.2636 17H14.7636C14.7636 16.8637 14.8749 16.75 15.0161 16.75V15.25ZM9.99497 4.75H13.5051V3.25H9.99497V4.75ZM13.0078 19.25H9.99497V20.75H13.0078V19.25ZM9.99497 19.25C8.0835 19.25 6.72516 19.2484 5.69464 19.1102C4.68549 18.9749 4.10379 18.721 3.6792 18.2974L2.61986 19.3594C3.36975 20.1074 4.32046 20.4393 5.49525 20.5969C6.64866 20.7516 8.1258 20.75 9.99497 20.75V19.25ZM9.99497 3.25C8.1258 3.25 6.64866 3.24841 5.49525 3.4031C4.32046 3.56066 3.36975 3.89255 2.61986 4.64058L3.6792 5.70256C4.10379 5.27902 4.68549 5.02513 5.69464 4.88979C6.72516 4.75159 8.0835 4.75 9.99497 4.75V3.25ZM2.58736 10.9085C2.97306 11.1239 3.23002 11.533 3.23002 12H4.73002C4.73002 10.9664 4.15855 10.0678 3.31871 9.59884L2.58736 10.9085ZM2.75987 9.02097C2.8379 7.16494 3.09141 6.28889 3.6792 5.70256L2.61986 4.64058C1.59031 5.66758 1.34007 7.08185 1.26119 8.95797L2.75987 9.02097ZM3.23002 12C3.23002 12.467 2.97306 12.8761 2.58736 13.0915L3.31871 14.4012C4.15855 13.9322 4.73002 13.0336 4.73002 12H3.23002ZM1.26119 15.042C1.34007 16.9182 1.59031 18.3324 2.61986 19.3594L3.6792 18.2974C3.09141 17.7111 2.8379 16.8351 2.75987 14.979L1.26119 15.042ZM20.7698 12C20.7698 11.533 21.0268 11.1239 21.4125 10.9085L20.6811 9.59884C19.8413 10.0678 19.2698 10.9664 19.2698 12H20.7698ZM22.7387 8.95797C22.6598 7.08185 22.4095 5.66758 21.38 4.64058L20.3206 5.70256C20.9084 6.28889 21.162 7.16494 21.24 9.02097L22.7387 8.95797ZM21.4125 13.0915C21.0268 12.8761 20.7698 12.467 20.7698 12H19.2698C19.2698 13.0336 19.8413 13.9322 20.6811 14.4012L21.4125 13.0915ZM21.24 14.979C21.162 16.8351 20.9084 17.7111 20.3206 18.2974L21.38 19.3594C22.4095 18.3324 22.6598 16.9182 22.7387 15.042L21.24 14.979ZM20.6811 14.4012C20.9651 14.5597 21.1506 14.6636 21.276 14.7427C21.3378 14.7817 21.3652 14.8024 21.3734 14.8093C21.3879 14.8213 21.3374 14.7846 21.2891 14.6983L22.598 13.9656C22.5152 13.8177 22.4042 13.7154 22.3303 13.6542C22.2502 13.5878 22.1612 13.5276 22.0763 13.4741C21.9086 13.3683 21.6803 13.2411 21.4125 13.0915L20.6811 14.4012ZM22.7387 15.042C22.7459 14.8706 22.754 14.6937 22.7475 14.5458C22.7409 14.3959 22.7177 14.1795 22.598 13.9656L21.2891 14.6983C21.2385 14.6079 21.246 14.5457 21.2489 14.6117C21.2502 14.6404 21.2504 14.6822 21.2487 14.7464C21.2471 14.8104 21.2439 14.8847 21.24 14.979L22.7387 15.042ZM21.4125 10.9085C21.6803 10.7589 21.9086 10.6317 22.0763 10.5259C22.1612 10.4724 22.2502 10.4122 22.3303 10.3458C22.4042 10.2846 22.5152 10.1823 22.598 10.0344L21.2891 9.30168C21.3374 9.21543 21.3879 9.17871 21.3734 9.19072C21.3652 9.19756 21.3378 9.21832 21.276 9.25725C21.1506 9.33637 20.9651 9.44028 20.6811 9.59884L21.4125 10.9085ZM21.24 9.02097C21.2439 9.11528 21.2471 9.18961 21.2487 9.25357C21.2504 9.31779 21.2502 9.35964 21.2489 9.38827C21.246 9.45428 21.2385 9.39205 21.2891 9.30168L22.598 10.0344C22.7177 9.82054 22.7409 9.60408 22.7475 9.45419C22.754 9.30634 22.7459 9.12945 22.7387 8.95797L21.24 9.02097ZM2.58736 13.0915C2.31954 13.2411 2.09125 13.3683 1.92353 13.4741C1.83867 13.5276 1.74966 13.5878 1.66952 13.6542C1.59561 13.7154 1.48469 13.8177 1.40185 13.9656L2.71073 14.6983C2.66245 14.7846 2.61193 14.8213 2.62643 14.8093C2.63469 14.8024 2.6621 14.7817 2.72382 14.7427C2.84924 14.6636 3.03477 14.5597 3.31871 14.4012L2.58736 13.0915ZM2.75987 14.979C2.7559 14.8847 2.7528 14.8104 2.75115 14.7464C2.74949 14.6822 2.74968 14.6404 2.75094 14.6117C2.75384 14.5457 2.76132 14.6079 2.71073 14.6983L1.40185 13.9656C1.28216 14.1795 1.25898 14.3959 1.25239 14.5458C1.24588 14.6937 1.25398 14.8706 1.26119 15.042L2.75987 14.979ZM3.31871 9.59884C3.03477 9.44028 2.84924 9.33637 2.72381 9.25725C2.66209 9.21832 2.63469 9.19756 2.62643 9.19072C2.61193 9.17871 2.66246 9.21543 2.71074 9.30168L1.40185 10.0344C1.48468 10.1823 1.5956 10.2846 1.66951 10.3458C1.74966 10.4122 1.83867 10.4724 1.92352 10.5259C2.09125 10.6317 2.31954 10.7589 2.58736 10.9085L3.31871 9.59884ZM1.26119 8.95797C1.25398 9.12945 1.24588 9.30634 1.25239 9.45419C1.25898 9.60408 1.28216 9.82054 1.40185 10.0344L2.71074 9.30168C2.76133 9.39206 2.75384 9.45428 2.75094 9.38827C2.74968 9.35964 2.74949 9.31779 2.75115 9.25357C2.7528 9.18961 2.7559 9.11528 2.75987 9.02097L1.26119 8.95797ZM14.7636 6.99782L14.7563 4.49637L13.2563 4.50073L13.2636 7.00218L14.7636 6.99782ZM15.0161 7.25C14.8749 7.25 14.7636 7.13631 14.7636 7H13.2636C13.2636 7.96826 14.05 8.75 15.0161 8.75V7.25ZM15.2686 7C15.2686 7.13631 15.1573 7.25 15.0161 7.25V8.75C15.9822 8.75 16.7686 7.96826 16.7686 7H15.2686ZM15.2686 4.51618V7H16.7686V4.51618H15.2686ZM16.5083 4.76865C18.6965 4.82509 19.6776 5.06124 20.3206 5.70256L21.38 4.64058C20.2675 3.53084 18.6938 3.32452 16.547 3.26915L16.5083 4.76865ZM16.7686 4.51618C16.7686 4.656 16.6533 4.77239 16.5083 4.76865L16.547 3.26915C15.8428 3.25099 15.2686 3.81835 15.2686 4.51618H16.7686ZM13.5051 4.75C13.3697 4.75 13.2567 4.64027 13.2563 4.50073L14.7563 4.49637C14.7543 3.80569 14.193 3.25 13.5051 3.25V4.75ZM17.0652 20.7135C18.9398 20.6343 20.3529 20.384 21.38 19.3594L20.3206 18.2974C19.7334 18.8831 18.8562 19.1365 17.0019 19.2148L17.0652 20.7135ZM15.2686 17V18.9765H16.7686V17H15.2686ZM13.2578 19.0007C13.2574 19.121 13.2571 19.2136 13.2549 19.2926C13.2527 19.3721 13.2489 19.4192 13.2449 19.4481C13.241 19.4764 13.2395 19.4669 13.2512 19.4387C13.2653 19.4045 13.291 19.3617 13.3298 19.323L14.3889 20.3852C14.6245 20.1502 14.7009 19.8709 14.731 19.6521C14.7581 19.4548 14.7572 19.219 14.7578 19.0051L13.2578 19.0007ZM13.0078 20.75C13.2217 20.75 13.4575 20.7516 13.6548 20.7251C13.8738 20.6957 14.1533 20.6201 14.3889 20.3852L13.3298 19.323C13.3686 19.2843 13.4115 19.2587 13.4457 19.2447C13.474 19.2331 13.4835 19.2346 13.4552 19.2384C13.4263 19.2423 13.3791 19.246 13.2997 19.248C13.2207 19.25 13.1281 19.25 13.0078 19.25V20.75ZM17.0019 19.2148C16.8811 19.2199 16.7888 19.2238 16.71 19.225C16.6309 19.2262 16.5848 19.2244 16.5574 19.2217C16.5308 19.2191 16.5425 19.2175 16.5733 19.2292C16.6102 19.2433 16.6535 19.2685 16.6916 19.305L15.6535 20.3878C15.8977 20.6219 16.1829 20.6921 16.4107 20.7145C16.6126 20.7344 16.8517 20.7225 17.0652 20.7135L17.0019 19.2148ZM15.2686 18.9765C15.2686 19.1953 15.2669 19.4374 15.2949 19.6397C15.3262 19.8655 15.4069 20.1514 15.6535 20.3878L16.6916 19.305C16.7312 19.343 16.7583 19.3863 16.7736 19.4221C16.7862 19.4516 16.7847 19.4622 16.7807 19.4337C16.7767 19.4046 16.7728 19.3566 16.7707 19.2753C16.7686 19.1945 16.7686 19.0997 16.7686 18.9765H15.2686Z" fill="#1CA686"/>
</svg>
