<svg width="17" height="17" viewBox="0 0 17 17" fill="none" xmlns="http://www.w3.org/2000/svg">
<path d="M10.0741 3.25638L10.6919 2.63846C11.7157 1.61465 13.3757 1.61465 14.3995 2.63846C15.4233 3.66226 15.4233 5.32217 14.3995 6.34598L13.7815 6.96389M10.0741 3.25638C10.0741 3.25638 10.1513 4.56946 11.3099 5.72806C12.4685 6.88665 13.7815 6.96389 13.7815 6.96389M10.0741 3.25638L4.3932 8.93721C4.00842 9.32201 3.81604 9.51434 3.65058 9.72647C3.4554 9.97674 3.28808 10.2475 3.15154 10.5339C3.0358 10.7768 2.94977 11.0349 2.77769 11.5511L2.04852 13.7387M13.7815 6.96389L8.10072 12.6447C7.71592 13.0295 7.52358 13.2219 7.31145 13.3873C7.0612 13.5825 6.79044 13.7499 6.50397 13.8864C6.26112 14.0021 6.003 14.0881 5.48677 14.2602L3.29926 14.9894M2.04852 13.7387L1.87028 14.2734C1.7856 14.5274 1.85172 14.8075 2.04107 14.9969C2.23042 15.1862 2.5105 15.2523 2.76454 15.1677L3.29926 14.9894M2.04852 13.7387L3.29926 14.9894" stroke="#FBFEFD" stroke-width="1.5"/>
</svg>
