<svg width="32" height="33" viewBox="0 0 32 33" fill="none" xmlns="http://www.w3.org/2000/svg">
<path d="M29.3327 29.4075H2.66602" stroke="#1CA686" stroke-width="2" stroke-linecap="round"/>
<path d="M27.9993 29.4076V8.0743C27.9993 5.56014 27.9993 4.30306 27.2184 3.52202C26.4373 2.74097 25.1803 2.74097 22.666 2.74097H19.9993C17.4852 2.74097 16.2281 2.74097 15.4471 3.52202C14.8184 4.15074 14.6957 5.08793 14.6719 6.74097" stroke="#1CA686" stroke-width="2"/>
<path d="M20 29.4076V12.0743C20 9.56014 20 8.30306 19.2189 7.52202C18.4379 6.74097 17.1808 6.74097 14.6667 6.74097H9.33333C6.81917 6.74097 5.56209 6.74097 4.78105 7.52202C4 8.30306 4 9.56014 4 12.0743V29.4076" stroke="#1CA686" stroke-width="2"/>
<path d="M12 29.4075V25.4075" stroke="#1CA686" stroke-width="2" stroke-linecap="round"/>
<path d="M8 10.741H16" stroke="#1CA686" stroke-width="2" stroke-linecap="round"/>
<path d="M8 14.741H16" stroke="#1CA686" stroke-width="2" stroke-linecap="round"/>
<path d="M8 18.741H16" stroke="#1CA686" stroke-width="2" stroke-linecap="round"/>
</svg>
