<svg width="32" height="33" viewBox="0 0 32 33" fill="none" xmlns="http://www.w3.org/2000/svg">
<path d="M6.66602 19.5196H7.66602C7.66602 19.1222 7.43062 18.7623 7.06639 18.6032L6.66602 19.5196ZM25.3327 19.5196L24.9323 18.6032C24.568 18.7623 24.3327 19.1222 24.3327 19.5196H25.3327ZM20.9993 9.40763C20.9993 9.95991 21.4471 10.4076 21.9993 10.4076C22.5516 10.4076 22.9993 9.95991 22.9993 9.40763H20.9993ZM8.99935 9.40763C8.99935 9.95991 9.44707 10.4076 9.99935 10.4076C10.5516 10.4076 10.9993 9.95991 10.9993 9.40763H8.99935ZM9.33268 5.74097C5.0985 5.74097 1.66602 9.17345 1.66602 13.4076H3.66602C3.66602 10.278 6.20307 7.74097 9.33268 7.74097V5.74097ZM22.666 7.74097C25.7956 7.74097 28.3327 10.278 28.3327 13.4076H30.3327C30.3327 9.17345 26.9001 5.74097 22.666 5.74097V7.74097ZM19.9993 28.4076H11.9993V30.4076H19.9993V28.4076ZM11.9993 28.4076C10.714 28.4076 9.85059 28.4055 9.20653 28.319C8.59125 28.2362 8.32792 28.0932 8.15418 27.9195L6.73996 29.3336C7.34726 29.941 8.10299 30.1886 8.94004 30.3011C9.74833 30.4098 10.7705 30.4076 11.9993 30.4076V28.4076ZM5.66602 24.0743C5.66602 25.3031 5.6639 26.3254 5.77256 27.1336C5.88511 27.9707 6.13267 28.7264 6.73996 29.3336L8.15418 27.9195C7.98041 27.7458 7.83745 27.4824 7.75473 26.8671C7.66814 26.2231 7.66602 25.3596 7.66602 24.0743H5.66602ZM24.3327 24.0743C24.3327 25.3596 24.3305 26.2231 24.244 26.8671C24.1612 27.4824 24.0183 27.7458 23.8445 27.9195L25.2587 29.3336C25.866 28.7264 26.1136 27.9707 26.2261 27.1336C26.3348 26.3254 26.3327 25.3031 26.3327 24.0743H24.3327ZM19.9993 30.4076C21.2281 30.4076 22.2504 30.4098 23.0587 30.3011C23.8957 30.1886 24.6515 29.941 25.2587 29.3336L23.8445 27.9195C23.6708 28.0932 23.4075 28.2362 22.7921 28.319C22.1481 28.4055 21.2847 28.4076 19.9993 28.4076V30.4076ZM9.33268 7.74097C9.61762 7.74097 9.89703 7.76191 10.1696 7.80221L10.4621 5.8237C10.093 5.76915 9.7158 5.74097 9.33268 5.74097V7.74097ZM15.9993 1.74097C12.9187 1.74097 10.3052 3.73043 9.3688 6.49179L11.2629 7.13411C11.9324 5.15966 13.8015 3.74097 15.9993 3.74097V1.74097ZM9.3688 6.49179C9.12898 7.19899 8.99935 7.95587 8.99935 8.74097H10.9993C10.9993 8.17717 11.0923 7.63713 11.2629 7.13411L9.3688 6.49179ZM22.666 5.74097C22.2829 5.74097 21.9057 5.76915 21.5367 5.8237L21.8291 7.80221C22.1016 7.76191 22.3811 7.74097 22.666 7.74097V5.74097ZM15.9993 3.74097C18.1972 3.74097 20.0663 5.15966 20.7359 7.13411L22.6299 6.49179C21.6935 3.73043 19.08 1.74097 15.9993 1.74097V3.74097ZM20.7359 7.13411C20.9064 7.63713 20.9993 8.17717 20.9993 8.74097H22.9993C22.9993 7.95587 22.8697 7.19899 22.6299 6.49179L20.7359 7.13411ZM7.66602 24.0743V19.5196H5.66602V24.0743H7.66602ZM7.06639 18.6032C5.06294 17.7279 3.66602 15.7298 3.66602 13.4076H1.66602C1.66602 16.553 3.56002 19.2538 6.26564 20.4359L7.06639 18.6032ZM24.3327 19.5196V24.0743H26.3327V19.5196H24.3327ZM28.3327 13.4076C28.3327 15.7298 26.9357 17.7279 24.9323 18.6032L25.7331 20.4359C28.4387 19.2538 30.3327 16.553 30.3327 13.4076H28.3327ZM20.9993 8.74097V9.40763H22.9993V8.74097H20.9993ZM8.99935 8.74097V9.40763H10.9993V8.74097H8.99935Z" fill="#1CA686"/>
<path d="M12 24.0742H20" stroke="#1CA686" stroke-width="2" stroke-linecap="round" stroke-linejoin="round"/>
</svg>
