<svg width="32" height="33" viewBox="0 0 32 33" fill="none" xmlns="http://www.w3.org/2000/svg">
<path d="M22.666 13.4076H25.3327C27.9993 13.4076 29.3327 12.0743 29.3327 9.40763V6.74097C29.3327 4.0743 27.9993 2.74097 25.3327 2.74097H22.666C19.9993 2.74097 18.666 4.0743 18.666 6.74097V9.40763C18.666 12.0743 19.9993 13.4076 22.666 13.4076Z" stroke="#1CA686" stroke-width="2" stroke-miterlimit="10" stroke-linecap="round" stroke-linejoin="round"/>
<path d="M6.66602 29.4076H9.33268C11.9993 29.4076 13.3327 28.0743 13.3327 25.4076V22.741C13.3327 20.0743 11.9993 18.741 9.33268 18.741H6.66602C3.99935 18.741 2.66602 20.0743 2.66602 22.741V25.4076C2.66602 28.0743 3.99935 29.4076 6.66602 29.4076Z" stroke="#1CA686" stroke-width="2" stroke-miterlimit="10" stroke-linecap="round" stroke-linejoin="round"/>
<path d="M7.99935 13.4076C10.9449 13.4076 13.3327 11.0198 13.3327 8.0743C13.3327 5.12878 10.9449 2.74097 7.99935 2.74097C5.05383 2.74097 2.66602 5.12878 2.66602 8.0743C2.66602 11.0198 5.05383 13.4076 7.99935 13.4076Z" stroke="#1CA686" stroke-width="2" stroke-miterlimit="10" stroke-linecap="round" stroke-linejoin="round"/>
<path d="M23.9993 29.4076C26.9448 29.4076 29.3327 27.0198 29.3327 24.0743C29.3327 21.1288 26.9448 18.741 23.9993 18.741C21.0539 18.741 18.666 21.1288 18.666 24.0743C18.666 27.0198 21.0539 29.4076 23.9993 29.4076Z" stroke="#1CA686" stroke-width="2" stroke-miterlimit="10" stroke-linecap="round" stroke-linejoin="round"/>
</svg>
