<svg width="64" height="64" viewBox="0 0 64 64" fill="none" xmlns="http://www.w3.org/2000/svg">
<rect width="64" height="64" rx="32" fill="#EFF1F0"/>
<path d="M17.4551 34.9091C17.4551 29.4237 17.4551 26.6809 19.1592 24.9768C20.8633 23.2727 23.606 23.2727 29.0914 23.2727H34.9096C40.395 23.2727 43.1378 23.2727 44.8418 24.9768C46.546 26.6809 46.546 29.4237 46.546 34.9091C46.546 40.3944 46.546 43.1373 44.8418 44.8413C43.1378 46.5454 40.395 46.5454 34.9096 46.5454H29.0914C23.606 46.5454 20.8633 46.5454 19.1592 44.8413C17.4551 43.1373 17.4551 40.3944 17.4551 34.9091Z" stroke="#B1B9B7" stroke-width="2.18182"/>
<path d="M37.819 23.2728C37.819 20.5301 37.819 19.1587 36.9669 18.3066C36.1148 17.4546 34.7435 17.4546 32.0008 17.4546C29.2581 17.4546 27.8867 17.4546 27.0347 18.3066C26.1826 19.1587 26.1826 20.5301 26.1826 23.2728" stroke="#B1B9B7" stroke-width="2.18182"/>
<path d="M29.0911 36.3635H23.2729C22.5872 36.3635 22.2444 36.3635 22.0314 36.5765C21.8184 36.7896 21.8184 37.1324 21.8184 37.8181V39.2726C21.8184 39.9583 21.8184 40.3011 22.0314 40.5142C22.2444 40.7272 22.5872 40.7272 23.2729 40.7272H29.0911C29.7768 40.7272 30.1196 40.7272 30.3327 40.5142C30.5456 40.3011 30.5456 39.9583 30.5456 39.2726V37.8181C30.5456 37.1324 30.5456 36.7896 30.3327 36.5765C30.1196 36.3635 29.7768 36.3635 29.0911 36.3635Z" stroke="#B1B9B7" stroke-width="2.18182" stroke-linejoin="round"/>
<path d="M23.2734 24V36.3636M23.2734 45.8182V41.4545" stroke="#B1B9B7" stroke-width="2.18182" stroke-linecap="round"/>
<path d="M40.7275 24V45.8182" stroke="#B1B9B7" stroke-width="2.18182" stroke-linecap="round"/>
</svg>
