<svg width="24" height="24" viewBox="0 0 24 24" fill="none" xmlns="http://www.w3.org/2000/svg">
<path d="M9.21017 5.02545C15.5024 2.50856 18.6485 1.25059 20.4455 2.47174C20.8715 2.76125 21.2391 3.12874 21.5285 3.55475C22.7495 5.35182 21.4916 8.49803 18.9748 14.7901C18.438 16.1321 18.1688 16.8028 17.7072 17.3292C17.5896 17.4634 17.4635 17.5905 17.3293 17.7081C16.8029 18.1697 16.1313 18.4378 14.7893 18.9747C8.49726 21.4914 5.35094 22.7504 3.55392 21.5294C3.12784 21.2399 2.76045 20.8715 2.47091 20.4454C1.25013 18.6483 2.50881 15.502 5.0256 9.21002C5.56229 7.86828 5.83067 7.19735 6.2922 6.67096C6.40984 6.53681 6.53598 6.40969 6.67013 6.29205C7.19658 5.83043 7.86811 5.56227 9.21017 5.02545ZM12.0002 8.25006C9.92918 8.25006 8.25028 9.92905 8.25021 12.0001C8.25021 14.0711 9.92914 15.7501 12.0002 15.7501C14.0711 15.7498 15.7502 14.071 15.7502 12.0001C15.7501 9.92919 14.071 8.25028 12.0002 8.25006ZM12.0002 9.75006C13.2426 9.75028 14.2501 10.7576 14.2502 12.0001C14.2502 13.2426 13.2427 14.2498 12.0002 14.2501C10.7576 14.2501 9.75021 13.2427 9.75021 12.0001C9.75028 10.7575 10.7576 9.75006 12.0002 9.75006Z" fill="#1CA686"/>
</svg>
