<svg width="50" height="56" viewBox="0 0 50 56" fill="none" xmlns="http://www.w3.org/2000/svg">
<path d="M35.7521 27.2703L41.8277 29.3459L41.8277 34.6691L38.9706 38.3828M35.7521 27.2703L28.4797 29.5328M35.7521 27.2703L28.1565 24.3614L26.5404 26.9471L28.4797 29.5328M28.4797 29.5328L32.5797 36.101L38.9706 38.3828M28.4797 29.5328L25.7324 30.6641L25.2302 33.4769L38.9706 38.3828" stroke="#0E5343" stroke-width="1.61609"/>
<path d="M32.9803 35.6729L37.0626 41.4845L33.3719 45.6526L28.8022 46.9748M32.9803 35.6729L25.3611 33.5236M32.9803 35.6729L28.753 29.6549L25.5838 30.6516L25.3611 33.5236M25.3611 33.5236L24.9373 41.4727L28.8022 46.9748M25.3611 33.5236L22.3908 32.7739L20.4927 35.1452L28.8022 46.9748" stroke="#0E5343" stroke-width="1.61609"/>
<path d="M25.3113 40.8428L25.1663 47.836L19.6411 49.0414L15.1044 47.4671M25.3113 40.8428L20.3608 34.7394M25.3113 40.8428L25.4615 33.6012L22.2673 32.5731L20.3608 34.7394M20.3608 34.7394L15.2417 40.8463L15.1044 47.4671M20.3608 34.7394L18.3778 32.4305L15.3995 33.2323L15.1044 47.4671" stroke="#0E5343" stroke-width="1.61609"/>
<path d="M15.3814 11.4183L15.4045 4.42357L20.9079 3.1221L25.4714 4.61718M15.3814 11.4183L20.4375 17.4345M15.3814 11.4183L15.3573 18.6613L18.5689 19.6337L20.4375 17.4345M20.4375 17.4345L25.4494 11.2394L25.4714 4.61718M20.4375 17.4345L22.4603 19.7086L25.4242 18.8549L25.4714 4.61718" stroke="#1CA686" stroke-width="1.61609"/>
<path d="M24.5716 11.9583L28.8886 6.45457L34.1379 8.67229L36.9088 12.5418M24.5716 11.9583L24.9627 19.6844M24.5716 11.9583L20.1014 17.6573L22.1005 20.3176L24.9627 19.6844M24.9627 19.6844L32.8218 17.7524L36.9088 12.5418M24.9627 19.6844L25.2008 22.6707L28.1217 23.7446L36.9088 12.5418" stroke="#1CA686" stroke-width="1.61609"/>
<path d="M32.1545 17.8674L38.9363 15.7587L42.042 20.4647L42.042 25.1693M32.1545 17.8674L28.1563 24.3613M32.1545 17.8674L25.1318 20.051L25.2669 23.3247L28.1563 24.3613M28.1563 24.3613L35.7519 27.2702L42.042 25.1693M28.1563 24.3613L26.5399 26.947L28.4795 29.5327L35.2671 27.4318L42.042 25.1693" stroke="#1CA686" stroke-width="1.61609"/>
</svg>
