<svg width="84" height="82" viewBox="0 0 84 82" fill="none" xmlns="http://www.w3.org/2000/svg">
<g opacity="0.1">
<path d="M0.589742 60.2498H-14.8864L-18 48.663L-14.8864 39.0371M0.589742 60.2498L13.685 49.5543M0.589742 60.2498H16.6154L18.63 53.476L13.685 49.5543M13.685 49.5543L-0.234433 39.0371H-14.8864M13.685 49.5543L18.63 45.2761L16.6154 39.0371H-14.8864" stroke="#FBFEFD" stroke-opacity="0.5" stroke-width="3.663"/>
<path d="M-0.740035 40.1992L-13.2605 31.3455L-8.78201 20.1904L-0.449833 14.184M-0.740035 40.1992L16.3134 39.0379M-0.740035 40.1992L12.225 49.3672L17.9457 45.0396L16.3134 39.0379M16.3134 39.0379L11.4039 22.5662L-0.449833 14.184M16.3134 39.0379L22.8977 38.4058L25.0357 32.2058L-0.449833 14.184" stroke="#FBFEFD" stroke-opacity="0.5" stroke-width="3.663"/>
<path d="M11.0974 24.1192L6.31504 9.7936L16.675 3.33102L27.0432 3.23851M11.0974 24.1192L25.5953 32.9357M11.0974 24.1192L16.0496 38.9534L23.2913 38.725L25.5953 32.9357M25.5953 32.9357L31.5709 16.8012L27.0432 3.23851M25.5953 32.9357L31.3038 36.1911L36.7778 32.3983L27.0432 3.23851" stroke="#FBFEFD" stroke-opacity="0.5" stroke-width="3.663"/>
<path d="M30.5253 17.2077L35.3078 2.88216L47.592 3.5806L56.0359 9.43725M30.5253 17.2077L36.9299 32.6345M30.5253 17.2077L25.5731 32.0419L31.5697 36L36.9299 32.6345M36.9299 32.6345L51.5082 22.9999L56.0359 9.43725M36.9299 32.6345L39.5822 38.5339L46.3013 38.597L56.0359 9.43725" stroke="#FBFEFD" stroke-opacity="0.5" stroke-width="3.663"/>
<path d="M50.6469 22.8592L63.1674 14.0055L72.6838 21.5982L75.9782 31.167M50.6469 22.8592L46.5119 39.0036M50.6469 22.8592L37.6819 32.0272L40.1429 38.6599L46.5119 39.0036M46.5119 39.0036L64.1244 39.5492L75.9782 31.167M46.5119 39.0036L45.0949 45.2938L50.4926 49.1887L75.9782 31.167" stroke="#FBFEFD" stroke-opacity="0.5" stroke-width="3.663"/>
<path d="M63.4103 39.0373H78.8864L82 50.6241L78.8864 60.25M63.4103 39.0373L50.315 49.7328M63.4103 39.0373H47.3846L45.37 45.8111L50.315 49.7328M50.315 49.7328L64.2344 60.25H78.8864M50.315 49.7328L45.37 54.011L47.3846 60.25L78.8864 60.25" stroke="#FBFEFD" stroke-opacity="0.5" stroke-width="3.663"/>
<path d="M64.1902 59.6226L76.7107 68.4763L72.2322 79.6314L63.9 85.6377M64.1902 59.6226L47.1368 60.7838M64.1902 59.6226L51.2252 50.4546L45.5045 54.7821L47.1368 60.7838M47.1368 60.7838L52.0463 77.2555L63.9 85.6377M47.1368 60.7838L40.5525 61.416L38.4145 67.616L63.9 85.6377" stroke="#FBFEFD" stroke-opacity="0.5" stroke-width="3.663"/>
<path d="M52.3527 76.2373L57.1352 90.5628L46.7752 97.0254L36.407 97.1179M52.3527 76.2373L37.8549 67.4207M52.3527 76.2373L47.4006 61.4031L40.1589 61.6314L37.8549 67.4207M37.8549 67.4207L31.8793 83.5552L36.407 97.1179M37.8549 67.4207L32.1464 64.1653L26.6724 67.9582L36.407 97.1179" stroke="#FBFEFD" stroke-opacity="0.5" stroke-width="3.663"/>
<path d="M32.7422 82.614L27.9598 96.9396L15.6756 96.2412L7.23167 90.3845M32.7422 82.614L26.3377 67.1873M32.7422 82.614L37.6944 67.7799L31.6979 63.8218L26.3377 67.1873M26.3377 67.1873L11.7594 76.8219L7.23167 90.3845M26.3377 67.1873L23.6854 61.2879L16.9663 61.2248L7.23167 90.3845" stroke="#FBFEFD" stroke-opacity="0.5" stroke-width="3.663"/>
<path d="M12.8032 76.7843L0.282746 85.638L-9.23361 78.0454L-12.528 68.4766M12.8032 76.7843L16.9383 60.6399M12.8032 76.7843L25.7683 67.6163L23.3073 60.9836L16.9383 60.6399M16.9383 60.6399L-0.674228 60.0944L-12.528 68.4766M16.9383 60.6399L18.3553 54.3498L12.9576 50.4549L-12.528 68.4766" stroke="#FBFEFD" stroke-opacity="0.5" stroke-width="3.663"/>
</g>
</svg>
