<svg width="24" height="24" viewBox="0 0 24 24" fill="none" xmlns="http://www.w3.org/2000/svg">
<path d="M13.039 18.3866L13.3058 18.2977C15.6039 17.5316 16.7528 17.1486 16.9667 16.2424C17.1807 15.3361 16.3242 14.4797 14.6114 12.7668L12.9222 11.0776C12.9207 11.0823 12.9191 11.0872 12.9175 11.0924C12.8979 11.1542 12.8695 11.2452 12.8353 11.3596C12.7667 11.5888 12.6752 11.9097 12.5838 12.2755C12.3968 13.0243 12.2271 13.8975 12.2271 14.5554C12.2271 15.2133 12.3968 16.0865 12.5838 16.8353C12.6752 17.2011 12.7667 17.522 12.8353 17.7512C12.8695 17.8656 12.8979 17.9566 12.9175 18.0184C12.9273 18.0493 12.9349 18.0729 12.9399 18.0883L12.9455 18.1054L12.9468 18.1092L13.039 18.3866Z" fill="#1CA686"/>
<path d="M7.47151 20.2412C5.20995 20.9868 4.01839 21.2988 3.35924 20.6397C2.62936 19.9098 3.09026 18.5271 4.01207 15.7617L5.70156 10.6932C6.33358 8.79715 6.70486 7.68329 7.32442 7.23145L7.31921 7.25726C7.31199 7.29317 7.30156 7.34565 7.28842 7.41315C7.26215 7.54814 7.22504 7.74335 7.18122 7.98652C7.09363 8.47254 6.97894 9.15173 6.87035 9.92562C6.65521 11.4588 6.45595 13.4178 6.5586 14.9833C6.62072 15.9305 6.81779 17.1056 6.99367 18.0237C7.08243 18.4871 7.16741 18.8932 7.23023 19.1837C7.26166 19.329 7.2876 19.4456 7.30576 19.5263L7.3269 19.6194L7.47151 20.2412Z" fill="#1CA686"/>
<path d="M8.8504 7.25879L8.79973 7.50407L8.79923 7.50648L8.7974 7.51545L8.78989 7.5526C8.78324 7.5857 8.77339 7.63522 8.76086 7.69964C8.73578 7.8285 8.69996 8.01683 8.6575 8.25249C8.5725 8.7241 8.46115 9.3836 8.35585 10.134C8.14323 11.6493 7.9634 13.4812 8.05545 14.885C8.11118 15.7349 8.2932 16.8344 8.46695 17.7414C8.55299 18.1907 8.63547 18.5848 8.69639 18.8665C8.72683 19.0073 8.75184 19.1197 8.76916 19.1966L8.78907 19.2843L8.79416 19.3064L8.90098 19.7655L11.616 18.8606L11.5135 18.5518C11.5074 18.5331 11.4987 18.5062 11.4878 18.4718C11.4659 18.4029 11.4351 18.304 11.3983 18.1809C11.3247 17.9352 11.2267 17.5915 11.1285 17.1983C10.9364 16.4291 10.7271 15.4068 10.7271 14.555C10.7271 13.7032 10.9364 12.6809 11.1285 11.9117C11.2267 11.5185 11.3247 11.1748 11.3983 10.9291C11.4351 10.806 11.4659 10.7071 11.4878 10.6382C11.4987 10.6038 11.5074 10.5769 11.5135 10.5582L11.5226 10.5303L11.7353 9.89031L11.2325 9.38747C10.1889 8.34385 9.46314 7.61816 8.8504 7.25879Z" fill="#1CA686"/>
<path d="M10.9264 2.36021C11.2798 2.57626 11.3912 3.03789 11.1751 3.3913C11.0184 3.64775 11.0577 3.97821 11.2702 4.19075L11.3681 4.28863C11.9567 4.87729 12.1738 5.74206 11.9329 6.53894C11.8131 6.93543 11.3945 7.1597 10.998 7.03985C10.6015 6.91999 10.3772 6.50141 10.4971 6.10492C10.578 5.83734 10.5051 5.54695 10.3074 5.34929L10.2095 5.25141C9.50703 4.54889 9.37715 3.45659 9.89536 2.60892C10.1114 2.25551 10.573 2.14416 10.9264 2.36021Z" fill="#1CA686"/>
<path d="M13.561 4.39648C13.7621 4.19543 13.8626 4.0949 13.9788 4.05805C14.0772 4.02688 14.1827 4.02688 14.281 4.05805C14.3973 4.0949 14.4978 4.19543 14.6989 4.39648C14.8999 4.59754 15.0004 4.69807 15.0373 4.81431C15.0685 4.91262 15.0685 5.01817 15.0373 5.11649C15.0004 5.23273 14.8999 5.33326 14.6989 5.53431C14.4978 5.73537 14.3973 5.8359 14.281 5.87275C14.1827 5.90391 14.0772 5.90391 13.9788 5.87275C13.8626 5.8359 13.7621 5.73537 13.561 5.53431C13.36 5.33326 13.2594 5.23273 13.2226 5.11649C13.1914 5.01817 13.1914 4.91262 13.2226 4.81431C13.2594 4.69807 13.36 4.59754 13.561 4.39648Z" fill="#1CA686"/>
<path d="M6.92712 3.94079C7.13659 3.73132 7.47621 3.73132 7.68567 3.94079C7.89514 4.15026 7.89514 4.48988 7.68567 4.69934C7.47621 4.90881 7.13659 4.90881 6.92712 4.69934C6.71765 4.48988 6.71765 4.15026 6.92712 3.94079Z" fill="#1CA686"/>
<path d="M19.9747 7.04681C19.8363 7.10014 19.7136 7.22283 19.4682 7.46822C19.2228 7.71362 19.1001 7.83631 19.0468 7.97472C18.9844 8.1367 18.9844 8.31609 19.0468 8.47807C19.1001 8.61649 19.2228 8.73918 19.4682 8.98457C19.7136 9.22996 19.8363 9.35266 19.9747 9.40599C20.1367 9.4684 20.3161 9.4684 20.4781 9.40599C20.6165 9.35266 20.7392 9.22996 20.9846 8.98457C21.23 8.73918 21.3527 8.61649 21.406 8.47807C21.4684 8.31609 21.4684 8.1367 21.406 7.97472C21.3527 7.83631 21.23 7.71362 20.9846 7.46822C20.7392 7.22283 20.6165 7.10014 20.4781 7.04681C20.3161 6.9844 20.1367 6.9844 19.9747 7.04681Z" fill="#1CA686"/>
<path d="M19.058 15.3134C19.2674 15.1039 19.6071 15.1039 19.8165 15.3134C20.026 15.5228 20.026 15.8624 19.8165 16.0719C19.6071 16.2814 19.2674 16.2814 19.058 16.0719C18.8485 15.8624 18.8485 15.5228 19.058 15.3134Z" fill="#1CA686"/>
<path d="M17.6892 4.72174C18.0954 4.80297 18.3588 5.19809 18.2776 5.60426L18.1336 6.3242C17.9354 7.31501 17.2215 8.12368 16.2629 8.44321C15.815 8.59252 15.4814 8.97039 15.3888 9.43337L15.2449 10.1533C15.1636 10.5595 14.7685 10.8229 14.3623 10.7417C13.9562 10.6604 13.6928 10.2653 13.774 9.85913L13.918 9.1392C14.1161 8.14838 14.83 7.33971 15.7886 7.02019C16.2365 6.87088 16.5701 6.49301 16.6627 6.03002L16.8067 5.31009C16.8879 4.90392 17.283 4.64051 17.6892 4.72174Z" fill="#1CA686"/>
<path d="M21.4081 12.5595C21.0465 12.4014 20.6258 12.4678 20.3304 12.7297C19.5212 13.4473 18.3435 13.5666 17.4068 13.0258L17.194 12.9029C16.8353 12.6958 16.7124 12.2371 16.9195 11.8784C17.1266 11.5197 17.5853 11.3967 17.944 11.6039L18.1568 11.7267C18.5344 11.9447 19.0091 11.8966 19.3352 11.6074C20.0681 10.9576 21.1117 10.7928 22.0091 11.1851L22.3006 11.3126C22.6801 11.4785 22.8532 11.9207 22.6873 12.3002C22.5214 12.6798 22.0792 12.8529 21.6996 12.687L21.4081 12.5595Z" fill="#1CA686"/>
<path d="M17.5003 9.74158C17.7098 9.53211 18.0494 9.53211 18.2589 9.74158C18.4684 9.95105 18.4684 10.2907 18.2589 10.5001C18.0494 10.7096 17.7098 10.7096 17.5003 10.5001C17.2909 10.2907 17.2909 9.95105 17.5003 9.74158Z" fill="#1CA686"/>
</svg>
