<svg width="24" height="25" viewBox="0 0 24 25" fill="none" xmlns="http://www.w3.org/2000/svg">
<path d="M12 22.2344C17.5228 22.2344 22 17.7572 22 12.2344C22 6.71153 17.5228 2.23438 12 2.23438C6.47715 2.23438 2 6.71153 2 12.2344C2 17.7572 6.47715 22.2344 12 22.2344Z" fill="#1CA686" stroke="#1CA686" stroke-width="1.5"/>
<path d="M10.125 9.10938C10.125 8.07385 10.9645 7.23438 12 7.23438C13.0355 7.23438 13.875 8.07385 13.875 9.10938C13.875 9.79682 13.505 10.3979 12.9534 10.7243C12.478 11.0055 12 11.4321 12 11.9844V13.2344" stroke="#FBFEFD" stroke-width="1.5" stroke-linecap="round"/>
<path d="M12 15.7344C12.2761 15.7344 12.5 15.9582 12.5 16.2344C12.5 16.5105 12.2761 16.7344 12 16.7344C11.7239 16.7344 11.5 16.5105 11.5 16.2344C11.5 15.9582 11.7239 15.7344 12 15.7344Z" stroke="#FBFEFD"/>
</svg>
