<svg width="24" height="25" viewBox="0 0 24 25" fill="none" xmlns="http://www.w3.org/2000/svg">
<path d="M12 22.2344C17.5228 22.2344 22 17.7572 22 12.2344C22 6.71153 17.5228 2.23438 12 2.23438C6.47715 2.23438 2 6.71153 2 12.2344C2 17.7572 6.47715 22.2344 12 22.2344Z" stroke="#1CA686" stroke-width="1.5"/>
<path d="M10.125 9.10938C10.125 8.07385 10.9645 7.23438 12 7.23438C13.0355 7.23438 13.875 8.07385 13.875 9.10938C13.875 9.79682 13.505 10.3979 12.9534 10.7243C12.478 11.0055 12 11.4321 12 11.9844V13.2344" stroke="#1CA686" stroke-width="1.5" stroke-linecap="round"/>
<path d="M12 17.2344C12.5523 17.2344 13 16.7867 13 16.2344C13 15.6821 12.5523 15.2344 12 15.2344C11.4477 15.2344 11 15.6821 11 16.2344C11 16.7867 11.4477 17.2344 12 17.2344Z" fill="#1CA686"/>
</svg>
