<svg width="122" height="57" viewBox="0 0 122 57" fill="none" xmlns="http://www.w3.org/2000/svg">
<path d="M106.752 27.2703L112.828 29.3459L112.828 34.6691L109.971 38.3828M106.752 27.2703L99.4797 29.5328M106.752 27.2703L99.1565 24.3614L97.5404 26.9471L99.4797 29.5328M99.4797 29.5328L103.58 36.101L109.971 38.3828M99.4797 29.5328L96.7324 30.6641L96.2302 33.4769L109.971 38.3828" stroke="#0E5343" stroke-width="1.61609"/>
<path d="M103.98 35.6729L108.063 41.4845L104.372 45.6526L99.8022 46.9748M103.98 35.6729L96.3611 33.5236M103.98 35.6729L99.753 29.6549L96.5838 30.6516L96.3611 33.5236M96.3611 33.5236L95.9373 41.4727L99.8022 46.9748M96.3611 33.5236L93.3908 32.7739L91.4927 35.1452L99.8022 46.9748" stroke="#0E5343" stroke-width="1.61609"/>
<path d="M96.3113 40.8428L96.1663 47.836L90.6411 49.0414L86.1044 47.4671M96.3113 40.8428L91.3608 34.7394M96.3113 40.8428L96.4615 33.6012L93.2673 32.5731L91.3608 34.7394M91.3608 34.7394L86.2417 40.8463L86.1044 47.4671M91.3608 34.7394L89.3778 32.4305L86.3995 33.2323L86.1044 47.4671" stroke="#0E5343" stroke-width="1.61609"/>
<path d="M86.3814 11.4183L86.4045 4.42357L91.9079 3.1221L96.4714 4.61718M86.3814 11.4183L91.4375 17.4345M86.3814 11.4183L86.3573 18.6613L89.5689 19.6337L91.4375 17.4345M91.4375 17.4345L96.4494 11.2394L96.4714 4.61718M91.4375 17.4345L93.4603 19.7086L96.4242 18.8549L96.4714 4.61718" stroke="#1CA686" stroke-width="1.61609"/>
<path d="M95.5716 11.9583L99.8886 6.45457L105.138 8.67229L107.909 12.5418M95.5716 11.9583L95.9627 19.6844M95.5716 11.9583L91.1014 17.6573L93.1005 20.3176L95.9627 19.6844M95.9627 19.6844L103.822 17.7524L107.909 12.5418M95.9627 19.6844L96.2008 22.6707L99.1217 23.7446L107.909 12.5418" stroke="#1CA686" stroke-width="1.61609"/>
<path d="M103.154 17.8674L109.936 15.7587L113.042 20.4647L113.042 25.1693M103.154 17.8674L99.1563 24.3613M103.154 17.8674L96.1318 20.051L96.2669 23.3247L99.1563 24.3613M99.1563 24.3613L106.752 27.2702L113.042 25.1693M99.1563 24.3613L97.5399 26.947L99.4795 29.5327L106.267 27.4318L113.042 25.1693" stroke="#1CA686" stroke-width="1.61609"/>
<path d="M49.6847 24.9582C49.4496 24.9582 49.2536 24.8799 49.0969 24.7231C48.9402 24.5664 48.8618 24.3705 48.8618 24.1353C48.8618 23.9002 48.9402 23.7043 49.0969 23.5476C49.2536 23.3908 49.4496 23.3124 49.6847 23.3124C49.9198 23.3124 50.1157 23.3908 50.2725 23.5476C50.4292 23.7043 50.5076 23.9002 50.5076 24.1353C50.5076 24.3705 50.4292 24.5664 50.2725 24.7231C50.1157 24.8799 49.9198 24.9582 49.6847 24.9582Z" fill="#0E5343"/>
<path d="M39.3203 21.1995L39.3203 19.6517H51.8944C51.8683 19.6909 51.8356 19.7301 51.7964 19.7692C51.7703 19.7954 51.7442 19.828 51.7181 19.8672L51.7181 14.0873H53.2659L53.2659 19.4166C53.2659 19.7562 53.181 20.0631 53.0112 20.3374C52.8414 20.5987 52.6193 20.8077 52.345 20.9644C52.0707 21.1211 51.7703 21.1995 51.4438 21.1995H39.3203Z" fill="#0E5343"/>
<path d="M61.5472 12.2364C61.3121 12.2364 61.1162 12.158 60.9595 12.0012C60.8027 11.8445 60.7243 11.6486 60.7243 11.4135C60.7243 11.1783 60.8027 10.9824 60.9595 10.8257C61.1162 10.6689 61.3121 10.5906 61.5472 10.5906C61.7824 10.5906 61.9783 10.6689 62.135 10.8257C62.2918 10.9824 62.3701 11.1783 62.3701 11.4135C62.3701 11.6486 62.2918 11.8445 62.135 12.0012C61.9783 12.158 61.7824 12.2364 61.5472 12.2364ZM64.8388 12.2364C64.6037 12.2364 64.4078 12.158 64.2511 12.0012C64.0943 11.8445 64.0159 11.6486 64.0159 11.4135C64.0159 11.1783 64.0943 10.9824 64.2511 10.8257C64.4078 10.6689 64.6037 10.5906 64.8388 10.5906C65.074 10.5906 65.2699 10.6689 65.4266 10.8257C65.5834 10.9824 65.6617 11.1783 65.6617 11.4135C65.6617 11.6486 65.5834 11.8445 65.4266 12.0012C65.2699 12.158 65.074 12.2364 64.8388 12.2364Z" fill="#0E5343"/>
<path d="M61.4347 21.1995C61.1082 21.1995 60.7947 21.1407 60.4943 21.0232C60.2069 20.9056 59.9522 20.7489 59.7302 20.553C59.4559 20.2917 59.2469 19.9652 59.1032 19.5733C58.9726 19.1815 58.9464 18.7831 59.0248 18.3781C59.1162 17.9602 59.3318 17.5879 59.6714 17.2614C60.1547 16.8042 60.5792 16.4123 60.9449 16.0858C61.3237 15.7592 61.6698 15.3935 61.9833 14.9886C62.2968 14.5837 62.5842 14.0612 62.8454 13.4212L64.2953 14.0285C64.0079 14.6294 63.7206 15.1453 63.4332 15.5764C63.1458 15.9943 62.852 16.3601 62.5515 16.6736C62.2642 16.9871 61.9703 17.2744 61.6698 17.5357C61.3694 17.7969 61.069 18.0712 60.7686 18.3586C60.5857 18.5675 60.5073 18.7635 60.5335 18.9463C60.5596 19.1292 60.6445 19.2859 60.7882 19.4166C60.9449 19.5733 61.1604 19.6517 61.4347 19.6517H64.4128C64.3737 19.6909 64.341 19.7235 64.3149 19.7496C64.2888 19.7758 64.2561 19.8084 64.2169 19.8476L64.2169 14.3224H65.7452L65.7452 19.397C65.7452 19.7366 65.6668 20.0435 65.51 20.3178C65.3533 20.5921 65.1378 20.8077 64.8635 20.9644C64.6022 21.1211 64.3018 21.1995 63.9622 21.1995H61.4347Z" fill="#0E5343"/>
<path d="M69.6855 7.14739C69.4373 7.22576 69.1956 7.19311 68.9605 7.04943C68.7254 6.91881 68.6079 6.67063 68.6079 6.3049L68.6079 4.69828H69.4504L69.4504 6.26571L70.4888 5.91304L70.4888 4.01253H71.39L71.39 5.93263C71.39 6.16775 71.3051 6.35714 71.1353 6.50083C70.9786 6.64451 70.8088 6.749 70.6259 6.81431L69.6855 7.14739ZM71.39 6.5596L71.39 5.57996L72.4872 5.1881L72.4872 3.2876H73.3297L73.3297 5.22729C73.3297 5.4624 73.2579 5.6518 73.1142 5.79548C72.9705 5.9261 72.8203 6.02407 72.6636 6.08938L71.39 6.5596Z" fill="#0E5343"/>
<path d="M70.9613 10.2791C70.7262 10.2791 70.5303 10.2008 70.3735 10.044C70.2168 9.88728 70.1384 9.69135 70.1384 9.45624C70.1384 9.22112 70.2168 9.0252 70.3735 8.86845C70.5303 8.71171 70.7262 8.63334 70.9613 8.63334C71.1964 8.63334 71.3923 8.71171 71.5491 8.86845C71.7058 9.0252 71.7842 9.22112 71.7842 9.45624C71.7842 9.69135 71.7058 9.88728 71.5491 10.044C71.3923 10.2008 71.1964 10.2791 70.9613 10.2791Z" fill="#0E5343"/>
<path d="M65.7378 21.1995L65.7378 19.6517H73.1243C73.0851 19.6909 73.0525 19.7235 73.0264 19.7496C73.0002 19.7758 72.9676 19.8084 72.9284 19.8476L72.9284 14.969C72.9284 14.6424 72.85 14.3616 72.6933 14.1265C72.5365 13.8914 72.3341 13.715 72.0859 13.5975C71.9161 13.4407 71.7006 13.3363 71.4393 13.284C71.1912 13.2187 70.9299 13.2056 70.6556 13.2448C70.3944 13.284 70.1527 13.3754 69.9307 13.5191C69.7086 13.6628 69.5192 13.8783 69.3625 14.1657C69.2058 14.453 69.1143 14.7665 69.0882 15.1061C69.0751 15.4327 69.1535 15.7396 69.3233 16.027C69.5454 16.3797 69.8066 16.6344 70.107 16.7911C70.4205 16.9479 70.8581 17.0328 71.4197 17.0458C71.9945 17.0589 72.7586 17.0393 73.7121 16.9871L73.7121 18.1626C73.2027 18.2018 72.6737 18.241 72.1251 18.2802C71.5896 18.3194 71.0605 18.3194 70.5381 18.2802C70.0156 18.241 69.5323 18.1104 69.0882 17.8883C68.6572 17.6663 68.2914 17.3071 67.991 16.8107C67.7298 16.3797 67.5795 15.9421 67.5404 15.498C67.5142 15.0408 67.5665 14.6033 67.6971 14.1853C67.8277 13.7673 68.0171 13.3885 68.2653 13.0489C68.5135 12.7093 68.7943 12.435 69.1078 12.226C69.4605 12.0039 69.8588 11.8472 70.303 11.7558C70.7471 11.6643 71.1977 11.6513 71.6549 11.7166C72.1251 11.7819 72.5627 11.9321 72.9676 12.1672C73.3856 12.4023 73.7317 12.7354 74.006 13.1664C74.1497 13.4146 74.2672 13.6955 74.3587 14.0089C74.4501 14.3094 74.4958 14.6294 74.4958 14.969L74.4958 19.3578C74.4958 19.6713 74.4175 19.9717 74.2607 20.2591C74.104 20.5334 73.8819 20.7619 73.5946 20.9448C73.3203 21.1146 73.0002 21.1995 72.6345 21.1995H65.7378Z" fill="#0E5343"/>
<path d="M74.501 21.1995L74.501 19.6517H77.2636C77.2375 19.6909 77.2048 19.7235 77.1657 19.7496C77.1395 19.7758 77.1134 19.8084 77.0873 19.8476L77.0873 8.97358H78.6351L78.6351 19.397C78.6351 19.7235 78.5567 20.0239 78.4 20.2982C78.2433 20.5725 78.0277 20.7946 77.7534 20.9644C77.4791 21.1211 77.1657 21.1995 76.813 21.1995H74.501Z" fill="#0E5343"/>
<path d="M11.1302 43.7393H10.175L10.175 40.8371H11.1302L11.1302 43.7393ZM10.5424 43.7393H6.20746C5.57069 43.7393 4.98291 43.5923 4.44411 43.2984C3.92979 42.98 3.52569 42.5637 3.2318 42.0494C2.9379 41.5351 2.79096 40.9718 2.79096 40.3595L2.79096 20.8156H5.69315L5.69315 41.2044C5.64417 41.131 5.58294 41.0697 5.50947 41.0207C5.46048 40.9718 5.4115 40.9105 5.36252 40.8371H10.5424L10.5424 43.7393ZM14.7691 51.2822C14.3283 51.2822 13.9609 51.1352 13.667 50.8414C13.3731 50.5475 13.2262 50.1801 13.2262 49.7393C13.2262 49.2984 13.3731 48.9311 13.667 48.6372C13.9609 48.3433 14.3283 48.1963 14.7691 48.1963C15.2099 48.1963 15.5773 48.3433 15.8712 48.6372C16.1651 48.9311 16.312 49.2984 16.312 49.7393C16.312 50.1801 16.1651 50.5475 15.8712 50.8414C15.5773 51.1352 15.2099 51.2822 14.7691 51.2822ZM20.9408 51.2822C20.5 51.2822 20.1326 51.1352 19.8388 50.8414C19.5449 50.5475 19.3979 50.1801 19.3979 49.7393C19.3979 49.2984 19.5449 48.9311 19.8388 48.6372C20.1326 48.3433 20.5 48.1963 20.9408 48.1963C21.3817 48.1963 21.7491 48.3433 22.0429 48.6372C22.3368 48.9311 22.4838 49.2984 22.4838 49.7393C22.4838 50.1801 22.3368 50.5475 22.0429 50.8414C21.7491 51.1352 21.3817 51.2822 20.9408 51.2822ZM10.5364 43.7393L10.5364 40.8371H21.9982C21.9492 40.9105 21.888 40.984 21.8145 41.0575C21.7655 41.1065 21.7165 41.1677 21.6675 41.2412L21.6675 30.4039H24.5697L24.5697 40.3962C24.5697 41.033 24.4105 41.6085 24.0922 42.1228C23.7738 42.6127 23.3574 43.0045 22.8431 43.2984C22.3288 43.5923 21.7655 43.7393 21.1532 43.7393H10.5364ZM26.2499 51.0866L26.2499 48.1844H29.5929C30.6215 48.1844 31.393 47.8293 31.9073 47.119C32.4461 46.4088 32.7155 45.4536 32.7155 44.2536L32.7155 38.7063C32.7155 38.2165 32.838 37.8859 33.0829 37.7145C33.3523 37.5185 33.6951 37.4083 34.1115 37.3838C34.5523 37.3593 35.0544 37.3471 35.6177 37.3471L35.6177 44.2536C35.6177 45.4536 35.385 46.568 34.9197 47.5966C34.4544 48.6497 33.7686 49.4947 32.8625 50.1314C31.9808 50.7682 30.8909 51.0866 29.5929 51.0866H26.2499ZM50.1206 43.7393L50.1206 40.8371H55.5576L55.5576 43.7393H50.1206ZM38.1078 51.0866L38.1078 48.1844H45.1979C45.9082 48.1844 46.5327 48.0007 47.0715 47.6333C47.6348 47.266 48.0634 46.7762 48.3573 46.1639C48.6756 45.5516 48.8348 44.9026 48.8348 44.2168L48.8348 36.1348C48.8348 35.4 48.6634 34.8245 48.3205 34.4082C48.0021 33.9918 47.5368 33.7836 46.9245 33.7836C46.2878 33.7836 45.602 33.9796 44.8673 34.3714C44.157 34.7388 43.5325 35.2776 42.9937 35.9878C42.4549 36.6981 42.1243 37.5798 42.0018 38.6329C41.9773 39.1472 42.1855 39.6492 42.6264 40.1391C43.0917 40.6044 43.6795 40.8371 44.3897 40.8371H50.1941L50.1941 43.7393H44.3897C43.3856 43.7393 42.4794 43.4943 41.6712 43.0045C40.863 42.5147 40.2262 41.8657 39.7609 41.0575C39.2956 40.2248 39.0874 39.3431 39.1364 38.4125C39.2588 37.2369 39.565 36.1838 40.0548 35.2531C40.5446 34.3224 41.1569 33.5387 41.8916 32.902C42.6508 32.2407 43.459 31.7386 44.3162 31.3958C45.1979 31.0529 46.0551 30.8814 46.8878 30.8814C47.7205 30.857 48.5042 31.0284 49.2389 31.3958C49.9737 31.7631 50.5615 32.3019 51.0023 33.0122C51.4676 33.7224 51.7003 34.6041 51.7003 35.6572L51.7003 44.2536C51.7003 45.0863 51.5411 45.9067 51.2227 46.7149C50.9288 47.5476 50.5002 48.2824 49.9369 48.9191C49.3736 49.5804 48.6879 50.1069 47.8797 50.4988C47.096 50.8907 46.202 51.0866 45.1979 51.0866H38.1078ZM55.0221 43.7393L55.0221 40.8371H62.4796C62.4061 40.9105 62.3449 40.9718 62.2959 41.0207C62.2469 41.0697 62.1857 41.131 62.1122 41.2044L62.1122 30.4039H65.0144L65.0144 40.3962C65.0144 41.033 64.8552 41.6085 64.5369 42.1228C64.243 42.6127 63.8389 43.0045 63.3246 43.2984C62.8102 43.5923 62.2347 43.7393 61.5979 43.7393H55.0221ZM64.7573 43.7393L64.7573 40.8371H69.0555C68.982 40.9105 68.9208 40.9718 68.8718 41.0207C68.8228 41.0697 68.7616 41.131 68.6881 41.2044L68.6881 30.4039H71.5536L71.5536 40.3962C71.5536 41.033 71.3944 41.6085 71.076 42.1228C70.7821 42.6127 70.378 43.0045 69.8637 43.2984C69.3494 43.5923 68.7861 43.7393 68.1738 43.7393H64.7573ZM71.2964 43.7393L71.2964 40.8371H75.6313C75.5578 40.9105 75.4966 40.9718 75.4476 41.0207C75.3987 41.0697 75.3374 41.131 75.264 41.2044L75.264 30.4039H78.1294L78.1294 40.3962C78.1294 41.033 77.9702 41.6085 77.6518 42.1228C77.3579 42.6127 76.9538 43.0045 76.4395 43.2984C75.9497 43.5923 75.3864 43.7393 74.7496 43.7393H71.2964Z" fill="#1CA686"/>
</svg>
