<svg width="24" height="25" viewBox="0 0 24 25" fill="none" xmlns="http://www.w3.org/2000/svg">
<path d="M12 2.77148C16.2424 2.77148 18.3636 2.77137 19.6816 4.10352C20.9996 5.43582 21 7.58055 21 11.8691V16.8623C21 19.9587 20.9997 21.5071 20.2656 22.1836C19.9156 22.5062 19.4736 22.7089 19.0029 22.7627C18.0159 22.8756 16.8629 21.8563 14.5576 19.8174C13.5386 18.9161 13.029 18.4654 12.4395 18.3467C12.1493 18.2882 11.8507 18.2882 11.5605 18.3467C10.971 18.4654 10.4614 18.9161 9.44238 19.8174C7.13713 21.8563 5.98412 22.8756 4.99707 22.7627C4.52639 22.7089 4.08444 22.5062 3.73438 22.1836C3.00028 21.5071 3 19.9587 3 16.8623V11.8691C3 7.58055 3.00034 5.43582 4.31836 4.10352C5.63639 2.77136 7.75751 2.77148 12 2.77148ZM9 6.02148C8.58579 6.02148 8.25 6.35727 8.25 6.77148C8.25 7.1857 8.58579 7.52148 9 7.52148H15C15.4142 7.52148 15.75 7.1857 15.75 6.77148C15.75 6.35727 15.4142 6.02148 15 6.02148H9Z" fill="#1CA686"/>
</svg>
