<svg width="24" height="25" viewBox="0 0 24 25" fill="none" xmlns="http://www.w3.org/2000/svg">
<path d="M21 16.3253V11.3319C21 7.04328 21 4.89897 19.682 3.56667C18.364 2.23438 16.2426 2.23438 12 2.23438C7.75736 2.23438 5.63604 2.23438 4.31802 3.56667C3 4.89897 3 7.04328 3 11.3319V16.3253C3 19.4219 3 20.9702 3.73411 21.6467C4.08421 21.9694 4.52615 22.1721 4.99692 22.2259C5.98402 22.3389 7.13673 21.3193 9.44216 19.2802C10.4612 18.3789 10.9708 17.9282 11.5603 17.8095C11.8506 17.751 12.1494 17.751 12.4397 17.8095C13.0292 17.9282 13.5388 18.3789 14.5578 19.2802C16.8633 21.3193 18.016 22.3389 19.0031 22.2259C19.4739 22.1721 19.9158 21.9694 20.2659 21.6467C21 20.9702 21 19.4219 21 16.3253Z" stroke="#1CA686" stroke-width="1.5"/>
<path d="M15 6.23438H9" stroke="#1CA686" stroke-width="1.5" stroke-linecap="round"/>
</svg>
