<svg width="32" height="32" viewBox="0 0 32 32" fill="none" xmlns="http://www.w3.org/2000/svg">
<path d="M21.3335 7.27214C21.3335 7.23398 21.3314 7.19622 21.3283 7.15886C21.9265 7.16703 22.4263 7.18327 22.8608 7.21875C23.5667 7.27643 24.0103 7.37792 24.3452 7.52214L24.4832 7.58724C25.1417 7.92287 25.6927 8.43326 26.077 9.0599L26.2306 9.33464C26.4095 9.68579 26.5332 10.1501 26.5991 10.957C26.6663 11.7794 26.6668 12.8363 26.6668 14.3516V17.6484C26.6668 19.1637 26.6663 20.2205 26.5991 21.0429C26.5332 21.8495 26.4095 22.3129 26.2306 22.664L26.077 22.9388C25.6927 23.5655 25.1418 24.0757 24.4832 24.4115L24.3452 24.4765C24.0102 24.6208 23.5667 24.7223 22.8608 24.78C22.4276 24.8153 21.9294 24.8304 21.3335 24.8385V7.27214ZM2.66683 17.6484C2.66683 19.1195 2.66549 20.3031 2.74363 21.2591C2.81309 22.1095 2.95003 22.8699 3.25283 23.5755L3.39336 23.8751C4.03243 25.1291 5.05216 26.1487 6.30616 26.7877C7.09576 27.19 7.95043 27.3581 8.92203 27.4375C9.87829 27.5156 11.0626 27.5143 12.534 27.5143H19.4663C19.6325 27.5143 19.7956 27.5119 19.9546 27.5117C19.9697 27.5123 19.9849 27.5143 20.0002 27.5143C20.0194 27.5143 20.0384 27.5112 20.0575 27.5104C21.2594 27.5093 22.2535 27.5049 23.0783 27.4375C23.9287 27.368 24.6889 27.2313 25.3947 26.9284L25.6929 26.7877C26.869 26.1884 27.8399 25.2549 28.4832 24.1068L28.6069 23.8751C29.0093 23.0852 29.1773 22.2309 29.2567 21.2591C29.3348 20.3031 29.3335 19.1195 29.3335 17.6484V14.3516C29.3335 12.8801 29.3348 11.6958 29.2567 10.7396C29.1773 9.76798 29.0091 8.9146 28.6069 8.125L28.4832 7.89194C27.8399 6.74386 26.869 5.81018 25.6929 5.21094L25.3947 5.07032C24.6889 4.76748 23.9287 4.63068 23.0783 4.5612C22.1221 4.48308 20.9377 4.48438 19.4663 4.48438H12.534C11.0626 4.48438 9.87829 4.48308 8.92203 4.5612C7.95043 4.64059 7.09709 4.80875 6.30749 5.21094L6.07443 5.33594C4.92656 5.97923 3.99256 6.94912 3.39336 8.125L3.25283 8.42318C2.94989 9.12896 2.81309 9.88918 2.74363 10.7396C2.66549 11.6958 2.66683 12.8801 2.66683 14.3516V17.6484ZM18.6668 24.8476H12.534C11.0187 24.8476 9.96189 24.8471 9.13949 24.78C8.33256 24.714 7.86829 24.5904 7.51709 24.4115L7.24229 24.2579C6.61576 23.8735 6.10536 23.3227 5.76963 22.664L5.70456 22.526C5.56042 22.1912 5.45883 21.7483 5.40123 21.0429C5.33403 20.2205 5.33349 19.1637 5.33349 17.6484V14.3516C5.33349 12.8363 5.33403 11.7794 5.40123 10.957C5.45883 10.2512 5.56029 9.80763 5.70456 9.47266L5.76963 9.33464C6.10536 8.6761 6.61576 8.12514 7.24229 7.7409L7.51709 7.58724C7.86829 7.40831 8.33256 7.28468 9.13949 7.21875C9.96189 7.15159 11.0188 7.15104 12.534 7.15104H18.672C18.6684 7.19092 18.6668 7.23132 18.6668 7.27214V24.8476Z" fill="#020D0B"/>
</svg>
