<svg width="24" height="25" viewBox="0 0 24 25" fill="none" xmlns="http://www.w3.org/2000/svg">
<path d="M3 8.94375C3 7.47021 3 6.73344 3.39264 6.30372C3.53204 6.15115 3.70147 6.02903 3.89029 5.94503C4.42213 5.70843 5.12109 5.94142 6.51901 6.40739C7.58626 6.76314 8.11989 6.94102 8.6591 6.9226C8.85714 6.91584 9.05401 6.88948 9.24685 6.84389C9.77191 6.71978 10.2399 6.40777 11.176 5.78374L12.5583 4.86215C13.7574 4.0628 14.3569 3.66313 15.0451 3.57097C15.7333 3.47881 16.4168 3.70666 17.7839 4.16236L18.9487 4.55061C19.9387 4.88062 20.4337 5.04563 20.7169 5.43846C21 5.83129 21 6.35308 21 7.39666V15.5251C21 16.9986 21 17.7354 20.6074 18.1651C20.468 18.3177 20.2985 18.4398 20.1097 18.5238C19.5779 18.7604 18.8789 18.5274 17.481 18.0614C16.4137 17.7057 15.8801 17.5278 15.3409 17.5462C15.1429 17.553 14.946 17.5793 14.7532 17.6249C14.2281 17.749 13.7601 18.061 12.824 18.6851L11.4417 19.6066C10.2426 20.406 9.64311 20.8057 8.95493 20.8978C8.26674 20.99 7.58319 20.7621 6.21609 20.3064L5.05132 19.9182C4.06129 19.5882 3.56627 19.4232 3.28314 19.0303C3 18.6375 3 18.1157 3 17.0721V8.94375Z" fill="#1CA686"/>
<path d="M9 6.87305V20.7344V6.87305Z" fill="#1CA686"/>
<path d="M9 6.87305V20.7344" stroke="#FBFEFD" stroke-width="1.5"/>
<path d="M15 3.23438V17.2344V3.23438Z" fill="#1CA686"/>
<path d="M15 3.23438V17.2344" stroke="#FBFEFD" stroke-width="1.5"/>
</svg>
