<svg width="24" height="24" viewBox="0 0 24 24" fill="none" xmlns="http://www.w3.org/2000/svg">
<path d="M17.9969 13.7919L5.11614 21.8931C4.98481 21.9757 4.82419 21.9976 4.67559 21.953C4.58121 21.9247 4.48085 21.9228 4.38551 21.9477L4.19519 21.9974C4.1333 22.0135 4.06742 21.9983 4.01886 21.9567C3.98348 21.9263 3.93841 21.9097 3.89181 21.9097H3.76357C3.56142 21.9097 3.37607 21.7971 3.28281 21.6178L3.25582 21.5659C3.21169 21.481 3.14904 21.4072 3.07251 21.3498L2.43243 20.8697L1.89453 20.4697C1.77251 20.379 1.60935 20.366 1.47454 20.4364L1.42962 20.4598C1.32552 20.5141 1.1998 20.5057 1.10388 20.438C1.00329 20.367 0.953589 20.2437 0.976842 20.1227L1.10049 19.4798C1.11789 19.3893 1.09742 19.2957 1.04388 19.2207C0.978179 19.1287 0.963063 19.0099 1.00364 18.9044L1.03393 18.8256C1.09097 18.6773 1.05532 18.5093 0.942963 18.397L0.8543 18.3083C0.835665 18.2897 0.825195 18.2644 0.825195 18.2381C0.825195 18.195 0.852974 18.1568 0.893977 18.1435L1.28861 18.0158C1.40598 17.9779 1.51057 17.9082 1.59085 17.8146L1.69499 17.6931L2.04057 17.3698C2.17999 17.2393 2.20648 17.028 2.10357 16.8672C2.0264 16.7466 2.02033 16.5938 2.0877 16.4675L2.14769 16.355C2.22984 16.2009 2.39021 16.1047 2.56479 16.1047H3.16662C3.18126 16.1047 3.19578 16.102 3.20945 16.0968L3.22354 16.0914C3.30998 16.0581 3.32089 15.9402 3.24201 15.8917C3.20893 15.8713 3.18877 15.8353 3.18877 15.7964V15.7255C3.18877 15.6437 3.23061 15.5677 3.29966 15.5239L3.81778 15.1953C3.91425 15.1341 3.99709 15.0538 4.06115 14.9592L4.13071 14.8565C4.27107 14.6493 4.27764 14.3793 4.14751 14.1655C4.11363 14.1098 4.07143 14.0597 4.02239 14.0168L3.66668 13.7055C3.65065 13.6915 3.63596 13.676 3.62279 13.6592L3.55848 13.5774C3.48779 13.4874 3.49548 13.3588 3.57638 13.2779C3.61877 13.2355 3.64258 13.178 3.64258 13.1181V13.0024C3.64258 12.9216 3.59845 12.8473 3.52752 12.8086C3.46876 12.7765 3.39865 12.7729 3.33687 12.7986L3.08632 12.903C2.87522 12.991 2.6363 12.9827 2.43174 12.8805L2.22886 12.779C2.20108 12.7651 2.17044 12.7579 2.13938 12.7579C2.04548 12.7579 1.96422 12.6926 1.94399 12.6009L1.76754 11.801C1.72006 11.5858 1.7318 11.3617 1.8015 11.1526L1.82735 11.075C1.92636 10.679 1.91671 10.2636 1.7994 9.87256L1.73452 9.6563C1.70824 9.56869 1.67291 9.48405 1.62911 9.40375L1.55813 9.27362C1.49905 9.1653 1.46809 9.04388 1.46809 8.92049C1.46809 8.84462 1.4798 8.7692 1.5028 8.69689L1.5629 8.50802C1.5871 8.43195 1.5828 8.34968 1.55081 8.27654C1.50023 8.16094 1.52028 8.02658 1.6024 7.93077L1.69499 7.82275L1.72661 7.79324C1.86153 7.66731 2.07569 7.68543 2.18754 7.83223C2.24653 7.90966 2.3383 7.95511 2.43564 7.95511H2.50303C2.65887 7.95511 2.80352 7.87411 2.88496 7.74123L3.06544 7.44676C3.09669 7.39577 3.14077 7.35387 3.19327 7.32523C3.27496 7.28067 3.33497 7.20475 3.35946 7.11497L3.39101 6.99927C3.41957 6.89457 3.47495 6.79913 3.55169 6.72239L3.61183 6.66225C3.70416 6.56992 3.82939 6.51805 3.95996 6.51805H4.07272C4.16997 6.51805 4.26054 6.46861 4.31312 6.38681C4.36649 6.30379 4.37325 6.19912 4.331 6.10993L4.26921 5.97949C4.24244 5.92296 4.20614 5.87146 4.16191 5.82723L4.15069 5.81601C4.03117 5.69649 3.96403 5.53439 3.96403 5.36537V5.35093C3.96403 5.23593 3.99353 5.12285 4.04972 5.02251L4.11497 4.906C4.18957 4.77278 4.22875 4.62264 4.22875 4.46995V4.251C4.22875 4.11828 4.28908 3.99276 4.39271 3.90985C4.47017 3.84788 4.56738 3.81412 4.66658 3.81412C4.76227 3.81412 4.8563 3.84515 4.93284 3.90256L5.06703 4.0032C5.09877 4.02701 5.11745 4.06437 5.11745 4.10405C5.11745 4.17367 5.17389 4.23011 5.24351 4.23011H5.27875C5.35108 4.23011 5.41457 4.27826 5.43407 4.34791L5.45603 4.42635C5.49793 4.57598 5.65765 4.65899 5.80419 4.60727L6.03091 4.52725C6.12561 4.49382 6.22824 4.49007 6.32512 4.5165L6.55953 4.58043C6.84252 4.65761 7.1453 4.59905 7.37911 4.42192L7.41759 4.39277C7.5569 4.28723 7.72689 4.23011 7.90167 4.23011C8.01087 4.23011 8.11892 4.2078 8.21919 4.16454L8.96548 3.84262C9.00945 3.82365 9.05181 3.80115 9.09214 3.77533L9.15731 3.73363C9.37324 3.59543 9.645 3.57781 9.87697 3.68697L10.031 3.75944C10.1055 3.79454 10.1908 3.79958 10.269 3.77351C10.3701 3.73979 10.4814 3.75855 10.566 3.82357L11.3418 4.42032C11.3815 4.45092 11.4386 4.44311 11.4687 4.40297C11.5004 4.36081 11.5613 4.35468 11.6006 4.38969L11.6536 4.43672C11.682 4.46197 11.7187 4.47592 11.7567 4.47592H12.4156C12.4649 4.47592 12.5128 4.45912 12.5514 4.42828L12.5781 4.40691C12.6388 4.35833 12.7245 4.35636 12.7874 4.4021C12.8479 4.44611 12.9299 4.44611 12.9904 4.4021L13.0115 4.38679C13.0652 4.34773 13.1343 4.33661 13.1975 4.35685L13.3508 4.40589C13.4903 4.45054 13.6421 4.43494 13.7697 4.36285L13.8483 4.31837C13.9487 4.26164 14.0668 4.24495 14.179 4.27166C14.3191 4.30501 14.4667 4.27037 14.5774 4.17818L14.6457 4.12121C14.7093 4.06826 14.7825 4.02824 14.8614 4.00341L15.6976 3.74017C15.7409 3.72652 15.7861 3.71957 15.8316 3.71957C15.9224 3.71957 16.011 3.69189 16.0856 3.64022L16.8664 3.0997C16.9236 3.06009 16.9915 3.03886 17.0611 3.03886C17.1388 3.03886 17.2142 3.01242 17.2749 2.96389L17.481 2.79903C17.5905 2.71142 17.7334 2.67725 17.8707 2.70586L17.9639 2.72528C18.0541 2.74408 18.1479 2.71813 18.2156 2.65562C18.2993 2.57837 18.4209 2.55829 18.525 2.60455L18.9968 2.81426C19.1337 2.87508 19.2818 2.9065 19.4315 2.9065H19.7149C19.9279 2.9065 20.1397 2.8737 20.3427 2.80924L21.0994 2.56902C21.1816 2.54293 21.2707 2.5499 21.3479 2.58846C21.439 2.63405 21.5461 2.63513 21.6382 2.5914L22.1681 2.33971C22.221 2.31456 22.267 2.27693 22.3022 2.23005C22.3414 2.17777 22.3941 2.13709 22.4546 2.11235L22.6175 2.04568C22.7137 2.00632 22.8243 2.03197 22.8934 2.10967C22.9171 2.13634 22.9347 2.16787 22.9449 2.20204L23.0334 2.49678C23.0396 2.51749 23.0508 2.53633 23.0661 2.55162L23.0951 2.58059C23.137 2.62252 23.1313 2.69207 23.083 2.72653C23.0578 2.74454 23.0428 2.77363 23.0428 2.80462V2.94288C23.0428 3.06224 22.9844 3.17405 22.8864 3.24221L22.7355 3.3472C22.6514 3.40568 22.5809 3.48151 22.5286 3.56957L22.415 3.76084C22.3053 3.9456 22.1584 4.10552 21.9835 4.23042C21.8958 4.29307 21.8149 4.3647 21.742 4.44416L21.532 4.67332C21.3331 4.89028 21.0771 5.04681 20.7933 5.12494L20.7144 5.14668C20.2245 5.28157 19.8436 5.66726 19.7149 6.15879L19.6436 6.60459C19.5912 6.93173 19.6272 7.26693 19.7477 7.57553L19.7664 7.62333C19.9389 8.0648 19.9238 8.55751 19.7247 8.98762L19.6834 9.07666C19.6045 9.24714 19.5636 9.43274 19.5636 9.6206V9.73752C19.5636 9.87084 19.5312 10.0022 19.4691 10.1201C19.407 10.2381 19.3746 10.3694 19.3746 10.5028V11.5317C19.3746 11.9757 19.2571 12.4118 19.0342 12.7957L18.8348 13.1756C18.7081 13.4169 18.4918 13.5988 18.2323 13.6822C18.1495 13.7088 18.0705 13.7457 17.9969 13.7919Z" stroke="#1CA686" stroke-width="1.39687"/>
</svg>
