<svg width="10" height="11" viewBox="0 0 10 11" fill="none" xmlns="http://www.w3.org/2000/svg">
<path d="M5 0.494141C7.1213 0.494141 8.18182 0.494983 8.84082 1.16113C9.49964 1.82726 9.5 2.89903 9.5 5.04297V7.54004C9.5 9.08806 9.4997 9.86187 9.13281 10.2002C8.95786 10.3615 8.7372 10.4633 8.50195 10.4902C8.00845 10.5467 7.43184 10.0369 6.2793 9.01758C5.7698 8.56693 5.51448 8.34158 5.21973 8.28223C5.07463 8.253 4.92537 8.253 4.78027 8.28223C4.48552 8.34158 4.23022 8.56693 3.7207 9.01758C2.56818 10.037 1.99155 10.5467 1.49805 10.4902C1.26282 10.4633 1.04214 10.3615 0.867188 10.2002C0.500299 9.86187 0.5 9.08806 0.5 7.54004V5.04297C0.5 2.89903 0.500352 1.82726 1.15918 1.16113C1.81819 0.494983 2.87868 0.494141 5 0.494141ZM3.5 1.99512C3.22386 1.99512 3 2.21897 3 2.49512C3.00026 2.77104 3.22402 2.99512 3.5 2.99512H6.5C6.77598 2.99512 6.99974 2.77104 7 2.49512C7 2.21897 6.77614 1.99512 6.5 1.99512H3.5Z" fill="#FBFEFD"/>
</svg>
