<svg width="28" height="28" viewBox="0 0 28 28" fill="none" xmlns="http://www.w3.org/2000/svg">
<path d="M13.9997 25.6668C20.4429 25.6668 25.6663 20.4434 25.6663 14.0002C25.6663 7.55684 20.4429 2.3335 13.9997 2.3335C7.55635 2.3335 2.33301 7.55684 2.33301 14.0002C2.33301 15.8665 2.77123 17.6304 3.55038 19.1947C3.75744 19.6104 3.82635 20.0856 3.70631 20.5342L3.01144 23.1313C2.70978 24.2587 3.74119 25.29 4.86858 24.9884L7.46563 24.2935C7.91426 24.1735 8.38942 24.2424 8.80513 24.4494C10.3694 25.2286 12.1334 25.6668 13.9997 25.6668Z" stroke="#FBFEFD" stroke-width="1.75"/>
<path d="M14.0003 17.889C15.289 17.889 16.3337 17.0184 16.3337 15.9446C16.3337 14.8707 15.289 14.0002 14.0003 14.0002C12.7116 14.0002 11.667 13.1296 11.667 12.0557C11.667 10.9818 12.7116 10.1113 14.0003 10.1113M14.0003 17.889C12.7116 17.889 11.667 17.0184 11.667 15.9446M14.0003 17.889V18.6668M14.0003 10.1113V9.3335M14.0003 10.1113C15.289 10.1113 16.3337 10.9818 16.3337 12.0557" stroke="#FBFEFD" stroke-width="1.75" stroke-linecap="round"/>
</svg>
