<svg width="28" height="28" viewBox="0 0 28 28" fill="none" xmlns="http://www.w3.org/2000/svg">
<path d="M10.9339 6.90152C12.2979 4.45448 12.98 3.23096 13.9997 3.23096C15.0194 3.23096 15.7014 4.45447 17.0655 6.90151L17.4184 7.53458C17.8061 8.22995 17.9998 8.57765 18.3021 8.80705C18.6043 9.03646 18.9806 9.12161 19.7333 9.29193L20.4187 9.44698C23.0675 10.0463 24.392 10.346 24.7071 11.3593C25.0222 12.3725 24.1193 13.4284 22.3134 15.5401L21.8463 16.0864C21.3331 16.6865 21.0765 16.9865 20.961 17.3577C20.8457 17.7289 20.8845 18.1292 20.962 18.9299L21.0326 19.6588C21.3056 22.4762 21.4422 23.8849 20.6173 24.5112C19.7922 25.1374 18.5522 24.5664 16.072 23.4245L15.4304 23.129C14.7256 22.8046 14.3733 22.6423 13.9997 22.6423C13.6261 22.6423 13.2737 22.8046 12.569 23.129L11.9274 23.4245C9.4472 24.5664 8.20712 25.1374 7.38217 24.5112C6.55721 23.8849 6.69372 22.4762 6.96674 19.6588L7.03737 18.9299C7.11496 18.1292 7.15375 17.7289 7.03832 17.3577C6.92289 16.9865 6.66632 16.6865 6.15315 16.0864L5.68596 15.5401C3.88012 13.4284 2.9772 12.3725 3.29231 11.3593C3.60742 10.346 4.93186 10.0463 7.58074 9.44698L8.26604 9.29193C9.01877 9.12161 9.39513 9.03646 9.69732 8.80705C9.99952 8.57765 10.1933 8.22996 10.581 7.53458L10.9339 6.90152Z" stroke="#1CA686" stroke-width="1.75"/>
</svg>
