<svg width="64" height="65" viewBox="0 0 64 65" fill="none" xmlns="http://www.w3.org/2000/svg">
<rect y="0.148438" width="64" height="64" rx="32" fill="#EFF1F0"/>
<path d="M35.3438 20.9247L36.657 19.6114C38.8329 17.4355 42.3607 17.4355 44.5366 19.6114C46.7125 21.7873 46.7125 25.3152 44.5366 27.4911L43.2233 28.8043M35.3438 20.9247C35.3438 20.9247 35.5079 23.7154 37.9703 26.1778C40.4326 28.6402 43.2233 28.8043 43.2233 28.8043M35.3438 20.9247L23.2702 32.9982C22.4524 33.8161 22.0435 34.2248 21.6919 34.6757C21.2771 35.2076 20.9215 35.783 20.6313 36.3918C20.3853 36.908 20.2025 37.4566 19.8367 38.5537L18.287 43.2029M43.2233 28.8043L31.1498 40.8779C30.332 41.6956 29.9232 42.1045 29.4724 42.4562C28.9405 42.871 28.3651 43.2267 27.7562 43.5169C27.2401 43.7628 26.6915 43.9456 25.5944 44.3113L20.9452 45.8611M18.287 43.2029L17.9082 44.3394C17.7282 44.8792 17.8687 45.4744 18.2712 45.8769C18.6736 46.2793 19.2689 46.4199 19.8088 46.24L20.9452 45.8611M18.287 43.2029L20.9452 45.8611" stroke="#B1B9B7" stroke-width="2.5"/>
</svg>
