<svg width="16" height="17" viewBox="0 0 16 17" fill="none" xmlns="http://www.w3.org/2000/svg">
<path d="M8 1.90894C11.681 1.90896 14.665 4.89301 14.665 8.57397C14.665 12.2549 11.6809 15.239 8 15.239C4.31904 15.239 1.33498 12.2549 1.33496 8.57397C1.33496 4.893 4.31902 1.90894 8 1.90894ZM7.99902 5.76245C6.44652 5.76279 5.18769 7.02143 5.1875 8.57397C5.18762 10.1266 6.44647 11.3861 7.99902 11.3865C9.55186 11.3865 10.8114 10.1268 10.8115 8.57397C10.8113 7.02122 9.55182 5.76245 7.99902 5.76245ZM9.74902 7.26538C10.0227 7.63044 10.1864 8.08269 10.1865 8.57397C10.1864 9.7817 9.20677 10.7615 7.99902 10.7615C7.50788 10.7613 7.05639 10.5966 6.69141 10.323L9.74902 7.26538ZM7.99902 6.38745C8.49009 6.38745 8.94248 6.55072 9.30762 6.82397L6.25 9.88159C5.97682 9.51652 5.81255 9.06492 5.8125 8.57397C5.81269 7.36652 6.79161 6.38779 7.99902 6.38745Z" fill="#C02626"/>
</svg>
