<svg width="17" height="16" viewBox="0 0 17 16" fill="none" xmlns="http://www.w3.org/2000/svg">
<path d="M8.5 1.33301C12.1818 1.33305 15.167 4.31815 15.167 8C15.167 11.6819 12.1819 14.6669 8.5 14.667C4.8181 14.667 1.83301 11.6819 1.83301 8C1.83303 4.31812 4.81812 1.33301 8.5 1.33301ZM10.5195 5.97949C10.3243 5.78473 10.0076 5.78445 9.8125 5.97949L8.49902 7.29199L7.18652 5.97949L7.1084 5.91504C6.91437 5.78714 6.65026 5.80878 6.47949 5.97949C6.30874 6.15025 6.28715 6.41435 6.41504 6.6084L6.47949 6.68652L7.79199 7.99902L6.47949 9.3125C6.28439 9.5076 6.2847 9.82423 6.47949 10.0195C6.67475 10.2148 6.99126 10.2148 7.18652 10.0195L8.49902 8.70605L9.8125 10.0195L9.8916 10.084C10.0857 10.2119 10.3488 10.1903 10.5195 10.0195C10.6903 9.84875 10.7119 9.58563 10.584 9.3916L10.5195 9.3125L9.20605 7.99902L10.5195 6.68652C10.7147 6.49126 10.7148 6.17473 10.5195 5.97949Z" fill="#C02626"/>
</svg>
