<svg width="17" height="16" viewBox="0 0 17 16" fill="none" xmlns="http://www.w3.org/2000/svg">
<path d="M8.5 1.33301C12.1818 1.33305 15.167 4.31815 15.167 8C15.167 11.6819 12.1819 14.6669 8.5 14.667C4.8181 14.667 1.83301 11.6819 1.83301 8C1.83303 4.31812 4.81812 1.33301 8.5 1.33301ZM11.1875 5.97949C11.0168 5.80885 10.7526 5.7873 10.5586 5.91504L10.4805 5.97949L7.5 8.95898L6.52051 7.97949L6.44238 7.91504C6.24842 7.78695 5.98435 7.80891 5.81348 7.97949C5.64265 8.15031 5.62096 8.41433 5.74902 8.6084L5.81348 8.68652L7.14648 10.0195L7.22559 10.084C7.41964 10.2119 7.68274 10.1903 7.85352 10.0195L11.1875 6.68652L11.251 6.6084C11.3791 6.41439 11.3582 6.15034 11.1875 5.97949Z" fill="#1CA686"/>
</svg>
