<svg width="12" height="9" viewBox="0 0 12 9" fill="none" xmlns="http://www.w3.org/2000/svg">
<path fill-rule="evenodd" clip-rule="evenodd" d="M0 1.16667C0 0.79848 0.29848 0.5 0.666667 0.5H11.3333C11.7015 0.5 12 0.79848 12 1.16667C12 1.53485 11.7015 1.83333 11.3333 1.83333H0.666667C0.29848 1.83333 0 1.53485 0 1.16667ZM2 4.5C2 4.1318 2.29848 3.83333 2.66667 3.83333H9.33333C9.70153 3.83333 10 4.1318 10 4.5C10 4.8682 9.70153 5.16667 9.33333 5.16667H2.66667C2.29848 5.16667 2 4.8682 2 4.5ZM4 7.83333C4 7.46513 4.29848 7.16667 4.66667 7.16667H7.33333C7.70153 7.16667 8 7.46513 8 7.83333C8 8.20153 7.70153 8.5 7.33333 8.5H4.66667C4.29848 8.5 4 8.20153 4 7.83333Z" fill="#020D0B"/>
</svg>
