<svg width="16" height="16" viewBox="0 0 16 16" fill="none" xmlns="http://www.w3.org/2000/svg">
<path d="M8 1.33301C11.6818 1.33305 14.667 4.31815 14.667 8C14.667 11.6819 11.6819 14.6669 8 14.667C4.3181 14.667 1.33301 11.6819 1.33301 8C1.33303 4.31812 4.31812 1.33301 8 1.33301ZM8 4.83301C7.72398 4.83301 7.5002 5.05703 7.5 5.33301V8C7.50009 8.1324 7.55291 8.25984 7.64648 8.35352L9.31348 10.0195L9.3916 10.084C9.58567 10.2121 9.84967 10.1904 10.0205 10.0195C10.1909 9.8487 10.2119 9.58547 10.084 9.3916L10.0205 9.3125L8.5 7.79199V5.33301C8.4998 5.05703 8.27602 4.83301 8 4.83301Z" fill="#D1A347"/>
</svg>
