<svg width="17" height="16" viewBox="0 0 17 16" fill="none" xmlns="http://www.w3.org/2000/svg">
<path d="M8.5 1.33301C12.1817 1.33318 15.166 4.31821 15.166 8C15.166 11.6818 12.1817 14.6668 8.5 14.667C4.81813 14.667 1.83305 11.6819 1.83301 8C1.83301 4.3181 4.8181 1.33301 8.5 1.33301ZM5.83301 7.33301C5.46482 7.33301 5.16602 7.63181 5.16602 8C5.16602 8.36819 5.46482 8.66699 5.83301 8.66699H5.83887L5.97363 8.65332C6.27732 8.59107 6.50586 8.32209 6.50586 8C6.50586 7.67791 6.27732 7.40893 5.97363 7.34668L5.83887 7.33301H5.83301ZM8.50293 7.33301C8.13474 7.33301 7.83594 7.63181 7.83594 8C7.83594 8.36819 8.13474 8.66699 8.50293 8.66699H8.50879L8.64258 8.65332C8.9466 8.59134 9.17578 8.32233 9.17578 8C9.17578 7.67767 8.9466 7.40866 8.64258 7.34668L8.50879 7.33301H8.50293ZM11.1602 7.33301C10.7921 7.33311 10.4941 7.63187 10.4941 8C10.4941 8.36813 10.7921 8.66689 11.1602 8.66699H11.166L11.3008 8.65332C11.6045 8.59114 11.833 8.32215 11.833 8C11.833 7.67785 11.6045 7.40886 11.3008 7.34668L11.166 7.33301H11.1602Z" fill="#B1B9B7"/>
</svg>
