<svg width="17" height="17" viewBox="0 0 17 17" fill="none" xmlns="http://www.w3.org/2000/svg">
<path d="M8.50098 1.90698C12.1827 1.90716 15.167 4.89219 15.167 8.57397C15.1669 12.2557 12.1827 15.2408 8.50098 15.241C4.81911 15.241 1.83403 12.2558 1.83398 8.57397C1.83398 4.89208 4.81908 1.90698 8.50098 1.90698ZM8.50098 10.574C8.13279 10.574 7.83398 10.8728 7.83398 11.241C7.83416 11.609 8.1329 11.907 8.50098 11.907C8.86891 11.9068 9.16682 11.6089 9.16699 11.241C9.16699 10.8729 8.86902 10.5742 8.50098 10.574ZM8.5 4.74097C8.22386 4.74097 8 4.96482 8 5.24097V9.24097C8.00013 9.517 8.22394 9.74097 8.5 9.74097C8.77606 9.74097 8.99987 9.517 9 9.24097V5.24097C9 4.96482 8.77614 4.74097 8.5 4.74097Z" fill="#D1A347"/>
</svg>
