<svg width="200" height="201" viewBox="0 0 200 201" fill="none" xmlns="http://www.w3.org/2000/svg">
<path d="M25 73.0733C25 60.7938 25 54.654 28.272 51.073C29.4337 49.8016 30.8456 48.7839 32.4191 48.0839C36.8511 46.1123 42.6757 48.0538 54.3251 51.9369C63.2188 54.9015 67.6657 56.3838 72.1592 56.2303C73.8095 56.174 75.4501 55.9543 77.0571 55.5744C81.4326 54.5402 85.3325 51.9401 93.1333 46.7398L104.652 39.0599C114.645 32.3987 119.641 29.0681 125.376 28.3001C131.111 27.5321 136.807 29.4308 148.199 33.2283L157.906 36.4638C166.156 39.2138 170.281 40.5889 172.641 43.8625C175 47.1361 175 51.4843 175 60.1808V127.918C175 140.197 175 146.337 171.728 149.918C170.567 151.189 169.154 152.207 167.581 152.907C163.149 154.878 157.324 152.937 145.675 149.053C136.781 146.089 132.334 144.607 127.841 144.76C126.191 144.817 124.55 145.036 122.943 145.416C118.567 146.45 114.667 149.05 106.867 154.251L95.3475 161.93C85.355 168.592 80.3593 171.923 74.6244 172.69C68.8895 173.458 63.1933 171.559 51.8008 167.762L42.0943 164.527C33.8441 161.777 29.7189 160.402 27.3595 157.128C25 153.854 25 149.506 25 140.809V73.0733Z" stroke="#FBFEFD" stroke-width="5"/>
<path d="M75 55.8174V171.328" stroke="#FBFEFD" stroke-width="5"/>
<path d="M125 25.4951V142.162" stroke="#FBFEFD" stroke-width="5"/>
</svg>
