<svg width="24" height="24" viewBox="0 0 24 24" fill="none" xmlns="http://www.w3.org/2000/svg">
<path d="M2 11.9998C2 8.22852 2 6.34291 3.17157 5.17133C4.34315 3.99976 6.22876 3.99976 10 3.99976H14C17.7712 3.99976 19.6569 3.99976 20.8284 5.17133C22 6.34291 22 8.22852 22 11.9998V13.9998C22 17.771 22 19.6567 20.8284 20.8282C19.6569 21.9998 17.7712 21.9998 14 21.9998H10C6.22876 21.9998 4.34315 21.9998 3.17157 20.8282C2 19.6567 2 17.771 2 13.9998V11.9998Z" stroke="#1CA686" stroke-width="1.5"/>
<path d="M7 3.99976V2.49976" stroke="#1CA686" stroke-width="1.5" stroke-linecap="round"/>
<path d="M17 3.99976V2.49976" stroke="#1CA686" stroke-width="1.5" stroke-linecap="round"/>
<path d="M2.5 9H21.5" stroke="#1CA686" stroke-width="1.5" stroke-linecap="round"/>
<path d="M18 16.9998C18 17.5521 17.5523 17.9998 17 17.9998C16.4477 17.9998 16 17.5521 16 16.9998C16 16.4475 16.4477 15.9998 17 15.9998C17.5523 15.9998 18 16.4475 18 16.9998Z" fill="#1CA686"/>
<path d="M18 13C18 13.5523 17.5523 14 17 14C16.4477 14 16 13.5523 16 13C16 12.4477 16.4477 12 17 12C17.5523 12 18 12.4477 18 13Z" fill="#1CA686"/>
<path d="M13 16.9998C13 17.5521 12.5523 17.9998 12 17.9998C11.4477 17.9998 11 17.5521 11 16.9998C11 16.4475 11.4477 15.9998 12 15.9998C12.5523 15.9998 13 16.4475 13 16.9998Z" fill="#1CA686"/>
<path d="M13 13C13 13.5523 12.5523 14 12 14C11.4477 14 11 13.5523 11 13C11 12.4477 11.4477 12 12 12C12.5523 12 13 12.4477 13 13Z" fill="#1CA686"/>
<path d="M8 16.9998C8 17.5521 7.55228 17.9998 7 17.9998C6.44772 17.9998 6 17.5521 6 16.9998C6 16.4475 6.44772 15.9998 7 15.9998C7.55228 15.9998 8 16.4475 8 16.9998Z" fill="#1CA686"/>
<path d="M8 13C8 13.5523 7.55228 14 7 14C6.44772 14 6 13.5523 6 13C6 12.4477 6.44772 12 7 12C7.55228 12 8 12.4477 8 13Z" fill="#1CA686"/>
</svg>
