<svg width="32" height="33" viewBox="0 0 32 33" fill="none" xmlns="http://www.w3.org/2000/svg">
<path d="M18.6743 7.55832L19.7248 6.5077C21.4655 4.76697 24.2878 4.76697 26.0285 6.5077C27.7692 8.24841 27.7692 11.0707 26.0285 12.8114L24.9779 13.862M18.6743 7.55832C18.6743 7.55832 18.8055 9.79088 20.7754 11.7608C22.7453 13.7307 24.9779 13.862 24.9779 13.862M18.6743 7.55832L9.01537 17.2172C8.36116 17.8714 8.03405 18.1984 7.75274 18.5591C7.42088 18.9846 7.13639 19.4449 6.90425 19.932C6.70746 20.3449 6.56118 20.7838 6.2686 21.6615L5.02883 25.3809M24.9779 13.862L15.3191 23.5209C14.6648 24.175 14.3378 24.5022 13.9771 24.7835C13.5516 25.1154 13.0913 25.3999 12.6042 25.632C12.1913 25.8288 11.7524 25.975 10.8747 26.2676L7.15541 27.5074M5.02883 25.3809L4.72578 26.29C4.5818 26.7219 4.69421 27.1981 5.01616 27.5201C5.33811 27.842 5.81432 27.9545 6.24625 27.8105L7.15541 27.5074M5.02883 25.3809L7.15541 27.5074" stroke="#1CA686" stroke-width="2"/>
</svg>
