<svg width="33" height="33" viewBox="0 0 33 33" fill="none" xmlns="http://www.w3.org/2000/svg">
<path d="M3.33203 15.1621C3.33203 11.3909 3.33203 9.50526 4.5036 8.33368C5.67518 7.16211 7.56079 7.16211 11.332 7.16211H17.9987C21.7699 7.16211 23.6555 7.16211 24.8271 8.33368C25.9987 9.50526 25.9987 11.3909 25.9987 15.1621C25.9987 18.9333 25.9987 20.8189 24.8271 21.9905C23.6555 23.1621 21.7699 23.1621 17.9987 23.1621H11.332C7.56079 23.1621 5.67518 23.1621 4.5036 21.9905C3.33203 20.8189 3.33203 18.9333 3.33203 15.1621Z" stroke="#1CA686" stroke-width="2"/>
<path d="M25.9988 11.2637C27.2988 11.3916 28.174 11.6806 28.8272 12.3338C29.9988 13.5053 29.9988 15.3909 29.9988 19.1622C29.9988 22.9334 29.9988 24.819 28.8272 25.9906C27.6556 27.1622 25.77 27.1622 21.9988 27.1622H15.3322C11.5609 27.1622 9.67526 27.1622 8.50369 25.9906C7.85049 25.3374 7.56147 24.4622 7.43359 23.1621" stroke="#1CA686" stroke-width="2"/>
<path d="M17.9987 15.1615C17.9987 17.0024 16.5063 18.4948 14.6654 18.4948C12.8244 18.4948 11.332 17.0024 11.332 15.1615C11.332 13.3205 12.8244 11.8281 14.6654 11.8281C16.5063 11.8281 17.9987 13.3205 17.9987 15.1615Z" stroke="#1CA686" stroke-width="2"/>
<path d="M22 17.8285V12.4951" stroke="#1CA686" stroke-width="2" stroke-linecap="round"/>
<path d="M7.33203 17.8285V12.4951" stroke="#1CA686" stroke-width="2" stroke-linecap="round"/>
</svg>
