<svg width="200" height="261" viewBox="0 0 200 261" fill="none" xmlns="http://www.w3.org/2000/svg">
<g clip-path="url(#clip0_890_36497)">
<path d="M32.9531 88.314L40.9031 90.9262V79.4873H33.6924L32.9531 88.314Z" fill="#9F616A"/>
<path d="M39.9192 82.6524C44.2929 82.6524 47.8384 79.1068 47.8384 74.7332C47.8384 70.3595 44.2929 66.814 39.9192 66.814C35.5456 66.814 32 70.3595 32 74.7332C32 79.1068 35.5456 82.6524 39.9192 82.6524Z" fill="#9F616A"/>
<path d="M37.9017 75.3534L38.9924 76.6797L40.9662 73.2242C40.9662 73.2242 43.4861 73.3568 43.4861 71.4828C43.4861 69.6088 45.7989 69.561 45.7989 69.561C45.7989 69.561 49.0743 63.8445 42.2914 65.3509C42.2914 65.3509 37.5892 62.1275 35.2489 64.8835C35.2489 64.8835 28.0782 68.4949 30.1313 74.7826L33.5409 81.2628L34.3138 79.7962C34.3138 79.7962 33.8467 73.6364 37.9017 75.3534Z" fill="#090814"/>
<path d="M37.1711 196.698H30.7734V205.775H37.1711V196.698Z" fill="#9F616A"/>
<path d="M43.4035 211.269C44.0756 211.269 44.6746 211.253 45.1277 211.211C46.8253 211.055 48.4487 209.799 49.2656 209.066C49.444 208.905 49.5681 208.693 49.6207 208.459C49.6732 208.224 49.6517 207.979 49.559 207.758C49.4923 207.598 49.3903 207.456 49.2607 207.341C49.131 207.226 48.9771 207.142 48.8105 207.095L44.3192 205.812L37.0474 200.904L36.9649 201.051C36.5689 201.755 36.2395 202.495 35.9811 203.26C35.933 203.394 35.9144 203.536 35.9266 203.677C35.9387 203.819 35.9813 203.956 36.0514 204.079C36.1343 204.203 36.2509 204.3 36.3875 204.36C36.2548 204.497 35.8437 204.779 34.5726 204.98C32.7179 205.274 32.3269 203.352 32.3116 203.272L32.2993 203.208L32.2444 203.171C31.3614 202.603 30.8176 202.344 30.6312 202.398C30.515 202.432 30.3195 202.493 29.7908 207.727C29.5347 208.541 29.476 209.405 29.6197 210.247C29.8916 211.5 35.3668 211.069 36.4633 210.971C36.4938 210.974 40.5942 211.267 43.4019 211.267L43.4035 211.269Z" fill="#090814"/>
<path d="M11.4346 190.089L16.3672 194.165L22.1494 187.166L17.2168 183.091L11.4346 190.089Z" fill="#9F616A"/>
<path d="M17.6621 202.356C18.1814 202.784 18.652 203.154 19.0247 203.411C20.4332 204.373 22.4834 204.44 23.577 204.394C23.8172 204.384 24.0483 204.299 24.2383 204.152C24.4283 204.005 24.568 203.802 24.638 203.572C24.6882 203.406 24.7005 203.231 24.6741 203.06C24.6476 202.888 24.5831 202.725 24.4852 202.582L21.8425 198.729L19.3677 190.315L19.2119 190.376C18.458 190.666 17.7327 191.026 17.0456 191.451C16.9237 191.524 16.8188 191.622 16.7382 191.738C16.6575 191.855 16.603 191.987 16.5782 192.127C16.5624 192.276 16.59 192.427 16.6578 192.561C16.4684 192.582 15.9734 192.536 14.8644 191.883C13.2482 190.929 14.1708 189.197 14.2137 189.124L14.2442 189.066L14.2259 189.005C13.9076 188.003 13.6546 187.459 13.4745 187.382C13.3615 187.334 13.175 187.254 9.43223 190.954C8.71424 191.417 8.11801 192.046 7.69375 192.787C7.10409 193.928 11.5983 197.086 12.5058 197.706C12.5272 197.728 15.5 200.566 17.6631 202.356H17.6621Z" fill="#090814"/>
<path d="M47.7509 126.698H25.8047L30.6809 199.24H37.9953L47.7477 126.698L47.7509 126.698Z" fill="#090814"/>
<path d="M43.2815 130.694L47.7514 126.698L45.5179 166.594L20.5226 190.367L14.2891 185.219L28.8537 166.322L43.2815 130.694Z" fill="#090814"/>
<path d="M43.2798 84.0246L32.4425 82.2646L29.0756 88.1491C24.798 95.6305 23.0532 104.294 24.1015 112.848L25.8034 126.698H47.7496L43.2798 84.0246Z" fill="#1CA686"/>
<path d="M65.4239 130.128C67.2449 131.506 67.9752 133.587 67.0555 134.779C66.1359 135.97 63.9117 135.821 62.0907 134.442C61.3541 133.903 60.764 133.187 60.3737 132.362L52.7344 126.428L55.7357 122.799L62.9494 129.035C63.8533 129.191 64.705 129.567 65.4303 130.129H65.4242L65.4239 130.128Z" fill="#9F616A"/>
<path d="M62.3817 127.288L47.8383 112.534L39.1522 95.8732C38.7345 95.0713 38.1568 94.3635 37.4548 93.7935C36.7529 93.2235 35.9415 92.8035 35.0709 92.5593C34.2003 92.3151 33.2888 92.252 32.3928 92.3738C31.4968 92.4956 30.6353 92.7998 29.8615 93.2676C29.0877 93.7354 28.4179 94.3568 27.8937 95.0935C27.3694 95.8302 27.0017 96.6666 26.8132 97.551C26.6248 98.4353 26.6196 99.349 26.7981 100.235C26.9765 101.122 27.3348 101.962 27.8507 102.705L40.3443 120.67L40.3626 120.697L59.4766 131.953L62.3791 127.284H62.3822L62.3817 127.288Z" fill="#1CA686"/>
<path d="M191.935 50.1996H190.773V18.3978C190.773 13.5162 188.834 8.83454 185.382 5.38272C181.93 1.93091 177.249 -0.00830078 172.367 -0.00830078H104.992C100.11 -0.00830078 95.4288 1.93091 91.977 5.38272C88.5252 8.83454 86.5859 13.5162 86.5859 18.3978V192.862C86.5859 197.743 88.5252 202.425 91.977 205.877C95.4288 209.329 100.11 211.268 104.992 211.268H172.367C177.249 211.268 181.93 209.329 185.382 205.877C188.834 202.425 190.773 197.743 190.773 192.862V72.8336H191.935V50.1996Z" fill="#090814"/>
<path d="M173.111 4.78076H164.318C164.723 5.77248 164.877 6.84848 164.768 7.91394C164.659 8.97941 164.289 10.0016 163.691 10.8905C163.094 11.7794 162.287 12.5077 161.341 13.0112C160.396 13.5147 159.341 13.7779 158.27 13.7777H119.67C118.598 13.7779 117.544 13.5147 116.598 13.0112C115.653 12.5077 114.846 11.7794 114.249 10.8905C113.651 10.0016 113.281 8.97941 113.172 7.91394C113.063 6.84848 113.217 5.77248 113.622 4.78076H105.41C101.764 4.78076 98.2678 6.22895 95.69 8.80674C93.1123 11.3845 91.6641 14.8808 91.6641 18.5263V192.735C91.6641 196.381 93.1122 199.877 95.6899 202.455C98.2676 205.032 101.764 206.48 105.409 206.481H173.109C174.914 206.481 176.702 206.125 178.369 205.434C180.037 204.743 181.552 203.731 182.829 202.455C184.105 201.178 185.118 199.663 185.809 197.995C186.499 196.327 186.855 194.54 186.855 192.735V18.5263C186.855 14.8811 185.407 11.3851 182.83 8.80732C180.252 6.22957 176.756 4.78118 173.111 4.78076Z" fill="white"/>
<path d="M154.117 86.6831H71.5256C70.7897 86.6822 70.0842 86.3895 69.5639 85.8692C69.0435 85.3488 68.7508 84.6433 68.75 83.9074V71.8118C68.7508 71.0759 69.0435 70.3704 69.5639 69.85C70.0842 69.3297 70.7897 69.037 71.5256 69.0361H154.117C154.853 69.037 155.559 69.3297 156.079 69.85C156.599 70.3704 156.892 71.0759 156.893 71.8118V83.9074C156.892 84.6434 156.599 85.3489 156.079 85.8694C155.559 86.3898 154.853 86.6825 154.117 86.6833V86.6831Z" fill="#D6D6E3"/>
<path d="M146.091 84.8112H73.3967C72.6608 84.8104 71.9553 84.5177 71.435 83.9973C70.9146 83.477 70.6219 82.7714 70.6211 82.0356V73.6853C70.6219 72.9494 70.9146 72.2439 71.435 71.7236C71.9553 71.2032 72.6608 70.9105 73.3967 70.9097H152.243C152.979 70.9106 153.685 71.2033 154.205 71.7236C154.725 72.244 155.018 72.9494 155.019 73.6853V75.883C155.016 78.25 154.074 80.5193 152.401 82.193C150.727 83.8667 148.458 84.8083 146.091 84.8112Z" fill="white"/>
<path d="M121.017 76.9993H87.8216C87.6317 76.9993 87.4495 76.9238 87.3152 76.7895C87.1809 76.6552 87.1055 76.473 87.1055 76.2831C87.1055 76.0931 87.1809 75.911 87.3152 75.7767C87.4495 75.6423 87.6317 75.5669 87.8216 75.5669H121.017C121.207 75.5669 121.389 75.6423 121.524 75.7767C121.658 75.911 121.733 76.0931 121.733 76.2831C121.733 76.473 121.658 76.6552 121.524 76.7895C121.389 76.9238 121.207 76.9993 121.017 76.9993Z" fill="#1CA686"/>
<path d="M137.822 79.9255H87.8217C87.6317 79.9255 87.4496 79.8501 87.3152 79.7158C87.1809 79.5815 87.1055 79.3993 87.1055 79.2093C87.1055 79.0194 87.1809 78.8372 87.3152 78.7029C87.4496 78.5686 87.6317 78.4932 87.8217 78.4932H137.822C138.012 78.4932 138.195 78.5686 138.329 78.7029C138.463 78.8372 138.539 79.0194 138.539 79.2093C138.539 79.3993 138.463 79.5815 138.329 79.7158C138.195 79.8501 138.012 79.9255 137.822 79.9255Z" fill="#D6D6E3"/>
<path d="M154.117 112.348H71.5256C70.7897 112.347 70.0842 112.054 69.5639 111.534C69.0435 111.013 68.7508 110.308 68.75 109.572V97.4763C68.7509 96.7405 69.0436 96.035 69.564 95.5147C70.0843 94.9943 70.7898 94.7016 71.5256 94.7007H154.117C154.853 94.7015 155.559 94.9942 156.079 95.5146C156.599 96.0349 156.892 96.7404 156.893 97.4763V109.572C156.892 110.308 156.599 111.013 156.079 111.534C155.559 112.054 154.853 112.347 154.117 112.348Z" fill="#D6D6E3"/>
<path d="M146.091 110.476H73.3967C72.6608 110.475 71.9553 110.182 71.435 109.662C70.9146 109.142 70.6219 108.436 70.6211 107.7V99.3499C70.6219 98.614 70.9146 97.9085 71.435 97.3881C71.9553 96.8678 72.6608 96.5751 73.3967 96.5742H152.243C152.979 96.5751 153.685 96.8679 154.205 97.3882C154.725 97.9085 155.018 98.614 155.019 99.3499V101.548C155.016 103.915 154.074 106.184 152.401 107.858C150.727 109.531 148.458 110.473 146.091 110.476Z" fill="white"/>
<path d="M121.017 102.664H87.8216C87.6317 102.664 87.4495 102.588 87.3152 102.454C87.1809 102.32 87.1055 102.138 87.1055 101.948C87.1055 101.758 87.1809 101.576 87.3152 101.441C87.4495 101.307 87.6317 101.231 87.8216 101.231H121.017C121.207 101.231 121.389 101.307 121.524 101.441C121.658 101.576 121.733 101.758 121.733 101.948C121.733 102.138 121.658 102.32 121.524 102.454C121.389 102.588 121.207 102.664 121.017 102.664Z" fill="#1CA686"/>
<path d="M137.822 105.59H87.8217C87.7276 105.59 87.6345 105.572 87.5476 105.536C87.4607 105.5 87.3817 105.447 87.3152 105.38C87.2487 105.314 87.196 105.235 87.16 105.148C87.124 105.061 87.1055 104.968 87.1055 104.874C87.1055 104.78 87.124 104.687 87.16 104.6C87.196 104.513 87.2487 104.434 87.3152 104.367C87.3817 104.301 87.4607 104.248 87.5476 104.212C87.6345 104.176 87.7276 104.158 87.8217 104.158H137.822C137.916 104.158 138.01 104.176 138.096 104.212C138.183 104.248 138.262 104.301 138.329 104.367C138.395 104.434 138.448 104.513 138.484 104.6C138.52 104.687 138.539 104.78 138.539 104.874C138.539 104.968 138.52 105.061 138.484 105.148C138.448 105.235 138.395 105.314 138.329 105.38C138.262 105.447 138.183 105.5 138.096 105.536C138.01 105.572 137.916 105.59 137.822 105.59Z" fill="#D6D6E3"/>
<path d="M154.117 138.012H71.5256C70.7897 138.011 70.0842 137.719 69.5639 137.198C69.0435 136.678 68.7508 135.972 68.75 135.237V123.141C68.7508 122.405 69.0435 121.699 69.5639 121.179C70.0842 120.659 70.7897 120.366 71.5256 120.365H154.117C154.853 120.366 155.559 120.659 156.079 121.179C156.599 121.7 156.892 122.405 156.893 123.141V135.237C156.892 135.972 156.599 136.678 156.079 137.198C155.559 137.719 154.853 138.011 154.117 138.012Z" fill="#D6D6E3"/>
<path d="M146.091 136.14H73.3967C72.6608 136.139 71.9553 135.846 71.435 135.326C70.9146 134.806 70.6219 134.1 70.6211 133.364V125.014C70.622 124.278 70.9147 123.573 71.4351 123.052C71.9554 122.532 72.6609 122.239 73.3967 122.238H152.243C152.979 122.239 153.685 122.532 154.205 123.052C154.725 123.573 155.018 124.278 155.019 125.014V127.212C155.016 129.579 154.074 131.848 152.401 133.522C150.727 135.195 148.458 136.137 146.091 136.14Z" fill="white"/>
<path d="M121.017 128.328H87.8216C87.7276 128.328 87.6345 128.31 87.5476 128.274C87.4607 128.238 87.3817 128.185 87.3152 128.119C87.2487 128.052 87.196 127.973 87.16 127.886C87.124 127.799 87.1055 127.706 87.1055 127.612C87.1055 127.518 87.124 127.425 87.16 127.338C87.196 127.251 87.2487 127.172 87.3152 127.106C87.3817 127.039 87.4607 126.987 87.5476 126.951C87.6345 126.915 87.7276 126.896 87.8216 126.896H121.017C121.111 126.896 121.204 126.915 121.291 126.951C121.378 126.987 121.457 127.039 121.524 127.106C121.59 127.172 121.643 127.251 121.679 127.338C121.715 127.425 121.733 127.518 121.733 127.612C121.733 127.706 121.715 127.799 121.679 127.886C121.643 127.973 121.59 128.052 121.524 128.119C121.457 128.185 121.378 128.238 121.291 128.274C121.204 128.31 121.111 128.328 121.017 128.328Z" fill="#1CA686"/>
<path d="M137.822 131.255H87.8217C87.6317 131.255 87.4496 131.179 87.3152 131.045C87.1809 130.911 87.1055 130.728 87.1055 130.538C87.1055 130.349 87.1809 130.166 87.3152 130.032C87.4496 129.898 87.6317 129.822 87.8217 129.822H137.822C138.012 129.822 138.195 129.898 138.329 130.032C138.463 130.166 138.539 130.349 138.539 130.538C138.539 130.728 138.463 130.911 138.329 131.045C138.195 131.179 138.012 131.255 137.822 131.255Z" fill="#D6D6E3"/>
<path d="M150.232 47.4728H128.292C128.022 47.4728 127.76 47.3835 127.546 47.2187C127.333 47.054 127.179 46.8231 127.111 46.5621C127.042 46.3011 127.061 46.0247 127.166 45.776C127.271 45.5273 127.455 45.3203 127.69 45.1874C128.647 44.6457 129.164 43.6595 129.366 41.9902L129.82 37.8889C129.912 36.0601 130.47 34.2852 131.44 32.7324C132.41 31.1795 133.761 29.9002 135.364 29.0158C135.704 27.0086 137.292 24.9839 139.273 24.9839C141.379 24.9839 142.82 27.1547 143.152 29.0113C144.767 29.9046 146.125 31.1968 147.098 32.7645C148.071 34.3322 148.626 36.1231 148.71 37.9663L149.161 42.0022C149.362 43.66 149.877 44.646 150.834 45.1874C151.069 45.3203 151.253 45.5273 151.358 45.776C151.463 46.0247 151.482 46.3011 151.413 46.5621C151.345 46.8231 151.191 47.054 150.978 47.2187C150.764 47.3835 150.502 47.4728 150.232 47.4728ZM131.032 45.0285H147.492C147.086 44.163 146.83 43.235 146.733 42.2839L146.275 38.1583C146.215 36.6264 145.736 35.1402 144.891 33.8609C144.046 32.5815 142.867 31.5579 141.482 30.9009C141.273 30.802 141.096 30.6456 140.972 30.45C140.848 30.2544 140.782 30.0277 140.782 29.7962C140.782 28.7786 139.923 27.4293 139.274 27.4293C138.62 27.4293 137.754 28.7601 137.742 29.7752C137.746 30.0146 137.68 30.2498 137.551 30.4519C137.423 30.6539 137.238 30.8138 137.019 30.9118C135.65 31.5625 134.483 32.5734 133.644 33.8363C132.805 35.0991 132.325 36.5665 132.256 38.0812L131.794 42.2722C131.697 43.2273 131.439 44.1592 131.032 45.0285Z" fill="black"/>
<path d="M139.261 52.9575C137.847 52.9559 136.491 52.3932 135.49 51.3929C134.49 50.3927 133.927 49.0365 133.926 47.6219V46.2505C133.926 45.9263 134.055 45.6155 134.284 45.3863C134.513 45.1571 134.824 45.0283 135.148 45.0283C135.472 45.0283 135.783 45.1571 136.012 45.3863C136.241 45.6155 136.37 45.9263 136.37 46.2505V47.6216C136.37 48.0013 136.445 48.3773 136.59 48.728C136.736 49.0788 136.948 49.3976 137.217 49.666C137.485 49.9345 137.804 50.1475 138.155 50.2928C138.506 50.4381 138.882 50.5129 139.261 50.5129C139.641 50.5129 140.017 50.4381 140.368 50.2928C140.719 50.1475 141.037 49.9345 141.306 49.666C141.574 49.3976 141.787 49.0788 141.933 48.728C142.078 48.3773 142.153 48.0013 142.153 47.6216V46.2505C142.153 45.9263 142.281 45.6155 142.511 45.3863C142.74 45.1571 143.051 45.0283 143.375 45.0283C143.699 45.0283 144.01 45.1571 144.239 45.3863C144.468 45.6155 144.597 45.9263 144.597 46.2505V47.6216C144.595 49.0362 144.033 50.3925 143.033 51.3928C142.032 52.3932 140.676 52.9559 139.261 52.9575Z" fill="black"/>
<path d="M127.761 183.89C127.808 184.571 128.009 185.232 128.347 185.824C129.103 187.058 130.247 188.007 131.6 188.521C133.244 189.195 135.079 189.215 136.825 189.065C138.447 188.926 140.052 188.603 141.68 188.535C142.938 188.494 144.198 188.524 145.454 188.625C147.89 188.798 150.315 189.118 152.725 189.507C153.378 189.611 154.029 189.723 154.679 189.842C154.74 189.848 154.801 189.859 154.86 189.876C154.872 189.881 154.891 189.876 154.902 189.884C154.922 189.897 154.822 189.853 154.883 189.902C154.966 189.99 155.041 190.086 155.105 190.189L155.995 191.334C156.229 191.694 156.505 192.026 156.817 192.321C157.05 192.5 157.331 192.607 157.624 192.628C157.917 192.648 158.21 192.581 158.465 192.436C158.732 192.267 158.944 192.025 159.078 191.74C159.282 191.364 159.527 191.011 159.806 190.688C160.865 189.452 162.337 188.693 163.568 187.653C164.164 187.17 164.673 186.589 165.072 185.934C165.413 185.341 165.624 184.683 165.693 184.003C165.802 182.609 165.454 181.217 164.704 180.037C163.929 178.774 162.815 177.754 161.489 177.093C159.984 176.371 158.361 175.926 156.698 175.78C154.939 175.614 153.172 175.555 151.406 175.605C149.428 175.627 147.453 175.714 145.482 175.866C143.508 176.019 141.542 176.236 139.583 176.517C137.692 176.756 135.816 177.1 133.963 177.547C132.338 177.969 130.717 178.63 129.504 179.826C128.424 180.892 127.673 182.347 127.761 183.89Z" fill="#D6D6E3"/>
<path d="M136.346 178.338C134.592 178.662 132.756 179.058 131.284 180.018C129.828 180.967 128.943 182.459 129.029 183.82C129.155 185.807 131.268 187.293 133.192 187.682C135.035 188.055 136.955 187.803 138.987 187.535C139.438 187.476 139.902 187.415 140.362 187.362C145.366 186.783 154.76 188.565 155.157 188.641L155.57 188.72L157.757 191.534C158.288 190.428 159.069 189.459 160.038 188.706C160.459 188.37 160.898 188.058 161.323 187.756C162.406 186.986 163.428 186.258 163.993 185.258C165.223 183.082 163.77 180.047 161.697 178.685C159.363 177.15 156.284 176.909 153.306 176.877C152.996 176.874 152.685 176.872 152.375 176.872C147.002 176.873 141.641 177.363 136.358 178.335L136.346 178.338Z" fill="white"/>
<path d="M134.945 180.744C134.945 180.683 134.957 180.624 134.98 180.568C135.003 180.512 135.037 180.461 135.079 180.419C135.122 180.376 135.173 180.342 135.228 180.319C135.284 180.296 135.344 180.284 135.404 180.284H156.522C156.644 180.284 156.761 180.332 156.847 180.418C156.933 180.504 156.982 180.621 156.982 180.743C156.982 180.865 156.933 180.982 156.847 181.068C156.761 181.154 156.644 181.203 156.522 181.203H135.404C135.283 181.202 135.166 181.154 135.08 181.068C134.994 180.982 134.945 180.865 134.945 180.744Z" fill="#D6D6E3"/>
<path d="M134.945 183.564C134.945 183.504 134.957 183.444 134.98 183.388C135.003 183.332 135.037 183.282 135.079 183.239C135.122 183.196 135.173 183.162 135.228 183.139C135.284 183.116 135.344 183.104 135.404 183.104H156.523C156.645 183.104 156.762 183.152 156.848 183.239C156.934 183.325 156.983 183.442 156.983 183.563C156.983 183.685 156.934 183.802 156.848 183.888C156.762 183.974 156.645 184.023 156.523 184.023H135.404C135.283 184.023 135.166 183.974 135.08 183.888C134.994 183.802 134.945 183.686 134.945 183.564Z" fill="#D6D6E3"/>
<path d="M153.602 186.384C153.601 186.324 153.613 186.264 153.636 186.208C153.659 186.153 153.693 186.102 153.736 186.059C153.778 186.017 153.829 185.983 153.885 185.959C153.94 185.936 154 185.924 154.06 185.924H156.521C156.643 185.924 156.76 185.973 156.846 186.059C156.933 186.145 156.981 186.262 156.981 186.384C156.981 186.506 156.933 186.622 156.846 186.709C156.76 186.795 156.643 186.843 156.521 186.843H154.06C153.939 186.843 153.822 186.795 153.736 186.709C153.65 186.623 153.602 186.506 153.602 186.384Z" fill="#D6D6E3"/>
<path d="M119.056 185.702C119.045 185.702 119.033 185.702 119.021 185.702C118.872 185.686 118.731 185.629 118.611 185.539C118.492 185.448 118.399 185.327 118.343 185.188C117.819 184.128 117.143 183.152 116.336 182.289C115.865 181.786 115.373 181.32 114.897 180.868C113.669 179.704 112.512 178.607 111.87 177.092C110.471 173.788 112.119 169.187 114.474 167.122C117.115 164.808 120.589 164.445 123.949 164.397C124.298 164.392 124.648 164.39 124.997 164.39C131.081 164.396 137.143 165.136 143.05 166.591C145.03 167.079 147.103 167.675 148.769 169.124C150.424 170.563 151.431 172.831 151.333 174.9C151.189 177.921 148.788 180.179 146.601 180.768C144.516 181.33 142.351 180.951 140.059 180.548C139.553 180.46 139.03 180.368 138.512 180.288C132.889 179.421 122.325 182.092 121.878 182.207L121.434 182.32L119.714 185.273C119.653 185.397 119.559 185.502 119.444 185.578C119.328 185.654 119.194 185.697 119.056 185.704L119.056 185.702Z" fill="#1CA686"/>
<path d="M144.098 172.033H120.33C120.193 172.033 120.061 171.979 119.964 171.882C119.867 171.785 119.812 171.653 119.812 171.516C119.812 171.379 119.867 171.247 119.964 171.15C120.061 171.053 120.193 170.999 120.33 170.999H144.098C144.235 170.999 144.367 171.053 144.464 171.15C144.561 171.247 144.616 171.379 144.616 171.516C144.616 171.653 144.561 171.785 144.464 171.882C144.367 171.979 144.235 172.033 144.098 172.033Z" fill="white"/>
<path d="M144.098 175.208H120.33C120.193 175.208 120.061 175.153 119.964 175.056C119.867 174.959 119.812 174.828 119.812 174.691C119.812 174.553 119.867 174.422 119.964 174.325C120.061 174.228 120.193 174.173 120.33 174.173H144.099C144.237 174.173 144.368 174.228 144.465 174.325C144.562 174.422 144.617 174.553 144.617 174.691C144.617 174.828 144.562 174.959 144.465 175.056C144.368 175.153 144.237 175.208 144.099 175.208H144.098Z" fill="white"/>
<path d="M123.1 178.382H120.33C120.193 178.382 120.061 178.328 119.964 178.231C119.867 178.134 119.812 178.002 119.812 177.865C119.812 177.728 119.867 177.596 119.964 177.499C120.061 177.402 120.193 177.348 120.33 177.348H123.1C123.168 177.348 123.235 177.361 123.298 177.387C123.361 177.413 123.418 177.451 123.466 177.499C123.514 177.547 123.552 177.604 123.578 177.667C123.604 177.73 123.617 177.797 123.617 177.865C123.617 177.933 123.604 178 123.578 178.063C123.552 178.126 123.514 178.183 123.466 178.231C123.418 178.279 123.361 178.317 123.298 178.343C123.235 178.369 123.168 178.382 123.1 178.382Z" fill="white"/>
<path d="M0.00166955 211.749C-0.00846059 211.865 0.0277968 211.981 0.102579 212.071C0.177361 212.161 0.284638 212.218 0.401145 212.23H199.602C199.715 212.209 199.816 212.15 199.889 212.062C199.962 211.974 200.002 211.863 200.002 211.749C200.002 211.634 199.962 211.524 199.889 211.436C199.816 211.348 199.715 211.288 199.602 211.268H0.401145C0.284638 211.279 0.177361 211.336 0.102579 211.426C0.0277968 211.516 -0.00846059 211.632 0.00166955 211.749Z" fill="#F2F2F2"/>
</g>
<path d="M29.3309 249.575H28.3869L28.0189 240.135H29.6989L29.3309 249.575ZM28.0029 252.231V250.695H29.7149V252.231H28.0029ZM33.6999 240.359V249.287C33.6999 249.895 33.8172 250.327 34.0519 250.583C34.2972 250.829 34.7452 250.951 35.3959 250.951H35.8439L36.1639 251.271V251.911L35.8439 252.231H35.7639C35.1239 252.231 34.6012 252.151 34.1959 251.991C33.7905 251.821 33.4705 251.591 33.2359 251.303C33.0012 251.015 32.8359 250.679 32.7399 250.295C32.6545 249.901 32.6119 249.474 32.6119 249.015V240.359H33.6999ZM41.7958 250.951L42.1158 251.271V251.911L41.7958 252.231H35.8438L35.5237 251.911V251.271L35.8438 250.951H36.3238C37.0598 250.951 37.5664 250.813 37.8438 250.535C38.1318 250.258 38.2758 249.81 38.2758 249.191V245.111H39.3638V248.983C39.3638 249.495 39.3211 249.906 39.2358 250.215C39.1611 250.525 39.0171 250.77 38.8038 250.951H41.7958ZM36.2118 253.991C36.2118 253.767 36.2864 253.575 36.4358 253.415C36.5958 253.255 36.7878 253.175 37.0118 253.175C37.2358 253.175 37.4278 253.255 37.5878 253.415C37.7478 253.575 37.8278 253.767 37.8278 253.991C37.8278 254.215 37.7478 254.402 37.5878 254.551C37.4278 254.711 37.2358 254.791 37.0118 254.791C36.7878 254.791 36.5958 254.711 36.4358 254.551C36.2864 254.402 36.2118 254.215 36.2118 253.991ZM38.5478 253.991C38.5478 253.767 38.6224 253.575 38.7718 253.415C38.9211 253.255 39.1024 253.175 39.3158 253.175C39.5504 253.175 39.7478 253.255 39.9078 253.415C40.0678 253.575 40.1478 253.767 40.1478 253.991C40.1478 254.215 40.0678 254.402 39.9078 254.551C39.7478 254.711 39.5504 254.791 39.3158 254.791C39.1024 254.791 38.9211 254.711 38.7718 254.551C38.6224 254.402 38.5478 254.215 38.5478 253.991ZM44.9969 249.015C44.9969 249.474 44.9542 249.901 44.8689 250.295C44.7835 250.679 44.6235 251.015 44.3889 251.303C44.1542 251.591 43.8342 251.821 43.4289 251.991C43.0342 252.151 42.5169 252.231 41.8769 252.231H41.7969L41.4769 251.911V251.271L41.7969 250.951H42.2769C42.6075 250.951 42.8795 250.909 43.0929 250.823C43.3062 250.738 43.4715 250.621 43.5889 250.471C43.7169 250.322 43.8022 250.146 43.8449 249.943C43.8875 249.741 43.9089 249.522 43.9089 249.287V240.359H44.9969V249.015ZM49.4499 240.359V249.287C49.4499 249.895 49.5672 250.327 49.8019 250.583C50.0472 250.829 50.4952 250.951 51.1459 250.951H51.5939L51.9139 251.271V251.911L51.5939 252.231H51.5139C50.8739 252.231 50.3512 252.151 49.9459 251.991C49.5405 251.821 49.2205 251.591 48.9859 251.303C48.7512 251.015 48.5859 250.679 48.4899 250.295C48.4045 249.901 48.3619 249.474 48.3619 249.015V240.359H49.4499ZM60.5218 250.951C60.2018 250.077 59.8391 249.346 59.4338 248.759C59.0391 248.173 58.6231 247.703 58.1858 247.351C57.7484 246.999 57.2951 246.754 56.8258 246.615C56.3564 246.466 55.8924 246.391 55.4338 246.391C55.1564 246.391 54.8471 246.445 54.5058 246.551C54.1644 246.647 53.8178 246.818 53.4658 247.063L52.8578 245.975C53.3378 245.634 53.8018 245.405 54.2498 245.287C54.6978 245.17 55.1458 245.111 55.5938 245.111C56.2124 245.111 56.8098 245.223 57.3858 245.447C57.9724 245.661 58.5271 246.007 59.0498 246.487C59.5831 246.967 60.0738 247.591 60.5218 248.359C60.9804 249.127 61.3964 250.061 61.7698 251.159L61.1458 252.231H51.5938L51.2737 251.911V251.271L51.5938 250.951H60.5218ZM75.2625 250.951C75.5932 250.951 75.8652 250.914 76.0785 250.839C76.3025 250.765 76.4732 250.663 76.5905 250.535C76.7185 250.397 76.8038 250.231 76.8465 250.039C76.8998 249.837 76.9265 249.607 76.9265 249.351V245.111H78.0145V249.079C78.0145 249.581 77.9612 250.029 77.8545 250.423C77.7585 250.807 77.5878 251.133 77.3425 251.399C77.1078 251.666 76.7878 251.874 76.3825 252.023C75.9772 252.162 75.4705 252.231 74.8625 252.231H70.4465C69.7425 252.231 69.1398 252.151 68.6385 251.991C68.1478 251.831 67.7478 251.607 67.4385 251.319C67.1398 251.021 66.9212 250.669 66.7825 250.263C66.6438 249.847 66.5745 249.389 66.5745 248.887C66.5745 248.343 66.6225 247.837 66.7185 247.367C66.8145 246.887 66.9638 246.365 67.1665 245.799L68.2065 246.119C68.0145 246.631 67.8758 247.095 67.7905 247.511C67.7052 247.927 67.6625 248.37 67.6625 248.839C67.6625 249.191 67.6998 249.501 67.7745 249.767C67.8598 250.034 68.0145 250.258 68.2385 250.439C68.4732 250.61 68.7932 250.738 69.1985 250.823C69.6145 250.909 70.1478 250.951 70.7985 250.951H75.2625ZM70.7185 243.591C70.7185 243.367 70.7932 243.175 70.9425 243.015C71.1025 242.855 71.2945 242.775 71.5185 242.775C71.7425 242.775 71.9345 242.855 72.0945 243.015C72.2545 243.175 72.3345 243.367 72.3345 243.591C72.3345 243.815 72.2545 244.007 72.0945 244.167C71.9345 244.317 71.7425 244.391 71.5185 244.391C71.2945 244.391 71.1025 244.317 70.9425 244.167C70.7932 244.007 70.7185 243.815 70.7185 243.591ZM73.0545 243.591C73.0545 243.367 73.1292 243.175 73.2785 243.015C73.4278 242.855 73.6092 242.775 73.8225 242.775C74.0572 242.775 74.2545 242.855 74.4145 243.015C74.5745 243.175 74.6545 243.367 74.6545 243.591C74.6545 243.815 74.5745 244.007 74.4145 244.167C74.2545 244.317 74.0572 244.391 73.8225 244.391C73.6092 244.391 73.4278 244.317 73.2785 244.167C73.1292 244.007 73.0545 243.815 73.0545 243.591ZM80.2838 252.231V240.359H81.3718V252.231H80.2838ZM86.8483 250.807C86.8483 251.607 86.7843 252.322 86.6562 252.951C86.5389 253.581 86.3256 254.109 86.0163 254.535C85.7069 254.973 85.2909 255.303 84.7682 255.527C84.2456 255.762 83.5789 255.879 82.7683 255.879L82.6082 254.615C83.2376 254.615 83.7549 254.551 84.1603 254.423C84.5656 254.295 84.8856 254.082 85.1203 253.783C85.3656 253.495 85.5309 253.117 85.6163 252.647C85.7123 252.189 85.7603 251.623 85.7603 250.951V245.111H86.8483V250.807ZM90.8093 240.359V249.287C90.8093 249.895 90.9266 250.327 91.1613 250.583C91.4066 250.829 91.8546 250.951 92.5052 250.951H92.9533L93.2733 251.271V251.911L92.9533 252.231H92.8733C92.2333 252.231 91.7106 252.151 91.3053 251.991C90.8999 251.821 90.5799 251.591 90.3453 251.303C90.1106 251.015 89.9453 250.679 89.8493 250.295C89.7639 249.901 89.7213 249.474 89.7213 249.015V240.359H90.8093ZM92.9531 252.231L92.6331 251.911V251.271L92.9531 250.951H94.0091C94.5425 250.951 95.0545 250.919 95.5451 250.855C96.0465 250.781 96.5051 250.685 96.9211 250.567C95.9611 249.735 95.2678 249.005 94.8411 248.375C94.4145 247.735 94.2011 247.277 94.2011 246.999C94.2011 246.914 94.2331 246.797 94.2971 246.647C94.3611 246.487 94.4411 246.322 94.5371 246.151C94.6331 245.981 94.7345 245.815 94.8411 245.655C94.9478 245.495 95.0438 245.367 95.1291 245.271C95.3105 245.058 95.6678 244.898 96.2011 244.791C96.7451 244.685 97.3958 244.631 98.1531 244.631C99.4438 244.631 100.414 244.802 101.065 245.143C101.726 245.474 102.057 245.997 102.057 246.711C102.057 247.095 101.998 247.458 101.881 247.799C101.774 248.13 101.609 248.45 101.385 248.759C101.172 249.069 100.9 249.373 100.569 249.671C100.238 249.959 99.8545 250.258 99.4171 250.567C99.8118 250.706 100.26 250.807 100.761 250.871C101.262 250.925 101.849 250.951 102.521 250.951H103.529L103.849 251.271V251.911L103.529 252.231H102.841C102.286 252.231 101.785 252.21 101.337 252.167C100.889 252.125 100.473 252.066 100.089 251.991C99.7051 251.906 99.3478 251.805 99.0171 251.687C98.6865 251.559 98.3718 251.41 98.0731 251.239C97.4225 251.549 96.6971 251.794 95.8971 251.975C95.0971 252.146 94.2705 252.231 93.4171 252.231H92.9531ZM95.3531 246.631C95.3531 246.749 95.3905 246.909 95.4651 247.111C95.5505 247.303 95.6945 247.543 95.8971 247.831C96.1105 248.119 96.3985 248.455 96.7611 248.839C97.1238 249.223 97.5878 249.655 98.1531 250.135C98.6865 249.805 99.1291 249.501 99.4811 249.223C99.8331 248.935 100.116 248.669 100.329 248.423C100.542 248.167 100.692 247.933 100.777 247.719C100.862 247.495 100.905 247.282 100.905 247.079C100.905 246.706 100.649 246.418 100.137 246.215C99.6358 246.013 98.9745 245.911 98.1531 245.911C97.5558 245.911 97.0705 245.938 96.6971 245.991C96.3345 246.034 96.0518 246.093 95.8491 246.167C95.6465 246.242 95.5131 246.322 95.4491 246.407C95.3851 246.493 95.3531 246.567 95.3531 246.631ZM103.227 251.911V251.271L103.547 250.951H103.851C104.587 250.951 105.094 250.813 105.371 250.535C105.659 250.258 105.803 249.81 105.803 249.191V245.111H106.891V248.983C106.891 249.495 106.848 249.906 106.763 250.215C106.688 250.525 106.544 250.77 106.331 250.951H108.763C109.499 250.951 110.006 250.813 110.283 250.535C110.571 250.258 110.715 249.81 110.715 249.191V245.111H111.803V248.983C111.803 249.495 111.76 249.906 111.675 250.215C111.6 250.525 111.456 250.77 111.243 250.951H113.099C113.835 250.951 114.342 250.813 114.619 250.535C114.907 250.258 115.051 249.81 115.051 249.191V244.615H116.139V248.983C116.139 250.093 115.856 250.914 115.291 251.447C114.726 251.97 113.771 252.231 112.427 252.231H103.547L103.227 251.911ZM109.291 242.711C109.291 242.487 109.366 242.295 109.515 242.135C109.675 241.975 109.867 241.895 110.091 241.895C110.315 241.895 110.507 241.975 110.667 242.135C110.827 242.295 110.907 242.487 110.907 242.711C110.907 242.935 110.827 243.127 110.667 243.287C110.507 243.437 110.315 243.511 110.091 243.511C109.867 243.511 109.675 243.437 109.515 243.287C109.366 243.127 109.291 242.935 109.291 242.711ZM111.627 242.711C111.627 242.487 111.702 242.295 111.851 242.135C112 241.975 112.182 241.895 112.395 241.895C112.63 241.895 112.827 241.975 112.987 242.135C113.147 242.295 113.227 242.487 113.227 242.711C113.227 242.935 113.147 243.127 112.987 243.287C112.827 243.437 112.63 243.511 112.395 243.511C112.182 243.511 112 243.437 111.851 243.287C111.702 243.127 111.627 242.935 111.627 242.711ZM110.443 240.679C110.443 240.445 110.523 240.247 110.683 240.087C110.843 239.927 111.03 239.847 111.243 239.847C111.478 239.847 111.675 239.927 111.835 240.087C111.995 240.247 112.075 240.445 112.075 240.679C112.075 240.893 111.995 241.079 111.835 241.239C111.675 241.399 111.478 241.479 111.243 241.479C111.03 241.479 110.843 241.399 110.683 241.239C110.523 241.079 110.443 240.893 110.443 240.679ZM118.706 250.951V240.359H119.794V250.951H118.706ZM121.282 254.327C121.186 254.615 121.116 254.797 121.074 254.871C121.031 254.946 120.967 255.005 120.882 255.047C120.839 255.069 120.727 255.079 120.546 255.079C120.364 255.09 120.146 255.095 119.89 255.095C119.634 255.095 119.362 255.095 119.074 255.095C118.786 255.095 118.519 255.09 118.274 255.079C117.996 255.069 117.719 255.058 117.442 255.047V254.279H118.258C118.119 254.13 118.012 253.965 117.938 253.783C117.863 253.602 117.826 253.426 117.826 253.255C117.826 253.063 117.863 252.866 117.938 252.663C118.023 252.471 118.14 252.295 118.29 252.135C118.439 251.975 118.615 251.847 118.818 251.751C119.031 251.645 119.266 251.591 119.522 251.591C119.714 251.591 119.9 251.613 120.082 251.655C120.263 251.687 120.46 251.757 120.674 251.863L120.386 252.775C120.194 252.679 120.012 252.61 119.842 252.567C119.671 252.535 119.511 252.519 119.362 252.519C119.116 252.519 118.924 252.583 118.786 252.711C118.658 252.839 118.594 252.973 118.594 253.111C118.594 253.207 118.615 253.314 118.658 253.431C118.711 253.549 118.786 253.661 118.882 253.767C118.978 253.874 119.095 253.959 119.234 254.023C119.383 254.098 119.554 254.135 119.746 254.135H119.97C120.418 254.135 120.892 254.087 121.394 253.991L121.282 254.327ZM133.124 250.951L133.444 251.271V251.911L133.124 252.231H125.22L125.604 250.951H130.836C130.836 249.586 130.478 248.503 129.764 247.703C129.049 246.893 128.009 246.386 126.644 246.183L127.076 244.951C128.633 245.239 129.828 245.885 130.66 246.887C131.502 247.89 131.924 249.245 131.924 250.951H133.124ZM142.053 250.951C141.733 250.077 141.37 249.346 140.965 248.759C140.57 248.173 140.154 247.703 139.717 247.351C139.28 246.999 138.826 246.754 138.357 246.615C137.888 246.466 137.424 246.391 136.965 246.391C136.688 246.391 136.378 246.445 136.037 246.551C135.696 246.647 135.349 246.818 134.997 247.063L134.389 245.975C134.869 245.634 135.333 245.405 135.781 245.287C136.229 245.17 136.677 245.111 137.125 245.111C137.744 245.111 138.341 245.223 138.917 245.447C139.504 245.661 140.058 246.007 140.581 246.487C141.114 246.967 141.605 247.591 142.053 248.359C142.512 249.127 142.928 250.061 143.301 251.159L142.677 252.231H133.125L132.805 251.911V251.271L133.125 250.951H142.053ZM137.349 253.991C137.349 253.767 137.424 253.575 137.573 253.415C137.733 253.255 137.925 253.175 138.149 253.175C138.373 253.175 138.565 253.255 138.725 253.415C138.885 253.575 138.965 253.767 138.965 253.991C138.965 254.215 138.885 254.402 138.725 254.551C138.565 254.711 138.373 254.791 138.149 254.791C137.925 254.791 137.733 254.711 137.573 254.551C137.424 254.402 137.349 254.215 137.349 253.991ZM151.372 250.167C151.372 250.306 151.367 250.445 151.356 250.583C151.356 250.711 151.351 250.834 151.34 250.951H152.844L153.148 251.271V251.911L152.844 252.231H151.164C150.887 253.522 150.332 254.45 149.5 255.015C148.668 255.591 147.623 255.879 146.364 255.879L146.204 254.599C147.314 254.599 148.172 254.418 148.78 254.055C149.399 253.693 149.831 253.085 150.076 252.231H148.62C147.863 252.231 147.244 252.162 146.764 252.023C146.295 251.885 145.927 251.698 145.66 251.463C145.404 251.229 145.228 250.962 145.132 250.663C145.036 250.354 144.988 250.029 144.988 249.687C144.988 249.101 145.084 248.53 145.276 247.975C145.479 247.41 145.74 246.909 146.06 246.471C146.391 246.034 146.759 245.687 147.164 245.431C147.58 245.165 147.996 245.031 148.412 245.031C148.882 245.031 149.298 245.181 149.66 245.479C150.034 245.767 150.343 246.151 150.588 246.631C150.844 247.111 151.036 247.661 151.164 248.279C151.303 248.898 151.372 249.527 151.372 250.167ZM146.076 249.351C146.076 249.586 146.108 249.799 146.172 249.991C146.236 250.183 146.364 250.354 146.556 250.503C146.759 250.642 147.047 250.754 147.42 250.839C147.804 250.914 148.316 250.951 148.956 250.951H150.268C150.279 250.898 150.284 250.818 150.284 250.711C150.284 250.594 150.284 250.503 150.284 250.439C150.284 249.895 150.236 249.378 150.14 248.887C150.055 248.386 149.922 247.943 149.74 247.559C149.57 247.175 149.356 246.871 149.1 246.647C148.844 246.423 148.551 246.311 148.22 246.311C147.964 246.311 147.708 246.402 147.452 246.583C147.196 246.754 146.967 246.983 146.764 247.271C146.562 247.559 146.396 247.885 146.268 248.247C146.14 248.61 146.076 248.978 146.076 249.351ZM156.236 249.079C156.236 249.581 156.182 250.029 156.076 250.423C155.98 250.807 155.809 251.133 155.564 251.399C155.329 251.666 155.009 251.874 154.604 252.023C154.209 252.162 153.708 252.231 153.1 252.231H152.844L152.524 251.911V251.271L152.844 250.951H153.452C154.124 250.951 154.572 250.813 154.796 250.535C155.03 250.258 155.148 249.842 155.148 249.287V245.111H156.236V249.079ZM152.54 253.991C152.54 253.767 152.62 253.575 152.78 253.415C152.929 253.255 153.116 253.175 153.34 253.175C153.564 253.175 153.756 253.255 153.916 253.415C154.076 253.575 154.156 253.767 154.156 253.991C154.156 254.215 154.076 254.402 153.916 254.551C153.756 254.711 153.564 254.791 153.34 254.791C153.116 254.791 152.929 254.711 152.78 254.551C152.62 254.402 152.54 254.215 152.54 253.991ZM154.876 253.991C154.876 253.767 154.95 253.575 155.1 253.415C155.249 253.255 155.43 253.175 155.644 253.175C155.878 253.175 156.076 253.255 156.236 253.415C156.396 253.575 156.476 253.767 156.476 253.991C156.476 254.215 156.396 254.402 156.236 254.551C156.076 254.711 155.878 254.791 155.644 254.791C155.43 254.791 155.249 254.711 155.1 254.551C154.95 254.402 154.876 254.215 154.876 253.991ZM166.613 250.951L165.589 244.679L166.709 244.407L167.717 250.951H169.173C169.482 250.951 169.728 250.925 169.909 250.871C170.101 250.807 170.25 250.711 170.357 250.583C170.464 250.455 170.533 250.295 170.565 250.103C170.597 249.901 170.613 249.666 170.613 249.399V240.359H171.701V249.095C171.701 249.554 171.658 249.975 171.573 250.359C171.498 250.743 171.349 251.074 171.125 251.351C170.912 251.629 170.618 251.847 170.245 252.007C169.872 252.157 169.392 252.231 168.805 252.231H161.765V250.951H166.613Z" fill="#444B49"/>
<defs>
<clipPath id="clip0_890_36497">
<rect width="200" height="212.24" fill="white" transform="translate(0 -0.00830078)"/>
</clipPath>
</defs>
</svg>
