<svg width="42" height="41" viewBox="0 0 42 41" fill="none" xmlns="http://www.w3.org/2000/svg">
<path d="M8.4359 24.7112H2.24542L1 20.0764L2.24542 16.2261M8.4359 24.7112L13.674 20.433M8.4359 24.7112H14.8462L15.652 22.0016L13.674 20.433M13.674 20.433L8.10623 16.2261H2.24542M13.674 20.433L15.652 18.7217L14.8462 16.2261H2.24542" stroke="#1CA686" stroke-width="1.875"/>
<path d="M7.9032 16.6908L2.895 13.1493L4.68641 8.68728L8.01929 6.28475M7.9032 16.6908L14.7246 16.2263M7.9032 16.6908L13.0892 20.358L15.3775 18.627L14.7246 16.2263M14.7246 16.2263L12.7608 9.63763L8.01929 6.28475M14.7246 16.2263L17.3583 15.9735L18.2135 13.4934L8.01929 6.28475" stroke="#1CA686" stroke-width="1.875"/>
<path d="M12.6394 10.259L10.7264 4.52877L14.8704 1.94374L19.0177 1.90673M12.6394 10.259L18.4385 13.7856M12.6394 10.259L14.6202 16.1927L17.5169 16.1013L18.4385 13.7856M18.4385 13.7856L20.8288 7.33181L19.0177 1.90673M18.4385 13.7856L20.7219 15.0878L22.9115 13.5706L19.0177 1.90673" stroke="#1CA686" stroke-width="1.875"/>
<path d="M20.4109 7.49442L22.3239 1.76419L27.2376 2.04357L30.6151 4.38623M20.4109 7.49442L22.9727 13.6651M20.4109 7.49442L18.43 13.4281L20.8286 15.0113L22.9727 13.6651M22.9727 13.6651L28.8041 9.8113L30.6151 4.38623M22.9727 13.6651L24.0337 16.0249L26.7213 16.0501L30.6151 4.38623" stroke="#1CA686" stroke-width="1.875"/>
<path d="M28.4576 9.75462L33.4658 6.21314L37.2724 9.25022L38.5901 13.0777M28.4576 9.75462L26.8036 16.2124M28.4576 9.75462L23.2716 13.4218L24.256 16.0749L26.8036 16.2124M26.8036 16.2124L33.8486 16.4306L38.5901 13.0777M26.8036 16.2124L26.2368 18.7284L28.3959 20.2864L38.5901 13.0777" stroke="#1CA686" stroke-width="1.875"/>
<path d="M33.5641 16.2259H39.7546L41 20.8606L39.7546 24.7109M33.5641 16.2259L28.326 20.504M33.5641 16.2259H27.1538L26.348 18.9354L28.326 20.504M28.326 20.504L33.8938 24.7109H39.7546M28.326 20.504L26.348 22.2153L27.1538 24.7109H39.7546" stroke="#1CA686" stroke-width="1.875"/>
<path d="M33.8741 24.4606L38.8823 28.002L37.0909 32.4641L33.7581 34.8666M33.8741 24.4606L27.0528 24.9251M33.8741 24.4606L28.6881 20.7933L26.3999 22.5244L27.0528 24.9251M27.0528 24.9251L29.0166 31.5137L33.7581 34.8666M27.0528 24.9251L24.419 25.1779L23.5639 27.6579L33.7581 34.8666" stroke="#1CA686" stroke-width="1.875"/>
<path d="M29.1419 31.1062L31.0548 36.8365L26.9109 39.4215L22.7636 39.4585M29.1419 31.1062L23.3428 27.5796M29.1419 31.1062L27.161 25.1726L24.2643 25.2639L23.3428 27.5796M23.3428 27.5796L20.9525 34.0334L22.7636 39.4585M23.3428 27.5796L21.0593 26.2775L18.8697 27.7946L22.7636 39.4585" stroke="#1CA686" stroke-width="1.875"/>
<path d="M21.2961 33.6569L19.3832 39.3872L14.4695 39.1078L11.0919 36.7651M21.2961 33.6569L18.7343 27.4863M21.2961 33.6569L23.277 27.7233L20.8784 26.14L18.7343 27.4863M18.7343 27.4863L12.903 31.3401L11.0919 36.7651M18.7343 27.4863L17.6734 25.1265L14.9857 25.1012L11.0919 36.7651" stroke="#1CA686" stroke-width="1.875"/>
<path d="M13.3197 31.325L8.31154 34.8664L4.50499 31.8294L3.18725 28.0019M13.3197 31.325L14.9738 24.8672M13.3197 31.325L18.5057 27.6578L17.5214 25.0047L14.9738 24.8672M14.9738 24.8672L7.92875 24.649L3.18725 28.0019M14.9738 24.8672L15.5406 22.3512L13.3815 20.7932L3.18725 28.0019" stroke="#1CA686" stroke-width="1.875"/>
</svg>
