<svg width="32" height="33" viewBox="0 0 32 33" fill="none" xmlns="http://www.w3.org/2000/svg">
<path d="M2.66699 13.4445C2.66699 8.41618 2.66699 5.90203 4.22909 4.33993C5.79119 2.77783 8.30534 2.77783 13.3337 2.77783H18.667C23.6953 2.77783 26.2095 2.77783 27.7715 4.33993C29.3337 5.90203 29.3337 8.41618 29.3337 13.4445V14.7778C29.3337 18.549 29.3337 20.4346 28.1621 21.6062C26.9905 22.7778 25.1049 22.7778 21.3337 22.7778H10.667C6.89575 22.7778 5.01014 22.7778 3.83857 21.6062C2.66699 20.4346 2.66699 18.549 2.66699 14.7778V13.4445Z" stroke="#1CA686" stroke-width="2"/>
<path d="M21.3337 29.4448H10.667" stroke="#1CA686" stroke-width="2" stroke-linecap="round"/>
<path d="M16 22.7778V29.4445" stroke="#1CA686" stroke-width="2" stroke-linecap="round"/>
<path d="M29.3337 17.4448H2.66699" stroke="#1CA686" stroke-width="2" stroke-linecap="round"/>
</svg>
