<svg width="32" height="33" viewBox="0 0 32 33" fill="none" xmlns="http://www.w3.org/2000/svg">
<path d="M5.33301 13.4445C5.33301 8.41618 5.33301 5.90203 6.8951 4.33993C8.45721 2.77783 10.9714 2.77783 15.9997 2.77783C21.0279 2.77783 23.5422 2.77783 25.1042 4.33993C26.6663 5.90203 26.6663 8.41618 26.6663 13.4445V18.7778C26.6663 23.8061 26.6663 26.3204 25.1042 27.8824C23.5422 29.4445 21.0279 29.4445 15.9997 29.4445C10.9714 29.4445 8.45721 29.4445 6.8951 27.8824C5.33301 26.3204 5.33301 23.8061 5.33301 18.7778V13.4445Z" stroke="#1CA686" stroke-width="2"/>
<path d="M20 25.4448H12" stroke="#1CA686" stroke-width="2" stroke-linecap="round"/>
<path d="M22.3309 3.28174L22.2187 3.44997C21.2106 4.96207 20.7066 5.71816 19.9703 6.17564C19.8239 6.2666 19.6718 6.34802 19.515 6.41937C18.7259 6.77817 17.8173 6.77816 15.9999 6.77816C14.1825 6.77816 13.2739 6.77817 12.4848 6.41937C12.3279 6.34802 12.1758 6.2666 12.0294 6.17564C11.2932 5.71815 10.7892 4.9621 9.78109 3.44997L9.66895 3.28174" stroke="#1CA686" stroke-width="2" stroke-linecap="round"/>
</svg>
