<svg width="200" height="201" viewBox="0 0 200 201" fill="none" xmlns="http://www.w3.org/2000/svg">
<path d="M99.9993 183.941C146.023 183.941 183.333 146.631 183.333 100.607C183.333 54.5835 146.023 17.2739 99.9993 17.2739C53.9756 17.2739 16.666 54.5835 16.666 100.607C16.666 146.631 53.9756 183.941 99.9993 183.941Z" stroke="#FBFEFD" stroke-width="5"/>
<path d="M84 82.2363C84 73.6069 90.9958 66.6113 99.625 66.6113C108.254 66.6113 115.25 73.6069 115.25 82.2363C115.25 87.9651 112.167 92.9738 107.57 95.6938C103.608 98.0372 99.625 101.592 99.625 106.195V116.611" stroke="#FBFEFD" stroke-width="5" stroke-linecap="round"/>
<path d="M99.624 134.611C101.281 134.611 102.624 133.268 102.624 131.611C102.624 129.954 101.281 128.611 99.624 128.611C97.9672 128.611 96.624 129.954 96.624 131.611C96.624 133.268 97.9672 134.611 99.624 134.611Z" fill="#FBFEFD"/>
</svg>
