<svg width="200" height="201" viewBox="0 0 200 201" fill="none" xmlns="http://www.w3.org/2000/svg">
<path d="M25 87.417C25 60.7701 25 47.4468 28.146 42.9646C31.2919 38.4823 43.8193 34.1942 68.8742 25.6177L73.6477 23.9838C86.7083 19.5132 93.2383 17.2778 100 17.2778C106.762 17.2778 113.292 19.5132 126.352 23.9838L131.126 25.6177C156.181 34.1942 168.708 38.4823 171.854 42.9646C175 47.4468 175 60.7701 175 87.417C175 91.4412 175 95.8062 175 100.539C175 147.523 139.675 170.324 117.512 180.005C111.5 182.631 108.494 183.944 100 183.944C91.5058 183.944 88.5 182.631 82.488 180.005C60.3247 170.324 25 147.523 25 100.539C25 95.8062 25 91.4412 25 87.417Z" stroke="#1CA686" stroke-width="5"/>
<path d="M100.001 74.6113V107.945" stroke="#1CA686" stroke-width="5" stroke-linecap="round"/>
<path d="M100 125.945C101.657 125.945 103 124.602 103 122.945C103 121.288 101.657 119.945 100 119.945C98.3431 119.945 97 121.288 97 122.945C97 124.602 98.3431 125.945 100 125.945Z" fill="#1CA686"/>
</svg>
