<svg width="300" height="355" viewBox="0 0 300 355" fill="none" xmlns="http://www.w3.org/2000/svg">
<g clip-path="url(#clip0_931_40357)">
<path d="M202.221 199.183H94.6025C85.5565 199.183 78.1973 191.824 78.1973 182.778V75.1596C78.1973 66.1137 85.5565 58.7544 94.6025 58.7544H202.221C211.266 58.7544 218.626 66.1137 218.626 75.1596V182.778C218.626 191.824 211.266 199.183 202.221 199.183ZM94.6025 61.3792C86.9918 61.3792 80.8221 67.5489 80.8221 75.1596V182.778C80.8221 190.388 86.9918 196.558 94.6025 196.558H169.986C195.399 196.558 216.001 175.957 216.001 150.543V75.1596C216.001 67.5489 209.831 61.3792 202.221 61.3792L94.6025 61.3792Z" fill="#F2F2F2"/>
<path d="M106.206 72.5698C101.112 72.5698 96.9688 76.7134 96.9688 81.8069V96.2649C96.9688 101.358 101.112 105.502 106.206 105.502H120.664C125.757 105.502 129.901 101.358 129.901 96.2649V81.8069C129.901 76.7134 125.757 72.5698 120.664 72.5698H106.206Z" fill="#F2F2F2"/>
<path d="M106.206 113.271C101.112 113.271 96.9688 117.415 96.9688 122.509V136.967C96.9688 142.06 101.112 146.204 106.206 146.204H120.664C125.757 146.204 129.901 142.06 129.901 136.967V122.509C129.901 117.415 125.757 113.271 120.664 113.271H106.206Z" fill="#F2F2F2"/>
<path d="M106.206 153.972C101.112 153.972 96.9688 158.116 96.9688 163.209V177.667C96.9688 182.761 101.112 186.904 106.206 186.904H120.664C125.757 186.904 129.901 182.761 129.901 177.667V163.209C129.901 158.116 125.757 153.972 120.664 153.972H106.206Z" fill="#F2F2F2"/>
<path d="M115.792 37.2959C109.374 37.2959 104.153 42.5169 104.153 48.9348V67.1523C104.153 73.5703 109.374 78.7913 115.792 78.7913H134.01C140.428 78.7913 145.649 73.5703 145.649 67.1523V48.9348C145.649 42.5169 140.428 37.2959 134.01 37.2959H115.792Z" fill="#1CA686"/>
<path d="M175.769 88.2065C169.351 88.2065 164.13 93.4276 164.13 99.8455V118.063C164.13 124.481 169.351 129.702 175.769 129.702H193.986C200.404 129.702 205.625 124.481 205.625 118.063V99.8455C205.625 93.4276 200.404 88.2065 193.986 88.2065H175.769Z" fill="#1CA686"/>
<path d="M149.694 271.573L145.993 271.541L144.354 256.934L149.817 256.98L149.694 271.573Z" fill="#A0616A"/>
<path d="M137.839 277.457C137.831 278.368 138.565 279.118 139.479 279.126L146.838 279.188L148.126 276.577L148.599 279.201L151.375 279.226L150.674 269.866L149.708 269.802L145.768 269.53L144.497 269.445L144.475 272.093L138.564 276.102C138.114 276.408 137.843 276.914 137.839 277.457Z" fill="#2F2E41"/>
<path d="M168.525 271.573L164.824 271.541L163.186 256.934L168.648 256.98L168.525 271.573Z" fill="#A0616A"/>
<path d="M156.67 277.457C156.662 278.368 157.396 279.118 158.31 279.126L165.669 279.188L166.957 276.577L167.43 279.201L170.206 279.226L169.505 269.866L168.539 269.802L164.599 269.53L163.328 269.445L163.306 272.093L157.395 276.102C156.945 276.408 156.674 276.914 156.67 277.457Z" fill="#2F2E41"/>
<path d="M135.172 153.469L150.173 153.942L164.385 157.101C164.385 157.101 162.964 158.838 167.701 163.575C167.701 163.575 174.018 174.629 169.596 185.367L167.701 228.319C167.701 228.319 173.226 258.597 169.005 268.234L163.426 268.582L153.985 228.668L149.384 185.683L147.173 228.003C147.173 228.003 155.63 257.051 150.29 268.582L144.247 268.234L133.908 228.003C133.908 228.003 129.487 181.577 130.118 172.734C130.75 163.891 135.172 153.469 135.172 153.469Z" fill="#2F2E41"/>
<path d="M185.55 85.598C183.499 86.129 182.267 88.222 182.798 90.2727C183.041 91.2124 183.615 91.9769 184.36 92.4819L184.36 92.4871L184.069 99.5338L189.461 102.029L189.891 91.1857L189.854 91.1868C190.321 90.3538 190.483 89.3475 190.225 88.3497C189.694 86.299 187.601 85.067 185.55 85.598Z" fill="#A0616A"/>
<path d="M155.411 110.747C154.278 109.624 153.621 108.102 153.596 106.447C153.563 104.226 154.676 102.21 156.573 101.055C158.758 99.7244 161.49 99.859 163.533 101.397L180.466 114.147L183.484 95.7803L189.962 97.8656L188.416 121.782C188.308 123.454 187.362 124.928 185.887 125.724C184.411 126.519 182.66 126.499 181.203 125.67L156.732 111.748C156.241 111.468 155.798 111.131 155.411 110.747Z" fill="#3F3D56"/>
<path d="M129.591 75.3246C130.674 77.1455 130.075 79.4992 128.254 80.5817C127.42 81.0777 126.474 81.2169 125.59 81.0511L125.586 81.055L120.832 86.2639L115.245 84.2395L122.574 76.236L122.6 76.2632C122.854 75.3425 123.448 74.5141 124.334 73.9874C126.155 72.9049 128.509 73.5036 129.591 75.3246Z" fill="#A0616A"/>
<path d="M131.645 114.183L104.465 106.842C102.847 106.404 101.589 105.186 101.101 103.582C100.614 101.978 100.98 100.266 102.081 99.0017L117.821 80.9297L123.89 84.0096L113.101 99.1769L134.103 102.045C136.637 102.391 138.672 104.219 139.286 106.702C139.82 108.858 139.191 111.073 137.604 112.627C136.421 113.785 134.883 114.403 133.288 114.403C132.743 114.403 132.191 114.331 131.645 114.183Z" fill="#3F3D56"/>
<path d="M170.396 159.788L132.387 161.531C131.343 159.946 131.626 157.562 133.088 154.578C138.608 143.308 134.416 121.987 131.596 110.885C130.804 107.77 132.928 104.674 136.126 104.354L139.71 103.996L143.023 93.8833H154.624L159.438 99.3821L167.606 104.344C166.119 119.659 159.784 141.285 168.809 152.13C170.783 154.502 171.343 157.067 170.396 159.788Z" fill="#3F3D56"/>
<path d="M147.347 94.1173C153.589 94.1173 158.648 89.0578 158.648 82.8167C158.648 76.5756 153.589 71.5161 147.347 71.5161C141.106 71.5161 136.047 76.5756 136.047 82.8167C136.047 89.0578 141.106 94.1173 147.347 94.1173Z" fill="#A0616A"/>
<path d="M160.135 75.5825C161.707 69.8502 144.571 64.9346 141.241 69.5508C140.778 68.8946 139.067 68.4959 138.282 68.6972C137.496 68.8986 136.836 69.4019 136.192 69.8891C135.306 70.5695 134.388 71.2742 133.844 72.2526C133.297 73.227 133.212 74.5557 133.949 75.4013C134.533 76.0737 135.559 79.6468 136.437 79.824C137.049 79.9488 137.564 80.0495 138.007 80.1219C138.401 79.5462 139.408 78.8229 139.335 78.1263C139.931 78.5209 139.713 79.2151 139.593 79.9247C139.193 82.2873 130.18 100.577 135.342 95.1871C135.854 95.4891 136.486 95.7709 137.215 96.0286C138.451 94.1644 139.465 91.966 140.134 89.6669L140.138 89.7093C140.369 91.7073 141.829 93.3467 143.76 93.9064C151.51 96.1514 157.778 92.8572 159.934 86.9167C159.145 85.3141 158.801 85.4882 158.872 85.4405C159.857 84.7764 161.211 85.2107 161.635 86.321C161.76 86.6484 161.873 86.9278 161.971 87.1381C163.095 83.1197 164.431 83.6997 160.135 75.5825Z" fill="#2F2E41"/>
<path d="M154.791 71.4241L153.999 67.3774C153.932 67.0372 153.869 66.6681 154.023 66.3573C154.22 65.9579 154.726 65.7924 155.167 65.856C155.608 65.9197 155.938 66.3223 156.376 66.3998C157.901 66.6694 159.917 65.1633 160.463 68.9735C160.691 70.5621 163.226 70.7299 164.072 72.0932C164.919 73.4566 165.023 75.4246 163.867 76.5384C162.945 77.428 161.463 77.5307 160.264 77.0762C159.066 76.6218 158.104 75.7039 157.264 74.736C156.424 73.7681 155.663 72.7206 154.694 71.8818" fill="#2F2E41"/>
<path d="M160.739 77.579C157.647 77.147 155.54 76.0224 154.475 74.2367C153.081 71.8991 154.015 69.3253 154.055 69.2168L154.709 69.4598C154.7 69.4834 153.853 71.8396 155.078 73.8856C156.03 75.4772 157.967 76.4876 160.836 76.8884L160.739 77.579Z" fill="#1CA686"/>
<path d="M175.25 33.853C166.159 33.853 158.763 26.4563 158.763 17.3657C158.763 8.27516 166.159 0.878418 175.25 0.878418C184.341 0.878418 191.737 8.27516 191.737 17.3657C191.737 26.4563 184.341 33.853 175.25 33.853ZM175.25 7.47334C169.795 7.47334 165.358 11.9107 165.358 17.3657C165.358 22.8207 169.795 27.2581 175.25 27.2581C180.705 27.2581 185.142 22.8207 185.142 17.3657C185.142 11.9107 180.705 7.47334 175.25 7.47334Z" fill="#1CA686"/>
<path d="M200.616 45.0579C199.808 45.0579 198.998 44.7632 198.362 44.1659L182.887 29.6638C181.557 28.4192 181.49 26.3326 182.736 25.0042C183.979 23.6711 186.066 23.6051 187.395 24.8529L202.87 39.3549C204.2 40.5995 204.268 42.6862 203.021 44.0145C202.373 44.7085 201.495 45.0579 200.616 45.0579Z" fill="#1CA686"/>
<path d="M270.554 271.202C271.675 271.273 272.294 269.88 271.446 269.068L271.362 268.732C271.373 268.705 271.384 268.679 271.395 268.652C272.529 265.948 276.372 265.967 277.496 268.674C278.494 271.078 279.764 273.485 280.077 276.026C280.217 277.147 280.154 278.29 279.905 279.39C282.243 274.284 283.473 268.707 283.473 263.099C283.473 261.69 283.396 260.281 283.238 258.875C283.109 257.725 282.93 256.583 282.699 255.451C281.447 249.331 278.738 243.502 274.83 238.633C272.951 237.606 271.384 236.001 270.438 234.076C270.098 233.382 269.831 232.636 269.705 231.875C269.919 231.903 270.511 228.647 270.35 228.447C270.648 227.995 271.181 227.77 271.507 227.329C273.125 225.135 275.355 225.518 276.519 228.5C279.006 229.755 279.03 231.836 277.504 233.838C276.533 235.112 276.4 236.835 275.548 238.198C275.636 238.311 275.727 238.419 275.814 238.531C277.421 240.592 278.811 242.808 279.983 245.135C279.652 242.549 280.141 239.433 280.974 237.424C281.923 235.135 283.701 233.208 285.267 231.229C287.148 228.853 291.005 229.89 291.336 232.902C291.339 232.932 291.343 232.961 291.346 232.99C291.113 233.121 290.885 233.26 290.663 233.408C289.393 234.247 289.832 236.215 291.336 236.448L291.37 236.453C291.286 237.291 291.142 238.121 290.932 238.938C292.941 246.707 288.604 249.537 282.411 249.664C282.274 249.734 282.141 249.804 282.004 249.87C282.632 251.637 283.133 253.449 283.505 255.286C283.838 256.909 284.069 258.549 284.199 260.197C284.36 262.275 284.346 264.364 284.171 266.439L284.181 266.366C284.626 264.08 285.867 261.946 287.669 260.466C290.353 258.262 294.145 257.45 297.04 255.678C298.434 254.825 300.22 255.927 299.977 257.543L299.965 257.62C299.534 257.796 299.113 257.999 298.706 258.227C298.474 258.358 298.246 258.497 298.023 258.644C296.754 259.484 297.192 261.452 298.697 261.684L298.731 261.69C298.755 261.693 298.776 261.697 298.801 261.7C298.061 263.456 297.031 265.086 295.741 266.492C294.485 273.274 289.09 273.917 283.319 271.942H283.315C282.684 274.69 281.763 277.375 280.578 279.934H270.799C270.764 279.825 270.732 279.713 270.701 279.604C271.605 279.66 272.516 279.608 273.406 279.443C272.681 278.553 271.955 277.655 271.23 276.765C271.212 276.748 271.198 276.73 271.184 276.713C270.816 276.257 270.445 275.805 270.077 275.349L270.076 275.349C270.053 273.95 270.221 272.555 270.554 271.202Z" fill="#F2F2F2"/>
<path d="M0 279.963C0 280.321 0.287638 280.609 0.645824 280.609H299.278C299.636 280.609 299.924 280.321 299.924 279.963C299.924 279.605 299.636 279.317 299.278 279.317H0.645824C0.287638 279.317 0 279.605 0 279.963Z" fill="#CCCCCC"/>
</g>
<path d="M52.009 327.008C52.009 326.048 52.1583 325.163 52.457 324.352C52.7557 323.542 53.2037 322.848 53.801 322.272C54.4197 321.696 55.1663 321.248 56.041 320.928C56.937 320.587 57.9823 320.416 59.177 320.416C60.5423 320.416 61.7903 320.715 62.921 321.312C64.073 321.91 65.0863 322.827 65.961 324.064L63.849 325.568C63.2303 324.651 62.5263 323.958 61.737 323.488C60.9477 322.998 60.0943 322.752 59.177 322.752C58.473 322.752 57.8543 322.87 57.321 323.104C56.7877 323.318 56.3397 323.616 55.977 324C55.6143 324.363 55.337 324.8 55.145 325.312C54.953 325.803 54.857 326.326 54.857 326.88C54.857 327.904 55.0383 328.779 55.401 329.504C55.7637 330.208 56.2437 330.87 56.841 331.488L58.377 333.088C58.9317 333.664 59.3583 334.262 59.657 334.88C59.977 335.499 60.137 336.235 60.137 337.088V339.36H57.449V337.28C57.449 336.811 57.3423 336.374 57.129 335.968C56.937 335.563 56.6383 335.147 56.233 334.72L54.793 333.216C54.4303 332.832 54.0783 332.438 53.737 332.032C53.417 331.606 53.129 331.147 52.873 330.656C52.617 330.144 52.4037 329.59 52.233 328.992C52.0837 328.395 52.009 327.734 52.009 327.008ZM57.097 344.608V341.536H60.489V344.608H57.097ZM76.7808 327.328C76.7808 326.88 76.9301 326.496 77.2288 326.176C77.5488 325.856 77.9328 325.696 78.3808 325.696C78.8288 325.696 79.2128 325.856 79.5328 326.176C79.8528 326.496 80.0128 326.88 80.0128 327.328C80.0128 327.776 79.8528 328.16 79.5328 328.48C79.2128 328.779 78.8288 328.928 78.3808 328.928C77.9328 328.928 77.5488 328.779 77.2288 328.48C76.9301 328.16 76.7808 327.776 76.7808 327.328ZM81.4528 327.328C81.4528 326.88 81.6021 326.496 81.9008 326.176C82.1994 325.856 82.5621 325.696 82.9888 325.696C83.4581 325.696 83.8528 325.856 84.1728 326.176C84.4928 326.496 84.6528 326.88 84.6528 327.328C84.6528 327.776 84.4928 328.16 84.1728 328.48C83.8528 328.779 83.4581 328.928 82.9888 328.928C82.5621 328.928 82.1994 328.779 81.9008 328.48C81.6021 328.16 81.4528 327.776 81.4528 327.328ZM79.0848 323.264C79.0848 322.795 79.2448 322.4 79.5648 322.08C79.8848 321.76 80.2581 321.6 80.6848 321.6C81.1541 321.6 81.5488 321.76 81.8688 322.08C82.1888 322.4 82.3488 322.795 82.3488 323.264C82.3488 323.691 82.1888 324.064 81.8688 324.384C81.5488 324.704 81.1541 324.864 80.6848 324.864C80.2581 324.864 79.8848 324.704 79.5648 324.384C79.2448 324.064 79.0848 323.691 79.0848 323.264ZM85.3248 342.048C86.7968 342.048 87.8101 341.771 88.3648 341.216C88.9408 340.662 89.2288 339.766 89.2288 338.528V330.368H91.4048V338.112C91.4048 339.136 91.3194 339.958 91.1488 340.576C90.9994 341.195 90.7114 341.686 90.2848 342.048H95.5968L96.2368 342.688V343.968L95.5968 344.608H76.2368C74.8288 344.608 73.6234 344.448 72.6208 344.128C71.6394 343.808 70.8394 343.36 70.2208 342.784C69.6234 342.187 69.1861 341.483 68.9088 340.672C68.6314 339.84 68.4928 338.923 68.4928 337.92C68.4928 336.832 68.5888 335.819 68.7808 334.88C68.9728 333.92 69.2714 332.875 69.6768 331.744L71.7568 332.384C71.3728 333.408 71.0954 334.336 70.9248 335.168C70.7541 336 70.6688 336.886 70.6688 337.824C70.6688 338.528 70.7434 339.147 70.8928 339.68C71.0634 340.214 71.3728 340.662 71.8208 341.024C72.2901 341.366 72.9301 341.622 73.7408 341.792C74.5728 341.963 75.6394 342.048 76.9408 342.048H85.3248ZM95.5938 344.608L94.9537 343.968V342.688L95.5938 342.048H113.45C112.81 340.299 112.084 338.838 111.274 337.664C110.484 336.491 109.652 335.552 108.778 334.848C107.903 334.144 106.996 333.654 106.058 333.376C105.119 333.078 104.191 332.928 103.274 332.928C102.719 332.928 102.1 333.035 101.418 333.248C100.735 333.44 100.042 333.782 99.3378 334.272L98.1218 332.096C99.0818 331.414 100.01 330.955 100.906 330.72C101.802 330.486 102.698 330.368 103.594 330.368C104.746 330.368 105.898 330.571 107.05 330.976C108.202 331.382 109.3 332.054 110.346 332.992C111.412 333.91 112.404 335.115 113.322 336.608C114.239 338.08 115.06 339.894 115.786 342.048H119.082L119.722 342.688V343.968L119.082 344.608H95.5938ZM130.998 342.048L131.638 342.688V343.968L130.998 344.608H119.094L118.454 343.968V342.688L119.094 342.048H120.054C121.526 342.048 122.539 341.771 123.094 341.216C123.67 340.662 123.958 339.766 123.958 338.528V330.368H126.134V338.112C126.134 339.136 126.048 339.958 125.878 340.576C125.728 341.195 125.44 341.686 125.014 342.048H130.998ZM121.846 348.128C121.846 347.68 121.995 347.296 122.294 346.976C122.614 346.656 122.998 346.496 123.446 346.496C123.894 346.496 124.278 346.656 124.598 346.976C124.918 347.296 125.078 347.68 125.078 348.128C125.078 348.576 124.918 348.95 124.598 349.248C124.278 349.568 123.894 349.728 123.446 349.728C122.998 349.728 122.614 349.568 122.294 349.248C121.995 348.95 121.846 348.576 121.846 348.128ZM137.784 338.304C137.784 339.307 137.677 340.203 137.464 340.992C137.272 341.76 136.931 342.411 136.44 342.944C135.971 343.478 135.331 343.894 134.52 344.192C133.731 344.47 132.728 344.608 131.512 344.608H131L130.36 343.968V342.688L131 342.048H132.216C133.56 342.048 134.456 341.771 134.904 341.216C135.373 340.662 135.608 339.83 135.608 338.72V330.368H137.784V338.304ZM132.76 325.568C132.76 325.12 132.909 324.736 133.208 324.416C133.528 324.096 133.912 323.936 134.36 323.936C134.808 323.936 135.192 324.096 135.512 324.416C135.832 324.736 135.992 325.12 135.992 325.568C135.992 326.016 135.832 326.4 135.512 326.72C135.192 327.019 134.808 327.168 134.36 327.168C133.912 327.168 133.528 327.019 133.208 326.72C132.909 326.4 132.76 326.016 132.76 325.568ZM137.432 325.568C137.432 325.12 137.581 324.736 137.88 324.416C138.179 324.096 138.541 323.936 138.968 323.936C139.437 323.936 139.832 324.096 140.152 324.416C140.472 324.736 140.632 325.12 140.632 325.568C140.632 326.016 140.472 326.4 140.152 326.72C139.832 327.019 139.437 327.168 138.968 327.168C138.541 327.168 138.179 327.019 137.88 326.72C137.581 326.4 137.432 326.016 137.432 325.568ZM151.005 344.608V320.864H153.181V344.608H151.005ZM170.566 344.608H157.158L157.926 342.048H168.39C168.39 339.318 167.675 337.152 166.246 335.552C164.817 333.931 162.737 332.918 160.006 332.512L160.87 330.048C163.985 330.624 166.374 331.915 168.038 333.92C169.723 335.926 170.566 338.635 170.566 342.048V344.608ZM159.59 325.28C159.59 324.832 159.739 324.448 160.038 324.128C160.358 323.808 160.742 323.648 161.19 323.648C161.638 323.648 162.022 323.808 162.342 324.128C162.662 324.448 162.822 324.832 162.822 325.28C162.822 325.728 162.662 326.112 162.342 326.432C162.022 326.731 161.638 326.88 161.19 326.88C160.742 326.88 160.358 326.731 160.038 326.432C159.739 326.112 159.59 325.728 159.59 325.28ZM177.306 320.864V338.72C177.306 339.936 177.541 340.8 178.01 341.312C178.501 341.803 179.397 342.048 180.698 342.048H181.594L182.234 342.688V343.968L181.594 344.608H181.434C180.154 344.608 179.109 344.448 178.298 344.128C177.487 343.787 176.847 343.328 176.378 342.752C175.909 342.176 175.578 341.504 175.386 340.736C175.215 339.947 175.13 339.094 175.13 338.176V320.864H177.306ZM180.922 343.968V342.688L181.594 342.048C182.532 342.048 183.204 341.867 183.61 341.504C184.036 341.12 184.41 340.555 184.73 339.808C185.455 338.123 186.116 336.704 186.714 335.552C187.332 334.379 187.94 333.44 188.538 332.736C189.156 332.011 189.775 331.488 190.394 331.168C191.034 330.848 191.738 330.688 192.506 330.688C193.316 330.688 194.084 330.934 194.81 331.424C195.535 331.915 196.164 332.566 196.698 333.376C197.231 334.187 197.647 335.126 197.946 336.192C198.266 337.238 198.426 338.315 198.426 339.424C198.426 341.067 197.956 342.368 197.018 343.328C196.079 344.267 194.511 344.736 192.314 344.736C190.991 344.736 189.807 344.608 188.762 344.352C187.716 344.096 186.639 343.638 185.53 342.976C185.103 343.531 184.602 343.947 184.026 344.224C183.471 344.48 182.66 344.608 181.594 344.608L180.922 343.968ZM192.122 333.248C191.716 333.248 191.322 333.355 190.938 333.568C190.575 333.782 190.191 334.155 189.786 334.688C189.38 335.222 188.943 335.947 188.474 336.864C188.004 337.76 187.482 338.912 186.906 340.32C187.887 340.939 188.858 341.408 189.818 341.728C190.799 342.027 191.898 342.176 193.114 342.176C194.372 342.176 195.204 342.006 195.61 341.664C196.036 341.323 196.25 340.779 196.25 340.032C196.25 339.179 196.143 338.347 195.93 337.536C195.716 336.726 195.428 336 195.066 335.36C194.703 334.72 194.266 334.208 193.754 333.824C193.242 333.44 192.698 333.248 192.122 333.248ZM223.93 330.368H226.106V342.048H230.266L230.906 342.688V343.968L230.266 344.608H225.946C225.541 347.04 224.613 348.907 223.162 350.208C221.733 351.531 219.61 352.192 216.794 352.192C215.386 352.192 214.117 351.968 212.986 351.52C211.877 351.072 210.928 350.432 210.138 349.6C209.37 348.768 208.773 347.766 208.346 346.592C207.92 345.419 207.706 344.096 207.706 342.624C207.706 341.984 207.738 341.28 207.802 340.512C207.866 339.723 208.005 338.902 208.218 338.048L210.33 338.432C210.16 339.179 210.042 339.862 209.978 340.48C209.914 341.078 209.882 341.686 209.882 342.304C209.882 344.822 210.458 346.667 211.61 347.84C212.762 349.035 214.565 349.632 217.018 349.632C218.17 349.632 219.173 349.504 220.026 349.248C220.901 349.014 221.626 348.598 222.202 348C222.778 347.424 223.205 346.656 223.482 345.696C223.781 344.736 223.93 343.542 223.93 342.112V330.368ZM214.714 329.216C214.714 328.768 214.864 328.384 215.162 328.064C215.482 327.744 215.866 327.584 216.314 327.584C216.762 327.584 217.146 327.744 217.466 328.064C217.786 328.384 217.946 328.768 217.946 329.216C217.946 329.664 217.786 330.048 217.466 330.368C217.146 330.667 216.762 330.816 216.314 330.816C215.866 330.816 215.482 330.667 215.162 330.368C214.864 330.048 214.714 329.664 214.714 329.216ZM232.553 336.96C232.553 335.851 232.777 334.838 233.225 333.92C233.695 332.982 234.292 332.182 235.017 331.52C235.743 330.838 236.553 330.315 237.449 329.952C238.345 329.59 239.241 329.408 240.137 329.408C240.991 329.408 241.844 329.504 242.697 329.696C243.572 329.888 244.543 330.347 245.609 331.072L244.233 333.408C243.316 332.811 242.505 332.427 241.801 332.256C241.097 332.064 240.361 331.968 239.593 331.968C238.953 331.968 238.335 332.096 237.737 332.352C237.161 332.608 236.649 332.95 236.201 333.376C235.753 333.782 235.391 334.251 235.113 334.784C234.857 335.318 234.729 335.862 234.729 336.416C234.729 337.035 234.857 337.686 235.113 338.368C235.369 339.03 235.753 339.638 236.265 340.192C236.777 340.726 237.428 341.174 238.217 341.536C239.007 341.878 239.935 342.048 241.001 342.048C241.599 342.048 242.164 342.038 242.697 342.016C243.231 341.995 243.743 341.952 244.233 341.888C244.745 341.824 245.247 341.75 245.737 341.664C246.249 341.558 246.783 341.44 247.337 341.312L246.793 343.744C244.617 344.32 242.217 344.608 239.593 344.608H230.281L229.641 343.968V342.688L230.281 342.048H233.193C233.684 342.048 234.1 342.091 234.441 342.176C234.804 342.24 235.156 342.326 235.497 342.432L235.561 342.336C234.708 341.803 233.993 341.067 233.417 340.128C232.841 339.168 232.553 338.112 232.553 336.96Z" fill="#444B49"/>
<defs>
<clipPath id="clip0_931_40357">
<rect width="300" height="279.73" fill="white" transform="translate(0 0.878418)"/>
</clipPath>
</defs>
</svg>
